<svg version="1.1" xmlns="http://www.w3.org/2000/svg" xmlns:xlink="http://www.w3.org/1999/xlink" width="320" height="320"><defs/><g transform="scale(2,2)"><g id="background-5d33e4ba"><rect fill="white" stroke="none" x="0" y="0" width="160" height="160" class="dcg-svg-background"/></g><g id="background-images-5d33e4ba"/><g id="graphpaper-5d33e4ba"><g id="axis-5d33e4ba"><g id="yaxis-5d33e4ba"><title>Y axis</title><g><path fill="none" stroke="rgb(0,0,0)" class="dcg-svg-axis-line" paint-order="fill stroke markers" d=" M 0 0 L 0 160" stroke-opacity="0.9" stroke-miterlimit="10" stroke-width="1.5" stroke-dasharray=""/></g></g><g id="xaxis-5d33e4ba"><title>X axis</title><g><path fill="none" stroke="rgb(0,0,0)" class="dcg-svg-axis-line" paint-order="fill stroke markers" d=" M 0 160 L 160 160" stroke-opacity="0.9" stroke-miterlimit="10" stroke-width="1.5" stroke-dasharray=""/></g></g><g><g><path fill="none" stroke="rgb(0,0,0)" class="dcg-svg-tickmark" paint-order="fill stroke markers" d="" stroke-opacity="0.9" stroke-miterlimit="2" stroke-width="1.5" stroke-dasharray=""/></g></g></g></g><g id="expressions-5d33e4ba"><g id="sketch-5d33e4ba"><title>Expression 1</title><path fill="#c74440" stroke="none" paint-order="stroke fill markers" d="" fill-opacity="0.4"/><g><path fill="none" stroke="#c74440" class="dcg-svg-curve" paint-order="fill stroke markers" d=" M 0 160 L 0 160 L 2.890625 159.9477767944336 L 5.78125 159.79110717773438 L 8.671875 159.52999114990234 L 11.5625 159.1644287109375 L 14.453125 158.69441986083984 L 17.3828125 158.11148643493652 L 20.3125 157.4212646484375 L 23.2421875 156.62375450134277 L 26.2109375 155.70616722106934 L 29.1796875 154.67841148376465 L 32.1875 153.5247802734375 L 35.1953125 152.2580623626709 L 38.2421875 150.85959434509277 L 41.328125 149.32491302490234 L 44.4140625 147.6711940765381 L 47.5390625 145.87523460388184 L 50.703125 143.93245697021484 L 53.90625 141.83822631835938 L 57.1484375 139.5878505706787 L 60.4296875 137.17658042907715 L 63.75 134.599609375 L 67.109375 131.8520736694336 L 70.5078125 128.92905235290527 L 73.984375 125.7894515991211 L 77.5 122.4609375 L 81.0546875 118.9383602142334 L 84.6875 115.1751708984375 L 88.359375 111.2038803100586 L 92.109375 106.9741439819336 L 95.9375 102.4749755859375 L 99.8046875 97.7439022064209 L 103.75 92.724609375 L 107.7734375 87.40553855895996 L 111.875 81.77490234375 L 115.9765625 75.93398094177246 L 120.078125 69.88277435302734 L 124.1796875 63.62128257751465 L 128.28125 57.149505615234375 L 132.3828125 50.46744346618652 L 136.5234375 43.50844383239746 L 140.6640625 36.335134506225586 L 144.84375 28.876800537109375 L 149.0234375 21.20009422302246 L 153.203125 13.305015563964844 L 157.421875 5.114707946777344 L 160 0" stroke-linecap="round" stroke-linejoin="round" stroke-miterlimit="10" stroke-width="2.5" stroke-opacity="0.9" stroke-dasharray=""/></g></g><g id="sketch-5d33e4ba"><title>Expression 2</title><path fill="#2d70b3" stroke="none" paint-order="stroke fill markers" d="" fill-opacity="0.4"/><g><path fill="none" stroke="#2d70b3" class="dcg-svg-curve" paint-order="fill stroke markers" d=" M 0 160 L 0 160 L 10.9765625 159.94833944132552 L 16.8359375 159.81358882272616 L 21.7578125 159.59764840779826 L 26.1328125 159.30286242393777 L 30.15625 158.9287470281124 L 33.9453125 158.47208403749391 L 37.5 157.9400634765625 L 40.8984375 157.32773093739524 L 44.1796875 156.63156668888405 L 47.34375 155.85477605462074 L 50.4296875 154.99021756695583 L 53.4375 154.03928399085999 L 56.3671875 153.00417185993865 L 59.2578125 151.87175321159884 L 62.109375 150.64095551148057 L 64.921875 149.31109549477696 L 67.6953125 147.881863869261 L 70.4296875 146.35331022785977 L 73.1640625 144.7013372532092 L 75.859375 142.9475095309317 L 78.5546875 141.06451860861853 L 81.25 139.0477752685547 L 83.9453125 136.89269029302523 L 86.640625 134.59467446431518 L 89.3359375 132.14913856470957 L 92.03125 129.55149337649345 L 94.765625 126.75605705007911 L 97.5 123.7945556640625 L 100.2734375 120.6161884428002 L 103.0859375 117.20842126989737 L 105.8984375 113.60953865805641 L 108.75 109.76020812988281 L 111.6015625 105.70362197002396 L 114.4140625 101.49429004406556 L 117.1875 97.1357262134552 L 119.9609375 92.56589651340619 L 122.6953125 87.84873530967161 L 125.4296875 82.9165657167323 L 128.1640625 77.76459607994184 L 130.859375 72.46644640341401 L 133.5546875 66.94548688130453 L 136.25 61.19712829589844 L 138.9453125 55.21678142948076 L 141.640625 48.99985706433654 L 144.3359375 42.5417659827508 L 147.03125 35.83791896700859 L 149.7265625 28.883726799394935 L 152.421875 21.674600262194872 L 155.1171875 14.205950137693435 L 157.8515625 6.359153927769512 L 160 0" stroke-linecap="round" stroke-linejoin="round" stroke-miterlimit="10" stroke-width="2.5" stroke-opacity="0.9" stroke-dasharray=""/></g></g><g id="sketch-5d33e4ba"><title>Expression 3</title><path fill="#388c46" stroke="none" paint-order="stroke fill markers" d="" fill-opacity="0.4"/><g><path fill="none" stroke="#388c46" class="dcg-svg-curve" paint-order="fill stroke markers" d=" M 0 160 L 0 160 L 21.484375 159.94798471902868 L 29.296875 159.82014387001072 L 35.3125 159.62037577992305 L 40.390625 159.35022597564057 L 44.8828125 159.00925861288613 L 48.984375 158.5943722036518 L 52.734375 158.11194228982458 L 56.25 157.55583703517914 L 59.5703125 156.9256057053002 L 62.734375 156.2185152391521 L 65.7421875 155.43945595228195 L 68.6328125 154.58289521021413 L 71.40625 153.65275946896872 L 74.1015625 152.63878479787252 L 76.71875 151.54241980271763 L 79.296875 150.3469547405166 L 81.796875 149.07083707598758 L 84.2578125 147.69502399386454 L 86.6796875 146.21809031105784 L 89.0625 144.63899682974443 L 91.40625 142.95709510784945 L 93.75 141.14071786403656 L 96.09375 139.18288127038977 L 98.3984375 137.11278966771658 L 100.703125 134.8920160214675 L 103.0078125 132.51341977439495 L 105.3515625 129.92511491471248 L 107.6953125 127.15817707104122 L 110.0390625 124.20457042113355 L 112.421875 121.00190892465434 L 114.765625 117.64669004055577 L 117.0703125 114.1407273249655 L 119.3359375 110.48633783731873 L 121.6015625 106.61777474711869 L 123.828125 102.59929325721714 L 126.015625 98.43446710015087 L 128.203125 94.04700871759815 L 130.3515625 89.51365075341471 L 132.5 84.75050926208496 L 134.6484375 79.74994764377641 L 136.796875 74.50420446198223 L 138.90625 69.10767766166828 L 141.015625 63.45962123114987 L 143.125 57.55233820527792 L 145.234375 51.37801561663764 L 147.34375 44.92872449554852 L 149.453125 38.19641987006435 L 151.5625 31.17294076597318 L 153.671875 23.85001020679738 L 155.78125 16.21923521379358 L 157.9296875 8.121899770603136 L 160 0" stroke-linecap="round" stroke-linejoin="round" stroke-miterlimit="10" stroke-width="2.5" stroke-opacity="0.9" stroke-dasharray=""/></g></g><g id="sketch-5d33e4ba"><title>Expression 4</title><path fill="#6042a6" stroke="none" paint-order="stroke fill markers" d="" fill-opacity="0.4"/><g><path fill="none" stroke="#6042a6" class="dcg-svg-curve" paint-order="fill stroke markers" d=" M 0 160 L 0 160 L 32.109375 159.94791899807532 L 40.9375 159.82456079282656 L 47.4609375 159.63254713956786 L 52.8125 159.37309216034464 L 57.421875 159.04740802932068 L 61.5234375 158.65499768003176 L 65.234375 158.19738658581036 L 68.671875 157.6696851834195 L 71.875 157.07309007135336 L 74.8828125 156.40721848823557 L 77.734375 155.66902551818848 L 80.4296875 154.86427245557832 L 83.0078125 153.98667170305174 L 85.5078125 153.02492228729773 L 87.9296875 151.97956879878387 L 90.2734375 150.85213029542223 L 92.5390625 149.64510864840298 L 94.765625 148.3379680885596 L 96.953125 146.92838859416642 L 99.1015625 145.41445777338382 L 101.2109375 143.79469132658377 L 103.3203125 142.03411461746666 L 105.390625 140.1605344106037 L 107.4609375 138.13380610790242 L 109.53125 135.94472704015786 L 111.6015625 133.5837330487728 L 113.671875 131.04089152140384 L 115.7421875 128.3058944276072 L 117.8125 125.36805135448503 L 119.84375 122.27779949029369 L 121.8359375 119.0364943316057 L 123.7890625 115.6461382181201 L 125.703125 112.10938197344387 L 127.6171875 108.35052455076902 L 129.4921875 104.4431125589822 L 131.3671875 100.3027150978461 L 133.203125 96.01294271254599 L 135.0390625 91.48003372626805 L 136.875 86.69379613667843 L 138.671875 81.75402471934753 L 140.46875 76.55147626026704 L 142.265625 71.07580341237204 L 144.0625 65.31639069421999 L 145.859375 59.26235106001813 L 147.65625 52.90252246965096 L 149.453125 46.22546445870756 L 151.25 39.21945470850915 L 153.046875 31.8724856161364 L 154.84375 24.172260864456945 L 156.640625 16.10619199215276 L 158.4375 7.661394963747625 L 160 0" stroke-linecap="round" stroke-linejoin="round" stroke-miterlimit="10" stroke-width="2.5" stroke-opacity="0.9" stroke-dasharray=""/></g></g></g><g id="labels-5d33e4ba"/></g></svg>