<svg version="1.1" viewBox="0.0 0.0 384.0 288.0" fill="none" stroke="none" stroke-linecap="square" stroke-miterlimit="10" xmlns:xlink="http://www.w3.org/1999/xlink" xmlns="http://www.w3.org/2000/svg"><clipPath id="p.0"><path d="m0 0l384.0 0l0 288.0l-384.0 0l0 -288.0z" clip-rule="nonzero"/></clipPath><g clip-path="url(#p.0)"><path fill="#000000" fill-opacity="0.0" d="m0 0l384.0 0l0 288.0l-384.0 0z" fill-rule="evenodd"/><path fill="#000000" fill-opacity="0.0" d="m47.99836 24.0l288.0 0l0 96.0l-288.0 0z" fill-rule="evenodd"/><path fill="#2979ff" d="m106.55292 103.479996l0 -57.03125l11.875 0l0 57.03125l-11.875 0zm-17.609375 -51.75l0 -11.265625l47.09375 0l0 11.265625l-47.09375 0zm69.26541 51.75l0 -57.03125l11.875 0l0 57.03125l-11.875 0zm-17.609375 -51.75l0 -11.265625l47.09375 0l0 11.265625l-47.09375 0zm56.593536 51.75l0 -63.015625l39.953125 0l0 11.265625l-28.078125 0l0 51.75l-11.875 0zm6.59375 -25.171875l0 -11.265625l30.546875 0l0 11.265625l-30.546875 0zm43.83026 25.171875l0 -63.015625l24.640625 0q5.453125 0 9.8125 2.25q4.359375 2.25 6.90625 5.953125q2.546875 3.6875 2.546875 8.265625q0 4.921875 -2.421875 8.359375q-2.421875 3.421875 -6.015625 5.1875l0 0.703125q4.828125 1.671875 7.78125 5.5q2.953125 3.828125 2.953125 9.28125q0 5.375 -2.78125 9.296875q-2.765625 3.90625 -7.484375 6.0625q-4.703125 2.15625 -10.421875 2.15625l-25.515625 0zm6.59375 -27.109375l0 -10.203125l17.15625 0q2.734375 0 4.625 -1.015625q1.890625 -1.015625 2.90625 -2.765625q1.015625 -1.765625 1.015625 -3.78125q0 -2.109375 -0.96875 -3.78125q-0.96875 -1.6875 -2.828125 -2.6875q-1.84375 -1.015625 -4.390625 -1.015625l-12.234375 0l0 41.53125l13.203125 0q2.984375 0 5.015625 -1.046875q2.03125 -1.0625 3.078125 -2.90625q1.0625 -1.84375 1.0625 -4.140625q0 -2.375 -1.0625 -4.21875q-1.046875 -1.84375 -3.171875 -2.90625q-2.109375 -1.0625 -5.28125 -1.0625l-18.125 0z" fill-rule="nonzero"/><path fill="#0cce6b" d="m43.2 177.60136l96.0 0l0 38.393692l-96.0 0z" fill-rule="evenodd"/><path fill="#000000" d="m77.22073 201.5057q-0.9375 0 -1.75 -0.328125q-0.8125 -0.34375 -1.4375 -0.9375q-0.609375 -0.609375 -0.96875 -1.4375q-0.34375 -0.828125 -0.34375 -1.78125q0 -0.953125 0.34375 -1.78125q0.359375 -0.828125 0.96875 -1.421875q0.625 -0.609375 1.4375 -0.9375q0.8125 -0.34375 1.75 -0.34375q0.984375 0 1.8125 0.34375q0.828125 0.34375 1.390625 0.96875l-0.90625 0.90625q-0.28125 -0.3125 -0.640625 -0.53125q-0.34375 -0.21875 -0.765625 -0.328125q-0.421875 -0.109375 -0.890625 -0.109375q-0.640625 0 -1.21875 0.234375q-0.578125 0.21875 -1.015625 0.640625q-0.4375 0.421875 -0.6875 1.015625q-0.25 0.59375 -0.25 1.34375q0 0.75 0.25 1.34375q0.265625 0.59375 0.703125 1.015625q0.4375 0.421875 1.015625 0.65625q0.578125 0.21875 1.203125 0.21875q0.59375 0 1.09375 -0.15625q0.515625 -0.171875 0.890625 -0.484375q0.390625 -0.3125 0.625 -0.765625q0.25 -0.453125 0.3125 -1.015625l-2.9375 0l0 -1.15625l4.171875 0q0.03125 0.140625 0.046875 0.328125q0.03125 0.1875 0.03125 0.359375l0 0l0 0l0 0q0 0.921875 -0.328125 1.703125q-0.3125 0.765625 -0.875 1.3125q-0.5625 0.546875 -1.34375 0.84375q-0.765625 0.28125 -1.6875 0.28125zm9.501572 0q-0.953125 0 -1.765625 -0.34375q-0.8125 -0.34375 -1.40625 -0.953125q-0.59375 -0.625 -0.9375 -1.4375q-0.328125 -0.8125 -0.328125 -1.75q0 -0.9375 0.328125 -1.75q0.34375 -0.8125 0.9375 -1.421875q0.59375 -0.625 1.40625 -0.96875q0.8125 -0.34375 1.765625 -0.34375q0.96875 0 1.765625 0.34375q0.8125 0.34375 1.40625 0.96875q0.609375 0.609375 0.9375 1.421875q0.34375 0.8125 0.34375 1.75q0 0.9375 -0.34375 1.75q-0.328125 0.8125 -0.9375 1.4375q-0.59375 0.609375 -1.40625 0.953125q-0.796875 0.34375 -1.765625 0.34375zm0 -1.25q0.890625 0 1.578125 -0.40625q0.703125 -0.40625 1.125 -1.140625q0.421875 -0.734375 0.421875 -1.6875q0 -0.96875 -0.421875 -1.6875q-0.421875 -0.734375 -1.125 -1.140625q-0.6875 -0.40625 -1.578125 -0.40625q-0.859375 0 -1.5625 0.40625q-0.703125 0.40625 -1.125 1.140625q-0.421875 0.71875 -0.421875 1.6875q0 0.953125 0.421875 1.6875q0.421875 0.734375 1.125 1.140625q0.703125 0.40625 1.5625 0.40625zm9.864075 1.25q-0.953125 0 -1.765625 -0.34375q-0.8125 -0.34375 -1.40625 -0.953125q-0.59375 -0.625 -0.9375 -1.4375q-0.328125 -0.8125 -0.328125 -1.75q0 -0.9375 0.328125 -1.75q0.34375 -0.8125 0.9375 -1.421875q0.59375 -0.625 1.40625 -0.96875q0.8125 -0.34375 1.765625 -0.34375q0.96875 0 1.765625 0.34375q0.8125 0.34375 1.40625 0.96875q0.609375 0.609375 0.9375 1.421875q0.34375 0.8125 0.34375 1.75q0 0.9375 -0.34375 1.75q-0.328125 0.8125 -0.9375 1.4375q-0.59375 0.609375 -1.40625 0.953125q-0.796875 0.34375 -1.765625 0.34375zm0 -1.25q0.890625 0 1.578125 -0.40625q0.703125 -0.40625 1.125 -1.140625q0.421875 -0.734375 0.421875 -1.6875q0 -0.96875 -0.421875 -1.6875q-0.421875 -0.734375 -1.125 -1.140625q-0.6875 -0.40625 -1.578125 -0.40625q-0.859375 0 -1.5625 0.40625q-0.703125 0.40625 -1.125 1.140625q-0.421875 0.71875 -0.421875 1.6875q0 0.953125 0.421875 1.6875q0.421875 0.734375 1.125 1.140625q0.703125 0.40625 1.5625 0.40625zm5.968445 1.0625l0 -8.59375l2.75 0q1.359375 0 2.328125 0.546875q0.984375 0.546875 1.515625 1.515625q0.53125 0.96875 0.53125 2.234375q0 1.265625 -0.53125 2.234375q-0.53125 0.96875 -1.515625 1.515625q-0.96875 0.546875 -2.328125 0.546875l-2.75 0zm1.328125 -1.25l1.390625 0q0.96875 0 1.65625 -0.359375q0.703125 -0.375 1.0625 -1.046875q0.359375 -0.6875 0.359375 -1.640625q0 -0.953125 -0.359375 -1.625q-0.359375 -0.6875 -1.0625 -1.046875q-0.6875 -0.375 -1.65625 -0.375l-1.390625 0l0 6.09375z" fill-rule="nonzero"/><path fill="#ffa400" d="m139.2 177.60132l105.60631 0l0 38.393692l-105.60631 0z" fill-rule="evenodd"/><path fill="#000000" d="m173.98776 194.31816l0 -8.59375l1.5625 0l3.890625 6.3125l0.0625 0l-0.0625 -1.65625l0 -4.65625l1.3125 0l0 8.59375l-1.375 0l-4.078125 -6.640625l-0.078125 0l0.078125 1.65625l0 4.984375l-1.3125 0zm8.700058 0l0 -8.59375l5.21875 0l0 1.25l-3.890625 0l0 6.09375l3.890625 0l0 1.25l-5.21875 0zm0.71875 -3.671875l0 -1.25l4.109375 0l0 1.25l-4.109375 0zm6.145294 3.671875l0 -8.59375l5.21875 0l0 1.25l-3.890625 0l0 6.09375l3.890625 0l0 1.25l-5.21875 0zm0.71875 -3.671875l0 -1.25l4.109375 0l0 1.25l-4.109375 0zm6.145294 3.671875l0 -8.59375l2.75 0q1.359375 0 2.328125 0.546875q0.984375 0.546875 1.515625 1.515625q0.53125 0.96875 0.53125 2.234375q0 1.265625 -0.53125 2.234375q-0.53125 0.96875 -1.515625 1.515625q-0.96875 0.546875 -2.328125 0.546875l-2.75 0zm1.328125 -1.25l1.390625 0q0.96875 0 1.65625 -0.359375q0.703125 -0.375 1.0625 -1.046875q0.359375 -0.6875 0.359375 -1.640625q0 -0.953125 -0.359375 -1.625q-0.359375 -0.6875 -1.0625 -1.046875q-0.6875 -0.375 -1.65625 -0.375l-1.390625 0l0 6.09375zm9.811935 1.4375q-0.6875 0 -1.3125 -0.265625q-0.625 -0.265625 -1.09375 -0.796875q-0.46875 -0.53125 -0.703125 -1.3125l1.25 -0.5q0.1875 0.703125 0.671875 1.171875q0.484375 0.453125 1.203125 0.453125q0.40625 0 0.75 -0.140625q0.359375 -0.140625 0.578125 -0.421875q0.21875 -0.28125 0.21875 -0.6875q0 -0.390625 -0.1875 -0.65625q-0.171875 -0.265625 -0.578125 -0.484375q-0.390625 -0.234375 -1.0 -0.453125l-0.546875 -0.1875q-0.34375 -0.125 -0.703125 -0.3125q-0.359375 -0.203125 -0.671875 -0.484375q-0.296875 -0.28125 -0.484375 -0.65625q-0.171875 -0.390625 -0.171875 -0.890625q0 -0.65625 0.34375 -1.171875q0.34375 -0.53125 0.9375 -0.84375q0.609375 -0.328125 1.421875 -0.328125q0.828125 0 1.375 0.296875q0.5625 0.28125 0.875 0.703125q0.328125 0.40625 0.4375 0.765625l-1.1875 0.515625q-0.0625 -0.25 -0.25 -0.484375q-0.1875 -0.25 -0.5 -0.40625q-0.296875 -0.171875 -0.75 -0.171875q-0.375 0 -0.703125 0.15625q-0.3125 0.140625 -0.515625 0.390625q-0.1875 0.234375 -0.1875 0.5625q0 0.46875 0.390625 0.765625q0.390625 0.28125 1.109375 0.53125l0.5625 0.1875q0.421875 0.140625 0.828125 0.34375q0.40625 0.203125 0.734375 0.515625q0.34375 0.296875 0.53125 0.734375q0.203125 0.4375 0.203125 1.03125q0 0.65625 -0.265625 1.15625q-0.25 0.484375 -0.671875 0.796875q-0.421875 0.296875 -0.9375 0.4375q-0.515625 0.140625 -1.0 0.140625z" fill-rule="nonzero"/><path fill="#000000" d="m150.18561 208.31816l0 -8.59375l1.328125 0l0 8.59375l-1.328125 0zm3.2640228 0l0 -8.59375l1.78125 0l2.5 6.546875l0.078125 0l2.515625 -6.546875l1.78125 0l0 8.59375l-1.296875 0l0 -4.859375l0.078125 -1.53125l-0.078125 0l-2.515625 6.390625l-1.03125 0l-2.515625 -6.390625l-0.0625 0l0.0625 1.53125l0 4.859375l-1.296875 0zm10.596069 0l0 -8.59375l2.953125 0q0.78125 0 1.40625 0.328125q0.640625 0.328125 1.015625 0.921875q0.390625 0.59375 0.390625 1.375q0 0.765625 -0.390625 1.375q-0.375 0.59375 -1.015625 0.921875q-0.625 0.328125 -1.40625 0.328125l-2.234375 0l0 -1.234375l2.265625 0q0.46875 0 0.796875 -0.203125q0.328125 -0.203125 0.5 -0.515625q0.171875 -0.3125 0.171875 -0.671875q0 -0.34375 -0.171875 -0.65625q-0.171875 -0.3125 -0.5 -0.515625q-0.328125 -0.203125 -0.796875 -0.203125l-1.65625 0l0 7.34375l-1.328125 0zm7.116043 0l0 -8.59375l3.015625 0q0.796875 0 1.421875 0.34375q0.625 0.328125 0.984375 0.921875q0.359375 0.578125 0.359375 1.359375q0 0.515625 -0.203125 0.984375q-0.203125 0.46875 -0.59375 0.84375q-0.390625 0.359375 -0.953125 0.5625q-0.5625 0.203125 -1.25 0.203125l-2.0625 0l0 -1.203125l2.265625 0q0.40625 0 0.734375 -0.171875q0.328125 -0.1875 0.53125 -0.5q0.203125 -0.328125 0.203125 -0.71875q0 -0.359375 -0.171875 -0.671875q-0.15625 -0.3125 -0.484375 -0.515625q-0.3125 -0.203125 -0.765625 -0.203125l-1.703125 0l0 7.359375l-1.328125 0zm2.0 -3.921875l1.5 -0.03125l2.6875 3.875l0 0.078125l-1.53125 0l-2.65625 -3.921875zm9.335678 4.109375q-0.953125 0 -1.765625 -0.34375q-0.8125 -0.34375 -1.40625 -0.953125q-0.59375 -0.625 -0.9375 -1.4375q-0.328125 -0.8125 -0.328125 -1.75q0 -0.9375 0.328125 -1.75q0.34375 -0.8125 0.9375 -1.421875q0.59375 -0.625 1.40625 -0.96875q0.8125 -0.34375 1.765625 -0.34375q0.96875 0 1.765625 0.34375q0.8125 0.34375 1.40625 0.96875q0.609375 0.609375 0.9375 1.421875q0.34375 0.8125 0.34375 1.75q0 0.9375 -0.34375 1.75q-0.328125 0.8125 -0.9375 1.4375q-0.59375 0.609375 -1.40625 0.953125q-0.796875 0.34375 -1.765625 0.34375zm0 -1.25q0.890625 0 1.578125 -0.40625q0.703125 -0.40625 1.125 -1.140625q0.421875 -0.734375 0.421875 -1.6875q0 -0.96875 -0.421875 -1.6875q-0.421875 -0.734375 -1.125 -1.140625q-0.6875 -0.40625 -1.578125 -0.40625q-0.859375 0 -1.5625 0.40625q-0.703125 0.40625 -1.125 1.140625q-0.421875 0.71875 -0.421875 1.6875q0 0.953125 0.421875 1.6875q0.421875 0.734375 1.125 1.140625q0.703125 0.40625 1.5625 0.40625zm7.858444 1.0625l-3.046875 -8.59375l1.4375 0l1.9375 5.71875l0.3125 0.96875l0.0625 0l0.328125 -0.96875l2.03125 -5.71875l1.4375 0l-3.140625 8.59375l-1.359375 0zm5.6340485 0l0 -8.59375l5.21875 0l0 1.25l-3.890625 0l0 6.09375l3.890625 0l0 1.25l-5.21875 0zm0.71875 -3.671875l0 -1.25l4.109375 0l0 1.25l-4.109375 0zm6.145294 3.671875l0 -8.59375l1.78125 0l2.5 6.546875l0.078125 0l2.515625 -6.546875l1.78125 0l0 8.59375l-1.296875 0l0 -4.859375l0.078125 -1.53125l-0.078125 0l-2.515625 6.390625l-1.03125 0l-2.515625 -6.390625l-0.0625 0l0.0625 1.53125l0 4.859375l-1.296875 0zm10.596069 0l0 -8.59375l5.21875 0l0 1.25l-3.890625 0l0 6.09375l3.890625 0l0 1.25l-5.21875 0zm0.71875 -3.671875l0 -1.25l4.109375 0l0 1.25l-4.109375 0zm6.145294 3.671875l0 -8.59375l1.5625 0l3.890625 6.3125l0.0625 0l-0.0625 -1.65625l0 -4.65625l1.3125 0l0 8.59375l-1.375 0l-4.078125 -6.640625l-0.078125 0l0.078125 1.65625l0 4.984375l-1.3125 0zm10.450058 0l0 -7.890625l1.3125 0l0 7.890625l-1.3125 0zm-2.40625 -7.34375l0 -1.25l6.125 0l0 1.25l-6.125 0z" fill-rule="nonzero"/><path fill="#ff4e42" d="m243.84 177.6l96.0 0l0 38.393692l-96.0 0z" fill-rule="evenodd"/><path fill="#000000" d="m275.72064 201.31685l0 -8.59375l2.953125 0q0.78125 0 1.40625 0.328125q0.640625 0.328125 1.015625 0.921875q0.390625 0.59375 0.390625 1.375q0 0.765625 -0.390625 1.375q-0.375 0.59375 -1.015625 0.921875q-0.625 0.328125 -1.40625 0.328125l-2.234375 0l0 -1.234375l2.265625 0q0.46875 0 0.796875 -0.203125q0.328125 -0.203125 0.5 -0.515625q0.171875 -0.3125 0.171875 -0.671875q0 -0.34375 -0.171875 -0.65625q-0.171875 -0.3125 -0.5 -0.515625q-0.328125 -0.203125 -0.796875 -0.203125l-1.65625 0l0 7.34375l-1.328125 0zm11.023651 0.1875q-0.953125 0 -1.765625 -0.34375q-0.8125 -0.34375 -1.40625 -0.953125q-0.59375 -0.625 -0.9375 -1.4375q-0.328125 -0.8125 -0.328125 -1.75q0 -0.9375 0.328125 -1.75q0.34375 -0.8125 0.9375 -1.421875q0.59375 -0.625 1.40625 -0.96875q0.8125 -0.34375 1.765625 -0.34375q0.96875 0 1.765625 0.34375q0.8125 0.34375 1.40625 0.96875q0.609375 0.609375 0.9375 1.421875q0.34375 0.8125 0.34375 1.75q0 0.9375 -0.34375 1.75q-0.328125 0.8125 -0.9375 1.4375q-0.59375 0.609375 -1.40625 0.953125q-0.796875 0.34375 -1.765625 0.34375zm0 -1.25q0.890625 0 1.578125 -0.40625q0.703125 -0.40625 1.125 -1.140625q0.421875 -0.734375 0.421875 -1.6875q0 -0.96875 -0.421875 -1.6875q-0.421875 -0.734375 -1.125 -1.140625q-0.6875 -0.40625 -1.578125 -0.40625q-0.859375 0 -1.5625 0.40625q-0.703125 0.40625 -1.125 1.140625q-0.421875 0.71875 -0.421875 1.6875q0 0.953125 0.421875 1.6875q0.421875 0.734375 1.125 1.140625q0.703125 0.40625 1.5625 0.40625zm9.864075 1.25q-0.953125 0 -1.765625 -0.34375q-0.8125 -0.34375 -1.40625 -0.953125q-0.59375 -0.625 -0.9375 -1.4375q-0.328125 -0.8125 -0.328125 -1.75q0 -0.9375 0.328125 -1.75q0.34375 -0.8125 0.9375 -1.421875q0.59375 -0.625 1.40625 -0.96875q0.8125 -0.34375 1.765625 -0.34375q0.96875 0 1.765625 0.34375q0.8125 0.34375 1.40625 0.96875q0.609375 0.609375 0.9375 1.421875q0.34375 0.8125 0.34375 1.75q0 0.9375 -0.34375 1.75q-0.328125 0.8125 -0.9375 1.4375q-0.59375 0.609375 -1.40625 0.953125q-0.796875 0.34375 -1.765625 0.34375zm0 -1.25q0.890625 0 1.578125 -0.40625q0.703125 -0.40625 1.125 -1.140625q0.421875 -0.734375 0.421875 -1.6875q0 -0.96875 -0.421875 -1.6875q-0.421875 -0.734375 -1.125 -1.140625q-0.6875 -0.40625 -1.578125 -0.40625q-0.859375 0 -1.5625 0.40625q-0.703125 0.40625 -1.125 1.140625q-0.421875 0.71875 -0.421875 1.6875q0 0.953125 0.421875 1.6875q0.421875 0.734375 1.125 1.140625q0.703125 0.40625 1.5625 0.40625zm5.968445 1.0625l0 -8.59375l3.015625 0q0.796875 0 1.421875 0.34375q0.625 0.328125 0.984375 0.921875q0.359375 0.578125 0.359375 1.359375q0 0.515625 -0.203125 0.984375q-0.203125 0.46875 -0.59375 0.84375q-0.390625 0.359375 -0.953125 0.5625q-0.5625 0.203125 -1.25 0.203125l-2.0625 0l0 -1.203125l2.265625 0q0.40625 0 0.734375 -0.171875q0.328125 -0.1875 0.53125 -0.5q0.203125 -0.328125 0.203125 -0.71875q0 -0.359375 -0.171875 -0.671875q-0.15625 -0.3125 -0.484375 -0.515625q-0.3125 -0.203125 -0.765625 -0.203125l-1.703125 0l0 7.359375l-1.328125 0zm2.0 -3.921875l1.5 -0.03125l2.6875 3.875l0 0.078125l-1.53125 0l-2.65625 -3.921875z" fill-rule="nonzero"/><path fill="#000000" fill-opacity="0.0" d="m196.8 240.0l95.999985 0l0 28.409454l-95.999985 0z" fill-rule="evenodd"/><path fill="#434343" d="m216.96655 260.06473l0 -8.625l-1.796875 1.28125l-0.875 -1.328125l3.171875 -2.265625l1.234375 0l0 10.9375l-1.734375 0zm7.6838837 0.25q-1.125 0 -1.984375 -0.421875q-0.859375 -0.4375 -1.359375 -1.171875q-0.5 -0.75 -0.5 -1.6875q0 -0.625 0.234375 -1.140625q0.25 -0.53125 0.640625 -0.921875q0.40625 -0.390625 0.890625 -0.640625l0 -0.078125q-0.5625 -0.359375 -0.984375 -0.96875q-0.40625 -0.609375 -0.40625 -1.34375q0 -0.890625 0.4375 -1.578125q0.453125 -0.6875 1.234375 -1.09375q0.78125 -0.40625 1.796875 -0.40625q1.0 0 1.78125 0.40625q0.78125 0.40625 1.21875 1.09375q0.453125 0.6875 0.453125 1.578125q0 0.5 -0.203125 0.9375q-0.1875 0.421875 -0.5 0.78125q-0.296875 0.34375 -0.671875 0.59375l0 0.078125q0.703125 0.375 1.21875 1.0625q0.53125 0.6875 0.53125 1.640625q0 0.9375 -0.5 1.6875q-0.5 0.734375 -1.359375 1.171875q-0.84375 0.421875 -1.96875 0.421875zm0 -1.609375q0.59375 0 1.0625 -0.21875q0.46875 -0.234375 0.734375 -0.640625q0.28125 -0.40625 0.28125 -0.953125q0 -0.53125 -0.28125 -0.921875q-0.28125 -0.40625 -0.75 -0.625q-0.46875 -0.21875 -1.046875 -0.21875q-0.59375 0 -1.0625 0.21875q-0.46875 0.21875 -0.75 0.625q-0.28125 0.390625 -0.28125 0.921875q0 0.546875 0.265625 0.953125q0.28125 0.40625 0.75 0.640625q0.484375 0.21875 1.078125 0.21875zm0 -5.140625q0.5 0 0.890625 -0.1875q0.390625 -0.1875 0.625 -0.546875q0.234375 -0.359375 0.234375 -0.84375q0 -0.71875 -0.515625 -1.125q-0.515625 -0.40625 -1.234375 -0.40625q-0.75 0 -1.265625 0.40625q-0.515625 0.40625 -0.515625 1.125q0 0.484375 0.234375 0.84375q0.234375 0.359375 0.640625 0.546875q0.40625 0.1875 0.90625 0.1875zm9.807144 6.75q-1.03125 0 -1.859375 -0.4375q-0.8125 -0.4375 -1.40625 -1.21875q-0.59375 -0.78125 -0.90625 -1.8125q-0.3125 -1.046875 -0.3125 -2.25q0 -1.21875 0.3125 -2.25q0.3125 -1.046875 0.90625 -1.8125q0.59375 -0.78125 1.40625 -1.21875q0.828125 -0.453125 1.859375 -0.453125q1.03125 0 1.859375 0.453125q0.828125 0.4375 1.421875 1.21875q0.59375 0.765625 0.90625 1.8125q0.3125 1.03125 0.3125 2.25q0 1.203125 -0.3125 2.25q-0.3125 1.03125 -0.90625 1.8125q-0.59375 0.78125 -1.421875 1.21875q-0.828125 0.4375 -1.859375 0.4375zm0.015625 -1.625q0.84375 0 1.453125 -0.546875q0.625 -0.546875 0.953125 -1.46875q0.328125 -0.921875 0.328125 -2.078125q0 -1.171875 -0.328125 -2.09375q-0.328125 -0.9375 -0.953125 -1.46875q-0.609375 -0.53125 -1.453125 -0.53125q-0.859375 0 -1.46875 0.53125q-0.609375 0.53125 -0.9375 1.46875q-0.328125 0.921875 -0.328125 2.09375q0 1.15625 0.328125 2.078125q0.328125 0.921875 0.9375 1.46875q0.609375 0.546875 1.46875 0.546875zm10.528397 1.625q-1.03125 0 -1.859375 -0.4375q-0.8125 -0.4375 -1.40625 -1.21875q-0.59375 -0.78125 -0.90625 -1.8125q-0.3125 -1.046875 -0.3125 -2.25q0 -1.21875 0.3125 -2.25q0.3125 -1.046875 0.90625 -1.8125q0.59375 -0.78125 1.40625 -1.21875q0.828125 -0.453125 1.859375 -0.453125q1.03125 0 1.859375 0.453125q0.828125 0.4375 1.421875 1.21875q0.59375 0.765625 0.90625 1.8125q0.3125 1.03125 0.3125 2.25q0 1.203125 -0.3125 2.25q-0.3125 1.03125 -0.90625 1.8125q-0.59375 0.78125 -1.421875 1.21875q-0.828125 0.4375 -1.859375 0.4375zm0.015625 -1.625q0.84375 0 1.453125 -0.546875q0.625 -0.546875 0.953125 -1.46875q0.328125 -0.921875 0.328125 -2.078125q0 -1.171875 -0.328125 -2.09375q-0.328125 -0.9375 -0.953125 -1.46875q-0.609375 -0.53125 -1.453125 -0.53125q-0.859375 0 -1.46875 0.53125q-0.609375 0.53125 -0.9375 1.46875q-0.328125 0.921875 -0.328125 2.09375q0 1.15625 0.328125 2.078125q0.328125 0.921875 0.9375 1.46875q0.609375 0.546875 1.46875 0.546875zm10.006409 1.375l0 -8.15625l1.6250153 0l0 1.109375l0.09375 0q0.234375 -0.390625 0.625 -0.6875q0.390625 -0.3125 0.875 -0.5q0.484375 -0.1875 1.015625 -0.1875q0.90625 0 1.546875 0.4375q0.640625 0.4375 0.921875 1.09375q0.390625 -0.640625 1.078125 -1.078125q0.6875 -0.453125 1.6875 -0.453125q1.4375 0 2.140625 0.875q0.703125 0.875 0.703125 2.3125l0 5.234375l-1.71875 0l0 -4.9375q0 -1.0 -0.421875 -1.4375q-0.421875 -0.453125 -1.171875 -0.453125q-0.59375 0 -1.046875 0.328125q-0.4375 0.328125 -0.6875 0.890625q-0.25 0.546875 -0.25 1.234375l0 4.375l-1.71875 0l0 -4.9375q0 -0.984375 -0.4375 -1.4375q-0.421875 -0.453125 -1.203125 -0.453125q-0.5625 0 -1.0 0.34375q-0.4375 0.328125 -0.6875 0.890625q-0.25 0.546875 -0.25 1.234375l0 4.359375l-1.7187653 0zm17.160782 0.25q-0.96875 0 -1.703125 -0.296875q-0.71875 -0.296875 -1.1875 -0.796875q-0.453125 -0.5 -0.671875 -1.09375l1.546875 -0.671875q0.28125 0.65625 0.8125 1.0q0.546875 0.34375 1.25 0.34375q0.640625 0 1.09375 -0.234375q0.46875 -0.234375 0.46875 -0.75q0 -0.34375 -0.21875 -0.5625q-0.203125 -0.21875 -0.5625 -0.359375q-0.359375 -0.140625 -0.828125 -0.25l-0.96875 -0.21875q-0.578125 -0.15625 -1.109375 -0.46875q-0.515625 -0.3125 -0.84375 -0.78125q-0.3125 -0.484375 -0.3125 -1.140625q0 -0.734375 0.421875 -1.265625q0.421875 -0.546875 1.140625 -0.828125q0.734375 -0.296875 1.5625 -0.296875q0.765625 0 1.390625 0.203125q0.640625 0.203125 1.109375 0.59375q0.46875 0.390625 0.75 0.96875l-1.5 0.671875q-0.265625 -0.546875 -0.734375 -0.75q-0.453125 -0.21875 -1.0 -0.21875q-0.609375 0 -1.015625 0.25q-0.40625 0.234375 -0.40625 0.640625q0 0.421875 0.359375 0.65625q0.359375 0.234375 0.890625 0.375l1.171875 0.296875q1.21875 0.296875 1.828125 0.921875q0.609375 0.609375 0.609375 1.5q0 0.78125 -0.453125 1.359375q-0.4375 0.578125 -1.203125 0.890625q-0.765625 0.3125 -1.6875 0.3125z" fill-rule="nonzero"/><path fill="#000000" fill-opacity="0.0" d="m91.2 240.39362l96.0 0l0 28.409454l-96.0 0z" fill-rule="evenodd"/><path fill="#434343" d="m115.79443 260.70834q-1.125 0 -1.984375 -0.421875q-0.859375 -0.4375 -1.359375 -1.171875q-0.5 -0.75 -0.5 -1.6875q0 -0.625 0.234375 -1.140625q0.25 -0.53125 0.640625 -0.921875q0.40625 -0.390625 0.890625 -0.640625l0 -0.078125q-0.5625 -0.359375 -0.984375 -0.96875q-0.40625 -0.609375 -0.40625 -1.34375q0 -0.890625 0.4375 -1.578125q0.453125 -0.6875 1.234375 -1.09375q0.78125 -0.40625 1.796875 -0.40625q1.0 0 1.78125 0.40625q0.78125 0.40625 1.21875 1.09375q0.453125 0.6875 0.453125 1.578125q0 0.5 -0.203125 0.9375q-0.1875 0.421875 -0.5 0.78125q-0.296875 0.34375 -0.671875 0.59375l0 0.078125q0.703125 0.375 1.21875 1.0625q0.53125 0.6875 0.53125 1.640625q0 0.9375 -0.5 1.6875q-0.5 0.734375 -1.359375 1.171875q-0.84375 0.421875 -1.96875 0.421875zm0 -1.609375q0.59375 0 1.0625 -0.21875q0.46875 -0.234375 0.734375 -0.640625q0.28125 -0.40625 0.28125 -0.953125q0 -0.53125 -0.28125 -0.921875q-0.28125 -0.40625 -0.75 -0.625q-0.46875 -0.21875 -1.046875 -0.21875q-0.59375 0 -1.0625 0.21875q-0.46875 0.21875 -0.75 0.625q-0.28125 0.390625 -0.28125 0.921875q0 0.546875 0.265625 0.953125q0.28125 0.40625 0.75 0.640625q0.484375 0.21875 1.078125 0.21875zm0 -5.140625q0.5 0 0.890625 -0.1875q0.390625 -0.1875 0.625 -0.546875q0.234375 -0.359375 0.234375 -0.84375q0 -0.71875 -0.515625 -1.125q-0.515625 -0.40625 -1.234375 -0.40625q-0.75 0 -1.265625 0.40625q-0.515625 0.40625 -0.515625 1.125q0 0.484375 0.234375 0.84375q0.234375 0.359375 0.640625 0.546875q0.40625 0.1875 0.90625 0.1875zm9.807144 6.75q-1.03125 0 -1.859375 -0.4375q-0.8125 -0.4375 -1.40625 -1.21875q-0.59375 -0.78125 -0.90625 -1.8125q-0.3125 -1.046875 -0.3125 -2.25q0 -1.21875 0.3125 -2.25q0.3125 -1.046875 0.90625 -1.8125q0.59375 -0.78125 1.40625 -1.21875q0.828125 -0.453125 1.859375 -0.453125q1.03125 0 1.859375 0.453125q0.828125 0.4375 1.421875 1.21875q0.59375 0.765625 0.90625 1.8125q0.3125 1.03125 0.3125 2.25q0 1.203125 -0.3125 2.25q-0.3125 1.03125 -0.90625 1.8125q-0.59375 0.78125 -1.421875 1.21875q-0.828125 0.4375 -1.859375 0.4375zm0.015625 -1.625q0.84375 0 1.453125 -0.546875q0.625 -0.546875 0.953125 -1.46875q0.328125 -0.921875 0.328125 -2.078125q0 -1.171875 -0.328125 -2.09375q-0.328125 -0.9375 -0.953125 -1.46875q-0.609375 -0.53125 -1.453125 -0.53125q-0.859375 0 -1.46875 0.53125q-0.609375 0.53125 -0.9375 1.46875q-0.328125 0.921875 -0.328125 2.09375q0 1.15625 0.328125 2.078125q0.328125 0.921875 0.9375 1.46875q0.609375 0.546875 1.46875 0.546875zm10.528397 1.625q-1.03125 0 -1.859375 -0.4375q-0.8125 -0.4375 -1.40625 -1.21875q-0.59375 -0.78125 -0.90625 -1.8125q-0.3125 -1.046875 -0.3125 -2.25q0 -1.21875 0.3125 -2.25q0.3125 -1.046875 0.90625 -1.8125q0.59375 -0.78125 1.40625 -1.21875q0.828125 -0.453125 1.859375 -0.453125q1.03125 0 1.859375 0.453125q0.828125 0.4375 1.421875 1.21875q0.59375 0.765625 0.90625 1.8125q0.3125 1.03125 0.3125 2.25q0 1.203125 -0.3125 2.25q-0.3125 1.03125 -0.90625 1.8125q-0.59375 0.78125 -1.421875 1.21875q-0.828125 0.4375 -1.859375 0.4375zm0.015625 -1.625q0.84375 0 1.453125 -0.546875q0.625 -0.546875 0.953125 -1.46875q0.328125 -0.921875 0.328125 -2.078125q0 -1.171875 -0.328125 -2.09375q-0.328125 -0.9375 -0.953125 -1.46875q-0.609375 -0.53125 -1.453125 -0.53125q-0.859375 0 -1.46875 0.53125q-0.609375 0.53125 -0.9375 1.46875q-0.328125 0.921875 -0.328125 2.09375q0 1.15625 0.328125 2.078125q0.328125 0.921875 0.9375 1.46875q0.609375 0.546875 1.46875 0.546875zm10.006409 1.375l0 -8.15625l1.625 0l0 1.109375l0.09375 0q0.234375 -0.390625 0.625 -0.6875q0.390625 -0.3125 0.875 -0.5q0.484375 -0.1875 1.015625 -0.1875q0.90625 0 1.546875 0.4375q0.640625 0.4375 0.921875 1.09375q0.390625 -0.640625 1.078125 -1.078125q0.6875 -0.453125 1.6875 -0.453125q1.4375 0 2.140625 0.875q0.703125 0.875 0.703125 2.3125l0 5.234375l-1.71875 0l0 -4.9375q0 -1.0 -0.421875 -1.4375q-0.421875 -0.453125 -1.171875 -0.453125q-0.59375 0 -1.046875 0.328125q-0.4375 0.328125 -0.6875 0.890625q-0.25 0.546875 -0.25 1.234375l0 4.375l-1.71875 0l0 -4.9375q0 -0.984375 -0.4375 -1.4375q-0.421875 -0.453125 -1.203125 -0.453125q-0.5625 0 -1.0 0.34375q-0.4375 0.328125 -0.6875 0.890625q-0.25 0.546875 -0.25 1.234375l0 4.359375l-1.71875 0zm17.160782 0.25q-0.96875 0 -1.703125 -0.296875q-0.71875 -0.296875 -1.1875 -0.796875q-0.453125 -0.5 -0.671875 -1.09375l1.546875 -0.671875q0.28125 0.65625 0.8125 1.0q0.546875 0.34375 1.25 0.34375q0.640625 0 1.09375 -0.234375q0.46875 -0.234375 0.46875 -0.75q0 -0.34375 -0.21875 -0.5625q-0.203125 -0.21875 -0.5625 -0.359375q-0.359375 -0.140625 -0.828125 -0.25l-0.96875 -0.21875q-0.578125 -0.15625 -1.109375 -0.46875q-0.515625 -0.3125 -0.84375 -0.78125q-0.3125 -0.484375 -0.3125 -1.140625q0 -0.734375 0.421875 -1.265625q0.421875 -0.546875 1.140625 -0.828125q0.734375 -0.296875 1.5625 -0.296875q0.765625 0 1.390625 0.203125q0.640625 0.203125 1.109375 0.59375q0.46875 0.390625 0.75 0.96875l-1.5 0.671875q-0.265625 -0.546875 -0.734375 -0.75q-0.453125 -0.21875 -1.0 -0.21875q-0.609375 0 -1.015625 0.25q-0.40625 0.234375 -0.40625 0.640625q0 0.421875 0.359375 0.65625q0.359375 0.234375 0.890625 0.375l1.171875 0.296875q1.21875 0.296875 1.828125 0.921875q0.609375 0.609375 0.609375 1.5q0 0.78125 -0.453125 1.359375q-0.4375 0.578125 -1.203125 0.890625q-0.765625 0.3125 -1.6875 0.3125z" fill-rule="nonzero"/><path fill="#000000" fill-opacity="0.0" d="m139.2 241.87541l0 -28.56694" fill-rule="evenodd"/><path stroke="#434343" stroke-width="2.0" stroke-linejoin="round" stroke-linecap="butt" d="m139.2 241.87541l0 -20.986938" fill-rule="evenodd"/><path fill="#434343" stroke="#434343" stroke-width="2.0" stroke-linecap="butt" d="m139.2 214.30849c1.8170166 0 3.2899933 1.4729767 3.2899933 3.2899933c0 1.8170166 -1.4729767 3.2899933 -3.2899933 3.2899933c-1.8170166 0 -3.2899933 -1.4729767 -3.2899933 -3.2899933c0 -1.8170166 1.4729767 -3.2899933 3.2899933 -3.2899933z" fill-rule="nonzero"/><path fill="#000000" fill-opacity="0.0" d="m48.00492 115.2l288.0 0l0 28.7874l-288.0 0z" fill-rule="evenodd"/><path fill="#666666" d="m85.60879 136.7937l0 -14.3125l1.703125 0l0 14.3125l-1.703125 0zm4.571869 0l0 -10.203125l1.609375 0l0 1.5l0.078125 0q0.40625 -0.734375 1.3125 -1.265625q0.921875 -0.546875 2.0 -0.546875q1.875 0 2.828125 1.09375q0.953125 1.078125 0.953125 2.875l0 6.546875l-1.703125 0l0 -6.28125q0 -1.484375 -0.71875 -2.09375q-0.703125 -0.609375 -1.828125 -0.609375q-0.84375 0 -1.484375 0.46875q-0.625 0.46875 -1.0 1.21875q-0.359375 0.734375 -0.359375 1.5625l0 5.734375l-1.6875 0zm10.016861 -10.203125l5.984375 0l0 1.546875l-5.984375 0l0 -1.546875zm1.78125 7.515625l0 -10.390625l1.703125 0l0 9.984375q0 0.796875 0.328125 1.234375q0.328125 0.4375 1.078125 0.4375q0.34375 0 0.625 -0.09375q0.28125 -0.109375 0.5 -0.25l0 1.671875q-0.265625 0.109375 -0.578125 0.171875q-0.296875 0.078125 -0.8125 0.078125q-1.28125 0 -2.0625 -0.75q-0.78125 -0.75 -0.78125 -2.09375zm10.31311 3.0q-1.484375 0 -2.640625 -0.6875q-1.140625 -0.703125 -1.796875 -1.921875q-0.640625 -1.21875 -0.640625 -2.78125q0 -1.46875 0.609375 -2.703125q0.609375 -1.234375 1.71875 -1.984375q1.109375 -0.75 2.609375 -0.75q1.53125 0 2.609375 0.671875q1.09375 0.65625 1.6875 1.84375q0.59375 1.1875 0.59375 2.703125q0 0.140625 -0.015625 0.28125q-0.015625 0.140625 -0.03125 0.234375l-8.78125 0l0 -1.40625l7.015625 0q-0.015625 -0.40625 -0.1875 -0.890625q-0.171875 -0.5 -0.546875 -0.921875q-0.359375 -0.4375 -0.9375 -0.703125q-0.5625 -0.28125 -1.40625 -0.28125q-1.0 0 -1.734375 0.515625q-0.71875 0.515625 -1.109375 1.390625q-0.390625 0.875 -0.390625 2.0q0 1.296875 0.5 2.15625q0.5 0.859375 1.28125 1.28125q0.796875 0.421875 1.65625 0.421875q1.125 0 1.84375 -0.53125q0.734375 -0.53125 1.171875 -1.3125l1.4375 0.703125q-0.59375 1.15625 -1.71875 1.921875q-1.109375 0.75 -2.796875 0.75zm6.7287445 -0.3125l0 -10.203125l1.609375 0l0 1.640625l0.078125 0q0.203125 -0.578125 0.671875 -1.0q0.46875 -0.4375 1.078125 -0.6875q0.609375 -0.25 1.21875 -0.25q0.453125 0 0.71875 0.046875q0.265625 0.046875 0.484375 0.15625l0 1.84375q-0.328125 -0.171875 -0.703125 -0.25q-0.359375 -0.078125 -0.734375 -0.078125q-0.75 0 -1.375 0.421875q-0.609375 0.421875 -0.984375 1.125q-0.375 0.6875 -0.375 1.53125l0 5.703125l-1.6875 0zm10.350014 0.3125q-1.140625 0 -2.0000076 -0.4375q-0.859375 -0.4375 -1.34375 -1.203125q-0.484375 -0.765625 -0.484375 -1.75q0 -1.125 0.578125 -1.890625q0.578125 -0.765625 1.546875 -1.15625q0.9843826 -0.390625 2.1718826 -0.390625q0.671875 0 1.25 0.109375q0.578125 0.109375 1.015625 0.265625q0.4375 0.140625 0.65625 0.28125l0 -0.625q0 -1.15625 -0.828125 -1.828125q-0.8125 -0.6875 -2.0 -0.6875q-0.84375 0 -1.578125 0.375q-0.7187576 0.359375 -1.1406326 1.03125l-1.28125 -0.96875q0.40625 -0.59375 1.0 -1.03125q0.609375 -0.453125 1.3750076 -0.6875q0.765625 -0.234375 1.625 -0.234375q2.078125 0 3.25 1.109375q1.1875 1.09375 1.1875 2.953125l0 6.453125l-1.609375 0l0 -1.453125l-0.09375 0q-0.25 0.4375 -0.734375 0.84375q-0.484375 0.40625 -1.140625 0.65625q-0.640625 0.265625 -1.421875 0.265625zm0.171875 -1.5q0.875 0 1.59375 -0.4375q0.734375 -0.4375 1.171875 -1.171875q0.453125 -0.75 0.453125 -1.625q-0.46875 -0.3125 -1.15625 -0.515625q-0.6875 -0.203125 -1.515625 -0.203125q-1.453125 0 -2.1406326 0.609375q-0.671875 0.59375 -0.671875 1.46875q0 0.84375 0.640625 1.359375q0.6406326 0.515625 1.6250076 0.515625zm11.707489 1.5q-1.5 0 -2.671875 -0.703125q-1.15625 -0.703125 -1.828125 -1.9375q-0.65625 -1.234375 -0.65625 -2.765625q0 -1.5625 0.65625 -2.78125q0.671875 -1.21875 1.828125 -1.921875q1.171875 -0.71875 2.671875 -0.71875q1.71875 0 2.828125 0.796875q1.109375 0.78125 1.578125 2.015625l-1.546875 0.640625q-0.375 -0.9375 -1.125 -1.421875q-0.75 -0.5 -1.8125 -0.5q-0.890625 0 -1.671875 0.484375q-0.765625 0.484375 -1.25 1.359375q-0.46875 0.859375 -0.46875 2.046875q0 1.15625 0.46875 2.03125q0.484375 0.875 1.25 1.359375q0.78125 0.484375 1.671875 0.484375q1.078125 0 1.859375 -0.5q0.78125 -0.5 1.15625 -1.421875l1.53125 0.640625q-0.5 1.1875 -1.625 2.0q-1.125 0.8125 -2.84375 0.8125zm5.507477 -10.515625l5.984375 0l0 1.546875l-5.984375 0l0 -1.546875zm1.78125 7.515625l0 -10.390625l1.703125 0l0 9.984375q0 0.796875 0.328125 1.234375q0.328125 0.4375 1.078125 0.4375q0.34375 0 0.625 -0.09375q0.28125 -0.109375 0.5 -0.25l0 1.671875q-0.265625 0.109375 -0.578125 0.171875q-0.296875 0.078125 -0.8125 0.078125q-1.28125 0 -2.0625 -0.75q-0.78125 -0.75 -0.78125 -2.09375zm6.478119 2.6875l0 -10.203125l1.703125 0l0 10.203125l-1.703125 0zm0.84375 -12.078125q-0.5 0 -0.859375 -0.359375q-0.359375 -0.359375 -0.359375 -0.859375q0 -0.515625 0.359375 -0.859375q0.359375 -0.359375 0.859375 -0.359375q0.515625 0 0.859375 0.359375q0.359375 0.34375 0.359375 0.859375q0 0.5 -0.359375 0.859375q-0.34375 0.359375 -0.859375 0.359375zm8.107483 12.390625q-1.53125 0 -2.71875 -0.71875q-1.171875 -0.71875 -1.84375 -1.9375q-0.671875 -1.234375 -0.671875 -2.75q0 -1.53125 0.671875 -2.75q0.671875 -1.234375 1.84375 -1.953125q1.1875 -0.71875 2.71875 -0.71875q1.546875 0 2.71875 0.734375q1.1875 0.71875 1.859375 1.953125q0.671875 1.234375 0.671875 2.734375q0 1.515625 -0.671875 2.75q-0.671875 1.21875 -1.859375 1.9375q-1.171875 0.71875 -2.71875 0.71875zm0 -1.53125q0.921875 0 1.734375 -0.453125q0.8125 -0.46875 1.3125 -1.328125q0.5 -0.875 0.5 -2.09375q0 -1.21875 -0.5 -2.09375q-0.5 -0.875 -1.3125 -1.328125q-0.8125 -0.46875 -1.734375 -0.46875q-0.90625 0 -1.734375 0.46875q-0.8125 0.453125 -1.3125 1.328125q-0.5 0.875 -0.5 2.09375q0 1.21875 0.5 2.09375q0.5 0.859375 1.3125 1.328125q0.828125 0.453125 1.734375 0.453125zm7.032486 1.21875l0 -10.203125l1.609375 0l0 1.5l0.078125 0q0.40625 -0.734375 1.3125 -1.265625q0.921875 -0.546875 2.0 -0.546875q1.875 0 2.828125 1.09375q0.953125 1.078125 0.953125 2.875l0 6.546875l-1.703125 0l0 -6.28125q0 -1.484375 -0.71875 -2.09375q-0.703125 -0.609375 -1.828125 -0.609375q-0.84375 0 -1.484375 0.46875q-0.625 0.46875 -1.0 1.21875q-0.359375 0.734375 -0.359375 1.5625l0 5.734375l-1.6875 0zm15.15686 -10.203125l5.984375 0l0 1.546875l-5.984375 0l0 -1.546875zm1.78125 7.515625l0 -10.390625l1.703125 0l0 9.984375q0 0.796875 0.328125 1.234375q0.328125 0.4375 1.078125 0.4375q0.34375 0 0.625 -0.09375q0.28125 -0.109375 0.5 -0.25l0 1.671875q-0.265625 0.109375 -0.578125 0.171875q-0.296875 0.078125 -0.8125 0.078125q-1.28125 0 -2.0625 -0.75q-0.78125 -0.75 -0.78125 -2.09375zm10.46936 3.0q-1.53125 0 -2.71875 -0.71875q-1.171875 -0.71875 -1.84375 -1.9375q-0.671875 -1.234375 -0.671875 -2.75q0 -1.53125 0.671875 -2.75q0.671875 -1.234375 1.84375 -1.953125q1.1875 -0.71875 2.71875 -0.71875q1.546875 0 2.71875 0.734375q1.1875 0.71875 1.859375 1.953125q0.671875 1.234375 0.671875 2.734375q0 1.515625 -0.671875 2.75q-0.671875 1.21875 -1.859375 1.9375q-1.171875 0.71875 -2.71875 0.71875zm0 -1.53125q0.921875 0 1.734375 -0.453125q0.8125 -0.46875 1.3125 -1.328125q0.5 -0.875 0.5 -2.09375q0 -1.21875 -0.5 -2.09375q-0.5 -0.875 -1.3125 -1.328125q-0.8125 -0.46875 -1.734375 -0.46875q-0.90625 0 -1.734375 0.46875q-0.8125 0.453125 -1.3125 1.328125q-0.5 0.875 -0.5 2.09375q0 1.21875 0.5 2.09375q0.5 0.859375 1.3125 1.328125q0.828125 0.453125 1.734375 0.453125zm12.200607 1.21875l0 -14.3125l2.09375 0l7.171875 11.390625l0.078125 0l-0.078125 -2.765625l0 -8.625l1.703125 0l0 14.3125l-1.765625 0l-7.5 -11.9375l-0.078125 0l0.078125 2.75l0 9.1875l-1.703125 0zm18.163116 0.3125q-1.484375 0 -2.640625 -0.6875q-1.140625 -0.703125 -1.796875 -1.921875q-0.640625 -1.21875 -0.640625 -2.78125q0 -1.46875 0.609375 -2.703125q0.609375 -1.234375 1.71875 -1.984375q1.109375 -0.75 2.609375 -0.75q1.53125 0 2.609375 0.671875q1.09375 0.65625 1.6875 1.84375q0.59375 1.1875 0.59375 2.703125q0 0.140625 -0.015625 0.28125q-0.015625 0.140625 -0.03125 0.234375l-8.78125 0l0 -1.40625l7.015625 0q-0.015625 -0.40625 -0.1875 -0.890625q-0.171875 -0.5 -0.546875 -0.921875q-0.359375 -0.4375 -0.9375 -0.703125q-0.5625 -0.28125 -1.40625 -0.28125q-1.0 0 -1.734375 0.515625q-0.71875 0.515625 -1.109375 1.390625q-0.390625 0.875 -0.390625 2.0q0 1.296875 0.5 2.15625q0.5 0.859375 1.28125 1.28125q0.796875 0.421875 1.65625 0.421875q1.125 0 1.84375 -0.53125q0.734375 -0.53125 1.171875 -1.3125l1.4375 0.703125q-0.59375 1.15625 -1.71875 1.921875q-1.109375 0.75 -2.796875 0.75zm5.5287476 -0.3125l4.078125 -5.859375l0.171875 0l2.90625 -4.34375l2.0 0l-4.0 5.625l-0.125 0l-3.0625 4.578125l-1.96875 0zm0.078125 -10.203125l1.921875 0l3.15625 4.546875l0.078125 0l3.984375 5.65625l-1.984375 0l-3.046875 -4.515625l-0.140625 0l-3.96875 -5.6875zm9.95874 0l5.984375 0l0 1.546875l-5.984375 0l0 -1.546875zm1.78125 7.515625l0 -10.390625l1.703125 0l0 9.984375q0 0.796875 0.328125 1.234375q0.328125 0.4375 1.078125 0.4375q0.34375 0 0.625 -0.09375q0.28125 -0.109375 0.5 -0.25l0 1.671875q-0.265625 0.109375 -0.578125 0.171875q-0.296875 0.078125 -0.8125 0.078125q-1.28125 0 -2.0625 -0.75q-0.78125 -0.75 -0.78125 -2.09375zm11.189972 2.6875l0 -14.3125l4.828125 0q1.203125 0 2.21875 0.546875q1.015625 0.53125 1.625 1.484375q0.609375 0.9375 0.609375 2.203125q0 1.234375 -0.609375 2.203125q-0.609375 0.953125 -1.625 1.5q-1.015625 0.53125 -2.21875 0.53125l-3.921875 0l0 -1.609375l3.953125 0q0.84375 0 1.4375 -0.390625q0.609375 -0.390625 0.9375 -0.984375q0.328125 -0.609375 0.328125 -1.25q0 -0.640625 -0.328125 -1.234375q-0.328125 -0.609375 -0.9375 -1.0q-0.59375 -0.390625 -1.4375 -0.390625l-3.15625 0l0 12.703125l-1.703125 0zm14.04187 0.3125q-1.140625 0 -2.0 -0.4375q-0.859375 -0.4375 -1.34375 -1.203125q-0.484375 -0.765625 -0.484375 -1.75q0 -1.125 0.578125 -1.890625q0.578125 -0.765625 1.546875 -1.15625q0.984375 -0.390625 2.171875 -0.390625q0.671875 0 1.25 0.109375q0.578125 0.109375 1.015625 0.265625q0.4375 0.140625 0.65625 0.28125l0 -0.625q0 -1.15625 -0.828125 -1.828125q-0.8125 -0.6875 -2.0 -0.6875q-0.84375 0 -1.578125 0.375q-0.71875 0.359375 -1.140625 1.03125l-1.28125 -0.96875q0.40625 -0.59375 1.0 -1.03125q0.609375 -0.453125 1.375 -0.6875q0.765625 -0.234375 1.625 -0.234375q2.078125 0 3.25 1.109375q1.1875 1.09375 1.1875 2.953125l0 6.453125l-1.609375 0l0 -1.453125l-0.09375 0q-0.25 0.4375 -0.734375 0.84375q-0.484375 0.40625 -1.140625 0.65625q-0.640625 0.265625 -1.421875 0.265625zm0.171875 -1.5q0.875 0 1.59375 -0.4375q0.734375 -0.4375 1.171875 -1.171875q0.453125 -0.75 0.453125 -1.625q-0.46875 -0.3125 -1.15625 -0.515625q-0.6875 -0.203125 -1.515625 -0.203125q-1.453125 0 -2.140625 0.609375q-0.671875 0.59375 -0.671875 1.46875q0 0.84375 0.640625 1.359375q0.640625 0.515625 1.625 0.515625zm7.35437 1.1875l0 -10.203125l1.703125 0l0 10.203125l-1.703125 0zm0.84375 -12.078125q-0.5 0 -0.859375 -0.359375q-0.359375 -0.359375 -0.359375 -0.859375q0 -0.515625 0.359375 -0.859375q0.359375 -0.359375 0.859375 -0.359375q0.515625 0 0.859375 0.359375q0.359375 0.34375 0.359375 0.859375q0 0.5 -0.359375 0.859375q-0.34375 0.359375 -0.859375 0.359375zm3.519989 12.078125l0 -10.203125l1.609375 0l0 1.5l0.078125 0q0.40625 -0.734375 1.3125 -1.265625q0.921875 -0.546875 2.0 -0.546875q1.875 0 2.828125 1.09375q0.953125 1.078125 0.953125 2.875l0 6.546875l-1.703125 0l0 -6.28125q0 -1.484375 -0.71875 -2.09375q-0.703125 -0.609375 -1.828125 -0.609375q-0.84375 0 -1.484375 0.46875q-0.625 0.46875 -1.0 1.21875q-0.359375 0.734375 -0.359375 1.5625l0 5.734375l-1.6875 0zm10.016876 -10.203125l5.984375 0l0 1.546875l-5.984375 0l0 -1.546875zm1.78125 7.515625l0 -10.390625l1.703125 0l0 9.984375q0 0.796875 0.328125 1.234375q0.328125 0.4375 1.078125 0.4375q0.34375 0 0.625 -0.09375q0.28125 -0.109375 0.5 -0.25l0 1.671875q-0.265625 0.109375 -0.578125 0.171875q-0.296875 0.078125 -0.8125 0.078125q-1.28125 0 -2.0625 -0.75q-0.78125 -0.75 -0.78125 -2.09375z" fill-rule="nonzero"/><path fill="#000000" fill-opacity="0.0" d="m244.8 241.37184l0 -28.283463" fill-rule="evenodd"/><path stroke="#434343" stroke-width="2.0" stroke-linejoin="round" stroke-linecap="butt" d="m244.79999 241.37184l0 -20.703476" fill-rule="evenodd"/><path fill="#434343" stroke="#434343" stroke-width="2.0" stroke-linecap="butt" d="m244.79999 214.08838c1.8170166 0 3.2900085 1.4729767 3.2900085 3.2899933c0 1.8170166 -1.472992 3.2900085 -3.2900085 3.2900085c-1.8170166 0 -3.2899933 -1.472992 -3.2899933 -3.2900085c0 -1.8170166 1.4729767 -3.2899933 3.2899933 -3.2899933z" fill-rule="nonzero"/></g></svg>