<svg fill="none" height="241" stroke-linecap="square" stroke-miterlimit="10" width="276" xmlns="http://www.w3.org/2000/svg"><path d="m44.1 0h187v49.8h-187z" fill="none"/><path d="m99.4 23.3h-.3l-.1-.4q-.4-1.4-.4-2.8l.2-3q.3-1.3 1-2.8t1.6-2.8q.3-.4.6-.4.2 0 .3.2l.1.3-.1.3q-1.9 2.6-2.5 5.3-.2 1.3-.2 2.7 0 1.3.4 2.6v.3q0 .2-.2.3zm3-2.8q-.2 0-.3-.2v-.3l1.7-8.4q0-.2.2-.3l.4-.2q.2 0 .3.2.2.1.1.3l-1.7 8.4q0 .2-.3.3zm8.4 0q-.2 0-.3-.2v-.3l.6-3v-1.3q-.2-.4-.7-.6-.4-.3-1-.3l-1 .2q-.5.2-.9.6-.3.4-.4.9h-.7q.2-.8.7-1.3.5-.6 1.2-1 .7-.3 1.5-.3t1.4.3q.6.4.9 1 .2.7 0 1.7l-.7 3q0 .3-.2.5h-.4zm-5 0q-.3 0-.4-.2v-.3l1.1-5.6q0-.2.2-.3l.4-.2q.3 0 .4.2v.3l-1.2 5.6q0 .2-.2.3-.1.2-.4.2zm10 0q-.6 0-1-.3t-.6-.8q-.2-.6 0-1.2l1.2-5.9q0-.2.2-.3l.4-.2q.2 0 .3.2.2.1.1.3l-1.2 5.9q-.2.5.1 1 .2.3.8.3h.3l.3.1q.1.2 0 .4 0 .2-.2.3l-.4.2zm-1.7-5.5h-.3q-.1-.2 0-.4l.1-.3.4-.1h3.3v.4q0 .2-.2.3l-.3.1zm7 5.6q-1 0-1.6-.5-.7-.4-1-1.2-.2-.7 0-1.7t.8-1.7 1.3-1.2q.8-.4 1.8-.4t1.5.4q.6.4.8 1.1.2.8 0 1.7 0 .2-.2.3l-.4.2h-5l.2-.9h5l-.5.4v-1.2q-.2-.5-.6-.8-.4-.3-1-.3-.7 0-1.3.3-.5.3-1 .9l-.5 1.2v1.3q.3.5.7.8.5.4 1.2.4l.9-.2.8-.3q.1-.2.3-.2t.3.1q.2.2.1.4 0 .2-.2.3l-1.1.5zm5.7-4.2q.2-.7.7-1.3.5-.6 1.1-.9.7-.3 1.4-.3.6 0 .9.2.3.1.1.4 0 .2-.2.3h-.6l-1.3.1q-.6.2-1 .6-.4.4-.5 1zm-.8 4.1-.3-.1q-.1-.2 0-.4l1.1-5.6q0-.2.2-.3l.4-.2q.3 0 .4.2v.3l-1.1 5.6q0 .2-.3.4zm7.5 0q-1 0-1.5-.4t-1-1.2q-.2-.7 0-1.7t.8-1.7q.6-.8 1.5-1.2.8-.4 1.8-.4t1.5.4 1 1.2q.3.8 0 1.7l-.4.2q-.2.9-.7 1.6-.6.7-1.4 1.1-.7.5-1.6.5zm.3-.9q.7 0 1.3-.3.6-.3 1-.8.4-.6.6-1.3v-1.2q-.3-.6-.7-.9-.5-.3-1.1-.3-.7 0-1.3.3-.6.3-1 .9-.4.5-.6 1.2v1.3q.3.5.7.8.5.3 1.1.3zm2.7.9-.4-.1q-.1-.2 0-.4l.4-2 .4-1 .8.2-.6 2.8q0 .2-.3.4zm5.2 0q-1 0-1.6-.4t-1-1.2q-.2-.7 0-1.7t.8-1.7q.6-.8 1.4-1.2.8-.4 1.7-.4.7 0 1.3.3.6.2 1 .8v.3l-.3.4h-.4q-.2 0-.3-.2-.5-.7-1.5-.7-.6 0-1.2.3-.5.3-1 .9l-.5 1.2v1.3q.2.5.7.8.4.3 1.1.3h.9l.7-.4.3-.2.3.1q.2.1.1.3l-.1.3q-1 .9-2.4.9zm6.8 0q-.7 0-1.1-.3-.4-.3-.6-.8v-1.2l1.2-5.8q0-.3.2-.4l.4-.2q.3 0 .4.2v.4l-1.2 5.8q-.1.5.1 1 .3.3.8.3h.3l.3.1q.1.2 0 .4l-.2.4-.4.1zm-1.8-5.5h-.3v-.4q0-.2.2-.3l.3-.1h3l.3.1v.3l-.1.3-.4.1zm4.8 5.5-.4-.1v-.4l1.1-5.5q0-.3.2-.4.2-.2.5-.2.2 0 .3.2v.4l-1.1 5.5-.2.4zm1.7-7.8q-.3 0-.5-.2v-.5q0-.3.2-.5l.6-.2q.3 0 .4.2.2.2.1.5 0 .3-.3.5zm3.3 7.8q-.3 0-.4-.3l-1.4-5.6v-.3l.3-.3h.4l.2.2 1.4 5.4h-.5l3.6-5.4q0-.2.3-.2h.4l.2.3-.1.3-3.8 5.6q-.3.3-.6.3zm5 0-.3-.1v-.4l1.2-5.5q0-.3.2-.4.1-.2.4-.2.2 0 .3.2.1.1 0 .4l-1.1 5.5-.2.4-.4.1zm1.8-7.8q-.3 0-.5-.2v-.5q0-.3.3-.5.2-.2.5-.2t.4.2q.2.2.2.5-.1.3-.4.5-.2.2-.5.2zm3.6 7.8q-.6 0-1-.3-.5-.3-.6-.8-.2-.6 0-1.2l1.2-5.8q0-.3.2-.4l.4-.2q.2 0 .3.2l.1.4-1.3 5.8.2 1q.2.3.8.3h.3l.3.1q.1.2 0 .4l-.2.4-.4.1zm-1.7-5.5h-.3q-.1-.2 0-.4l.1-.3.4-.1h3l.3.1v.3q0 .2-.2.3l-.3.1zm4.6 8.4h-.2q-.5-.3-.2-.7l5.6-8.5q.3-.4.7-.2.4.2.2.6l-5.7 8.5q-.2.3-.4.3zm2-3.1h-.4l-.2-.2-1.6-5.5.1-.3.3-.3q.3-.1.4 0l.2.2 1.5 5.4v.4zm3 3-.3-.1q-.1-.2 0-.4v-.3q1-1.3 1.6-2.6t.9-2.7q.5-2.6-.2-5.3v-.3q0-.2.2-.3l.4-.2q.3 0 .4.4.4 1.4.4 2.8l-.2 3q-.3 1.4-1 2.8-.6 1.4-1.6 2.9l-.3.2z" fill="#999"/><path d="m67.2 21.7h141v61.7h-141z" fill="none"/><path d="m118 51.6h-13.3v36.7h-7.4v-36.7h-13.2v-6h33.9zm5.6 36.7v-42.7h14.6q7.2 0 11 3 3.8 2.8 3.8 8.6 0 2.9-1.6 5.2-1.6 2.4-4.6 3.7 3.4.9 5.3 3.5 2 2.6 2 6.2 0 6-4 9.2-3.8 3.3-11 3.3zm7.4-19.2v13.3h8.2q3.5 0 5.5-1.7t2-4.8q0-6.7-6.9-6.8zm0-5.4h7.3q3.4 0 5.4-1.6 2-1.6 2-4.4 0-3.2-1.9-4.6-1.8-1.4-5.6-1.4h-7.2zm60.5-12h-13.3v36.7h-7.4v-36.8h-13.2v-6h33.8z" fill="#2979ff"/><path d="m44.1 91.8h187v49.8h-187z" fill="none"/><path d="m75.1 114-.4-.2-.1-.3v-10h1v10l-.1.3zm-3.7-9.5h-.3l-.2-.4.2-.4.3-.1h7.4l.3.1.2.4q0 .2-.2.3l-.3.1zm10.6 9.6q-1 0-1.9-.5-.8-.5-1.3-1.3-.5-.9-.5-2 0-1 .5-1.9.5-.8 1.3-1.3.9-.5 2-.5t1.8.5q.9.5 1.3 1.3.5.9.5 2 0 1-.5 1.9-.4.8-1.3 1.3-.8.5-1.9.5zm0-1q.8 0 1.4-.3.6-.4 1-1t.3-1.4q0-.8-.3-1.5-.4-.6-1-1-.6-.3-1.4-.3-.7 0-1.4.3-.6.4-1 1-.3.7-.3 1.5t.4 1.4q.3.6 1 1 .6.3 1.3.3zm8.6.9q-.7 0-1.3-.3-.5-.4-.9-1-.3-.5-.3-1.3v-6.4l.2-.4.3-.1.4.1.2.4v6.5q0 .7.3 1.1.5.5 1 .5h.4l.4.1.1.4-.1.3-.4.2zm-3.3-6.1-.4-.1-.1-.4.1-.3.4-.1h3.4l.3.1.1.3-.1.4h-.3zm9 6.2q-1 0-1.8-.5t-1.3-1.3q-.5-.9-.5-2t.5-1.8q.5-.9 1.3-1.4.9-.5 1.9-.5 1 0 1.9.5.8.5 1.3 1.4.5.8.5 1.9l-.4.3q0 1-.5 1.7-.4.8-1.2 1.2-.7.5-1.7.5zm.1-1q.8 0 1.4-.3.6-.4 1-1 .3-.7.3-1.4 0-.8-.4-1.5-.3-.6-1-1-.5-.3-1.3-.3-.7 0-1.4.4-.6.3-1 1-.3.6-.3 1.4 0 .7.4 1.4.3.6 1 1 .6.3 1.3.3zm3.2.9-.4-.1-.1-.4v-2.3l.2-1 .8.2v3.1l-.1.4zm4 0q-.4 0-.9-.3-.4-.3-.6-.8-.2-.5-.2-1.2v-7.7l.1-.4.4-.1.3.1.2.4v7.6q0 .6.2 1 .2.3.6.3h.3l.3.1.2.4-.2.4-.4.1zm7 0-.5-.1-.2-.4v-9.5l.2-.4.3-.1h3.3q.8 0 1.4.3.7.4 1 1 .4.5.4 1.3 0 .7-.4 1.3-.3.6-1 .8 1 .3 1.5 1 .5.6.5 1.6t-.4 1.6q-.4.7-1.1 1.1-.8.4-1.7.4zm.4-1h2.9q.6 0 1.1-.2.5-.3.8-.8t.3-1q0-.7-.3-1.1-.3-.5-.8-.7-.5-.3-1.1-.3h-3zm0-5h2.7q.8 0 1.3-.5t.5-1.3q0-.8-.5-1.2-.5-.4-1.3-.4h-2.7zm9.6 6q-.5 0-1-.3l-.6-.8q-.2-.5-.2-1.2v-7.7l.1-.4.4-.1.4.1.1.4v7.6q0 .6.2 1 .3.3.6.3h.4l.3.1v.8l-.5.1zm5.1 0q-1 0-1.9-.4-.8-.5-1.3-1.3-.5-.9-.5-2 0-1 .5-1.9.5-.8 1.3-1.3.9-.5 2-.5t1.8.5q.9.5 1.3 1.3.5.9.5 2 0 1-.5 1.9-.4.8-1.3 1.3-.8.5-1.9.5zm0-.9q.8 0 1.4-.3.6-.4 1-1t.3-1.4q0-.8-.3-1.5-.4-.6-1-1-.6-.3-1.4-.3-.7 0-1.4.3-.6.4-1 1-.3.7-.3 1.5t.4 1.4q.3.6 1 1 .6.3 1.3.3zm9 1q-1 0-1.9-.5-.8-.5-1.3-1.3-.5-.9-.5-2t.5-1.8q.4-.9 1.2-1.4.8-.5 1.8-.5.8 0 1.5.4.7.3 1.2 1 .2 0 .1.3l-.2.3h-.3l-.3-.1q-.8-1-2-1-.7 0-1.3.4-.5.4-.9 1t-.3 1.5q0 .8.4 1.4.3.6.9 1 .6.3 1.4.3l1-.1q.4-.1.7-.4l.3-.2.4.1.1.4-.1.3q-1 .9-2.4.9zm5.5-2.5-.6-.7 4.5-4.1.4-.2q.2 0 .3.2l.1.3-.1.3zm-.3 2.4-.4-.1-.1-.4v-9.4l.1-.4.4-.1.4.1v10.3l-.4.1zm5 0h-.4l-.4-.1-3-3.7.8-.6 3 3.7.1.3q0 .2-.2.3zm2.8 0-.4-.1v-6.7-.4h.8l.1.4v6.3l-.1.4zm0-8.7-.4-.2q-.2-.2-.2-.5t.2-.5.5-.2q.3 0 .5.2t.2.5q0 .3-.2.5t-.5.2zm9.4 8.7-.4-.1-.1-.4v-3.5q0-.8-.3-1.3-.3-.6-.9-.8-.5-.3-1.2-.3-.6 0-1.2.3-.5.2-.8.7t-.3 1h-.7q0-.9.4-1.5.4-.7 1.1-1 .7-.5 1.6-.5 1 0 1.7.4.8.4 1.2 1.2.4.7.4 1.8v3.5l-.1.4zm-5.7 0-.4-.1-.1-.4v-6.3l.1-.4.4-.1.3.1.2.4v6.3l-.2.4zm11.7 0q-1 0-1.9-.4t-1.3-1.3q-.4-.9-.4-2 0-1 .5-1.9.4-.8 1.3-1.3.8-.4 1.9-.4 1 0 2 .4.7.5 1.2 1.3.5.9.5 2l-.6.3q0 1-.4 1.7-.4.8-1.2 1.2-.7.5-1.6.5zm.1 2.9q-1 0-1.8-.4t-1.3-1l-.2-.4q0-.2.2-.3.2-.2.4-.1.2 0 .3.2.4.5 1 .8.6.3 1.4.3.8 0 1.4-.4.6-.4 1-1 .3-.7.3-1.6v-2l.4-.8.6.2v2.7q0 1-.5 2-.5.8-1.3 1.3t-1.9.5zm0-3.8q.8 0 1.4-.3.6-.4 1-1t.3-1.4-.4-1.5q-.3-.6-1-1-.5-.3-1.3-.3t-1.4.3q-.6.4-1 1-.3.7-.3 1.5t.3 1.4 1 1q.6.3 1.4.3zm12.8 1-.4-.2-.1-.4v-9.9h1v9.9l-.2.4-.3.1zm-3.7-9.6h-.3l-.2-.4.2-.4.3-.1h7.4l.3.1.2.4q0 .2-.2.3l-.3.1zm9.9 9.5-.4-.1-.2-.4v-6.3q0-.2.2-.3.1-.2.4-.2.2 0 .3.2.2 0 .2.3v6.3l-.2.4zm0-8.7q-.3 0-.5-.2t-.2-.5q0-.3.2-.5t.5-.2q.3 0 .5.2t.2.5q0 .3-.2.5t-.5.2zm12.9 8.7-.4-.1-.1-.4v-3.8q0-1-.5-1.5-.5-.6-1.3-.6t-1.3.6q-.6.5-.5 1.4h-1q0-.9.4-1.5.4-.7 1-1 .7-.5 1.5-.5t1.4.4q.6.4 1 1 .3.7.3 1.7v3.8l-.1.4zm-9.3 0-.4-.1-.1-.4v-6.3l.1-.3q.1-.2.4-.2.2 0 .3.2.2.1.2.3v6.3l-.2.4zm4.6 0-.3-.1-.2-.4v-3.8q0-1-.5-1.5-.5-.6-1.2-.6-.9 0-1.4.6-.5.5-.5 1.4h-.8q0-.9.4-1.5.4-.7 1-1 .6-.5 1.4-.5.8 0 1.4.4.6.4 1 1 .2.7.2 1.7v4.2zm10.7 0q-1 0-1.9-.4-.8-.5-1.3-1.3-.4-.9-.4-2 0-1 .4-1.8.4-.9 1.2-1.4.8-.4 1.8-.4t1.8.4q.8.5 1.2 1.3.4.8.4 1.9l-.1.3-.4.1h-5.7v-.8h5.8l-.6.4q0-.8-.2-1.4-.3-.6-.9-1-.5-.3-1.3-.3-.7 0-1.3.3-.6.4-.9 1-.3.7-.3 1.5t.4 1.4q.3.6 1 1 .5.4 1.3.4l1-.2.8-.4.3-.1h.3l.2.4-.1.3q-.5.4-1.2.6-.6.3-1.3.3z" fill="#595959"/><path d="m0 147h91.8v32.6h-91.8z" fill="#00c000" fill-rule="evenodd"/><path d="m35.5 164v-.8h2.8v2.5q-.6.5-1.3.8l-1.4.2q-1 0-1.8-.4t-1.2-1.2q-.4-.8-.4-1.8t.4-1.8 1.1-1.3q.8-.4 1.8-.4.7 0 1.3.3.6.2 1 .6.3.4.4 1.1l-.7.2-.4-.8q-.3-.3-.7-.4-.4-.2-.9-.2-.6 0-1 .2-.5.1-.8.5l-.4.6q-.2.6-.2 1.4 0 .8.3 1.5.3.5.9.8.6.3 1.2.3t1.1-.2q.6-.2.9-.5v-1.2zm3.9-.6q0-1.7.9-2.6.9-1 2.3-1 .9 0 1.6.5.8.4 1.2 1.2.4.8.4 1.8t-.5 1.8q-.4.8-1.1 1.2t-1.6.4q-1 0-1.7-.4-.8-.5-1.1-1.3-.4-.8-.4-1.6zm.9 0q0 1.2.6 1.9.7.7 1.7.7t1.6-.7q.6-.7.6-2 0-.8-.2-1.4-.3-.6-.8-1-.6-.3-1.2-.3-1 0-1.7.6-.6.7-.6 2.2zm6.3 0q0-1.7 1-2.6.8-1 2.2-1 1 0 1.7.5.7.4 1.1 1.2.4.8.4 1.8t-.4 1.8q-.4.8-1.2 1.2t-1.6.4q-1 0-1.7-.4-.7-.5-1-1.3-.5-.8-.5-1.6zm1 0q0 1.2.6 1.9t1.6.7q1 0 1.7-.7.6-.7.6-2 0-.8-.3-1.4-.3-.6-.8-1-.5-.3-1.2-.3-1 0-1.6.6-.7.7-.7 2.2zm6.6 3.2v-6.6h3.4l1 .5q.6.5.8 1.2.3.7.3 1.6 0 .7-.2 1.3l-.5 1q-.2.4-.6.6l-.8.3-1 .1zm.8-.8h2.5q.4 0 .6-.4l.5-.9q.2-.5.2-1.3 0-1-.4-1.6t-.8-.7q-.4-.2-1.2-.2h-1.4z" fill="#000"/><path d="m91.8 147h91.8v32.6h-91.8z" fill="#f90" fill-rule="evenodd"/><path d="m122 161v-6.7h1l3.4 5.3v-5.3h.9v6.7h-1l-3.4-5.3v5.3zm6.8 0v-6.7h4.8v.8h-4v2h3.8v.8h-3.7v2.3h4v.8zm6.2 0v-6.7h4.8v.8h-4v2h3.8v.8h-3.7v2.3h4v.8zm6.2 0v-6.7h2.3l1.2.1q.6.1 1 .5.5.4.8 1.2.2.6.2 1.5 0 .8-.2 1.4-.1.6-.4 1l-.6.6-.8.3-1 .1zm.9-.8h1.4l1-.1.6-.4q.4-.3.5-.8.2-.5.2-1.3 0-1-.3-1.6t-.9-.8l-1.1-.1h-1.5zm5.5-1.3.9-.1q0 .5.3.8.2.3.6.5l1 .2 1-.1.5-.4.2-.6-.2-.6-.6-.4-1.2-.3-1.3-.4-.7-.6q-.2-.4-.2-.9t.3-.9q.3-.4.8-.7l1.2-.2q.8 0 1.3.3.6.2 1 .7l.3 1h-.9q0-.6-.5-.9-.4-.3-1.1-.3-.8 0-1.2.3-.3.3-.3.7l.2.6 1.3.5 1.5.4q.6.3.9.7.3.4.3 1t-.4 1q-.3.4-.8.7-.6.2-1.3.2-1 0-1.5-.2-.6-.3-1-.8zm-43.6 13.1v-6.7h.9v6.7zm2.4 0v-6.7h1.3l1.6 4.8.3 1 .4-1.1 1.6-4.7h1.2v6.7h-.9v-5.6l-2 5.6h-.7l-2-5.7v5.7zm7.8 0v-6.7h3.5l.9.4q.3.2.5.6l.2 1q0 .8-.5 1.4-.6.6-2 .6h-1.7v2.7zm.9-3.5h1.7q.9 0 1.2-.3.4-.3.4-1l-.2-.6q-.2-.3-.6-.4h-2.5zm5.3 3.5v-6.7h3q.9 0 1.4.2.4.2.7.6.3.5.3 1 0 .8-.5 1.2-.4.5-1.4.7.4.1.5.3l.8.9 1.1 1.8h-1l-1-1.4-.6-.9-.5-.5-.4-.1h-1.5v2.9zm1-3.7h1.8q.6 0 1-.2t.5-.3q.2-.3.2-.7 0-.4-.4-.7-.3-.3-1-.3h-2.2zm5.5.5q0-1.7.9-2.7.9-.9 2.3-.9 1 0 1.7.5.7.4 1.1 1.2.4.8.4 1.8t-.4 1.8q-.4.8-1.2 1.2t-1.6.4q-1 0-1.7-.4-.7-.5-1.1-1.3-.4-.8-.4-1.6zm.9 0q0 1.2.6 1.9.7.7 1.7.7t1.6-.7q.7-.7.7-2 0-.8-.3-1.4-.3-.6-.8-1-.5-.3-1.2-.3-1 0-1.6.6-.7.7-.7 2.2zm8.5 3.2-2.6-6.7h1l1.7 4.9.4 1 .3-1 1.8-4.9h1l-2.7 6.7zm4.4 0v-6.7h4.8v.8h-4v2h3.7v.8h-3.7v2.3h4.1v.8zm6.1 0v-6.7h1.4l1.5 4.7.4 1 .3-1 1.6-4.7h1.2v6.7h-.9v-5.6l-1.9 5.6h-.8l-2-5.7v5.7zm7.8 0v-6.7h4.9v.8h-4v2h3.7v.8h-3.7v2.3h4.1v.8zm6.2 0v-6.7h1l3.5 5.3v-5.3h.8v6.7h-.9l-3.5-5.3v5.3zm8.5 0v-5.9h-2.3v-.8h5.3v.8h-2.2v5.9z" fill="#000"/><path d="m184 147h91.8v32.6h-91.8z" fill="#e06666" fill-rule="evenodd"/><path d="m217 166v-6.7h3.5l.9.4q.3.2.5.6l.2 1q0 .8-.5 1.4-.6.6-2 .6h-1.6v2.7zm.9-3.5h1.7q.9 0 1.2-.3.4-.3.4-1l-.2-.6q-.2-.3-.6-.4h-2.4zm5 .3q0-1.7 1-2.7.8-.9 2.3-.9.9 0 1.6.5.8.4 1.2 1.2.4.8.4 1.8t-.5 1.8q-.4.8-1.1 1.2t-1.6.4q-1 0-1.7-.5-.8-.4-1.2-1.2-.3-.8-.3-1.7zm1 0q0 1.2.6 1.9.7.7 1.6.7 1 0 1.7-.7.6-.7.6-2 0-.8-.3-1.4-.2-.6-.7-1-.6-.3-1.2-.3-1 0-1.7.6-.6.7-.6 2.2zm6.3 0q0-1.7 1-2.7.8-.9 2.2-.9 1 0 1.7.5.7.4 1.1 1.2.4.8.4 1.8t-.4 1.8q-.4.8-1.2 1.2t-1.6.4q-1 0-1.7-.5-.7-.4-1.1-1.2-.4-.8-.4-1.7zm1 0q0 1.2.6 1.9t1.6.7q1 0 1.6-.7.7-.7.7-2 0-.8-.3-1.4-.3-.6-.8-1-.5-.3-1.2-.3-1 0-1.6.6-.7.7-.7 2.2zm6.6 3.2v-6.7h2.9q1 0 1.4.2.4.2.7.6.3.5.3 1 0 .8-.5 1.2-.4.5-1.4.7.4.1.5.3l.8.9 1.1 1.8h-1l-1-1.4-.6-.9-.4-.5-.4-.1h-1.5v2.9zm.8-3.7h2q.5 0 .9-.2t.5-.4q.2-.2.2-.6 0-.4-.4-.7-.3-.3-1-.3h-2.2z" fill="#000"/><path d="m92.6 176v23" fill="none"/><path d="m92.6 180v19.2" stroke="#595959" stroke-linecap="butt" stroke-linejoin="round"/><path d="m92.6 177c1 0 1.6.7 1.6 1.6s-.7 1.7-1.6 1.7a1.6 1.6 0 0 1 0-3.3z" fill="#595959" stroke="#595959" stroke-linecap="butt"/><path d="m184 176v23" fill="none"/><path d="m184 180v19.2" stroke="#595959" stroke-linecap="butt" stroke-linejoin="round"/><path d="m184 177c1 0 1.6.7 1.6 1.6s-.7 1.7-1.6 1.7a1.6 1.6 0 0 1 0-3.3z" fill="#595959" stroke="#595959" stroke-linecap="butt"/><path d="m58.5 191h68.1v49.8h-68.1z" fill="none"/><path d="m73 208h1q.8 0 1.2-.4.5-.5.5-1.2 0-1.7-1.6-1.7-.8 0-1.3.5-.4.4-.4 1.1h-1.2q0-1 .8-1.8t2-.8q1.4 0 2.2.7.7.7.7 2 0 .6-.4 1.2t-1 .9q.7.2 1.1.8.5.5.5 1.4 0 1.3-.9 2-.8.7-2.1.7-1.4 0-2.2-.7-.8-.7-.8-1.9h1.2q0 .8.5 1.2.5.4 1.3.4t1.3-.4q.5-.5.5-1.3t-.5-1.3q-.5-.4-1.5-.4h-1zm11.7 1.3q0 2.1-.7 3.1-.8 1-2.3 1-1.5 0-2.2-1-.8-1-.8-3v-1.4q0-2.1.7-3.2.8-1 2.3-1 1.5 0 2.3 1 .7 1 .7 3zm-1.2-1.7q0-1.5-.4-2.2-.5-.7-1.4-.7-1 0-1.3.7-.5.7-.5 2.1v2q0 1.5.5 2.2.4.8 1.3.8 1 0 1.3-.7.5-.7.5-2.2zm8.7 1.7q0 2.1-.7 3.1-.8 1-2.3 1-1.5 0-2.2-1-.8-1-.8-3v-1.4q0-2.1.7-3.2.7-1 2.3-1 1.5 0 2.2 1 .8 1 .8 3zm-1.2-1.7q0-1.5-.4-2.2-.5-.7-1.4-.7-1 0-1.3.7-.5.7-.5 2.1v2q0 1.5.5 2.2.4.8 1.3.8t1.3-.7q.5-.7.5-2.2zm7.3-1.3v.8q.8-1 2.1-1 1.5 0 2 1.2.4-.5 1-.8t1.3-.3q2.3 0 2.3 2.4v4.7h-1.2v-4.6q0-.8-.3-1.2t-1.2-.3q-.6 0-1.1.4-.4.4-.5 1v4.7h-1.2v-4.6q0-1.5-1.5-1.5-1.2 0-1.6 1v5.1h-1.2v-7zm14.7 5.1q0-.4-.4-.7-.3-.3-1.3-.5l-1.4-.4q-.5-.3-.8-.7-.3-.4-.3-.9 0-.8.8-1.4.7-.6 1.9-.6 1.1 0 1.9.6.7.6.7 1.6h-1.1q0-.5-.4-.9t-1-.4q-.7 0-1 .3-.5.3-.5.8 0 .4.4.6.3.3 1.2.5 1 .2 1.5.5.6.2.8.6.3.4.3 1 0 1-.8 1.5-.7.6-2 .6-.8 0-1.4-.3-.7-.3-1-.9-.4-.5-.4-1.1h1.2q0 .6.5 1 .4.3 1.2.3.7 0 1-.3.5-.3.5-.7z" fill="#595959"/><path d="m150 191h68.1v49.8h-68.1z" fill="none"/><path d="m168 203v1h-.2q-1.4 0-2.3.9-.8.8-1 2.2.8-.8 2.1-.8t2 .8q.7 1 .7 2.3 0 1.5-.8 2.3-.8 1-2.1 1-1.4 0-2.2-1.1-.9-1-.9-2.7v-.5q0-2.6 1.2-4 1-1.4 3.3-1.4zm-1.6 4.3q-.6 0-1.1.3-.6.4-.8 1v.4q0 1.2.6 2t1.3.6q.8 0 1.3-.6.4-.6.4-1.5 0-1-.4-1.6-.5-.6-1.3-.6zm10.3 1.1q0 2.2-.7 3.2t-2.3 1q-1.5 0-2.2-1-.7-1-.8-3v-1.6q0-2 .8-3.1.7-1 2.2-1 1.6 0 2.3 1 .7 1 .7 3zm-1.2-1.6q0-1.5-.4-2.2-.4-.7-1.4-.7-.9 0-1.3.7t-.5 2.1v2q0 1.5.5 2.2.4.7 1.3.7 1 0 1.4-.7.4-.7.4-2.1zm8.7 1.6q0 2.2-.7 3.2t-2.3 1q-1.5 0-2.2-1-.7-1-.8-3v-1.6q0-2 .7-3.1.8-1 2.3-1 1.5 0 2.3 1 .7 1 .7 3zm-1.2-1.6q0-1.5-.4-2.2-.4-.7-1.4-.7-1 0-1.3.7-.4.7-.5 2.1v2q0 1.5.5 2.2.4.7 1.3.7 1 0 1.3-.7.5-.7.5-2.1zm7.3-1.4v.8q.8-.9 2.1-.9 1.5 0 2 1.1.4-.5 1-.8t1.3-.3q2.3 0 2.3 2.5v4.7h-1.2v-4.7q0-.7-.3-1.1t-1.2-.4q-.6 0-1 .4-.5.4-.6 1.1v4.7h-1.2v-4.6q0-1.6-1.5-1.6-1.2 0-1.6 1v5.2h-1.2v-7zm14.7 5.2q0-.5-.4-.7-.3-.3-1.2-.5-1-.2-1.5-.5-.5-.2-.8-.6-.2-.4-.2-1 0-.8.7-1.4.7-.6 1.9-.6t2 .6q.7.7.7 1.6h-1.3q0-.5-.4-.8-.4-.4-1-.4-.7 0-1 .3-.4.3-.4.8 0 .4.3.6l1.3.4q.9.2 1.4.5.6.3.8.7.3.4.3 1 0 .9-.7 1.5-.8.5-2 .5-.8 0-1.5-.3-.6-.3-1-.8-.4-.6-.4-1.2h1.2q0 .6.5 1 .5.3 1.2.3t1-.2q.5-.3.5-.8z" fill="#595959"/></svg>