<svg version="1.1" xmlns="http://www.w3.org/2000/svg" viewBox="0 0 523.3693273817297 424.8716613769531" width="523.3693273817297" height="424.8716613769531">
  <!-- svg-source:excalidraw -->
  
  <defs>
    <style class="style-fonts">
      @font-face {
        font-family: "Virgil";
        src: url("https://excalidraw.com/Virgil.woff2");
      }
      @font-face {
        font-family: "Cascadia";
        src: url("https://excalidraw.com/Cascadia.woff2");
      }
      @font-face {
        font-family: "Assistant";
        src: url("https://excalidraw.com/Assistant-Regular.woff2");
      }
    </style>
    
  </defs>
  <g stroke-linecap="round"><g transform="translate(104.81933958876095 81.24861450195311) rotate(0 -0.01995849609375 115.52835083007812)"><path d="M-1.02 -0.02 C-0.88 38.69, -0.26 193.54, 0.01 232.14 M0.65 -1.08 C0.7 37.34, -0.84 192.16, -0.92 230.58" stroke="#1e1e1e" stroke-width="2" fill="none"></path></g></g><mask></mask><g stroke-linecap="round"><g transform="translate(211.30627806532345 82.76307983398436) rotate(0 -0.01995849609375 115.52835083007812)"><path d="M-0.18 1.12 C0.12 39.46, 0.45 191.53, 0.64 230.04 M-1.73 0.66 C-1.43 39.12, -0.36 192.75, 0.05 231.05" stroke="#1e1e1e" stroke-width="2" fill="none"></path></g></g><mask></mask><g stroke-linecap="round" transform="translate(124.12427122938595 121.73091430664061) rotate(0 35.0877685546875 17.5)"><path d="M8.75 0 C29.12 1.51, 49.61 0.95, 61.43 0 M8.75 0 C21.73 -0.67, 33.6 0.1, 61.43 0 M61.43 0 C67.91 -1.25, 70.32 3.21, 70.18 8.75 M61.43 0 C68.7 2.2, 68.58 2.59, 70.18 8.75 M70.18 8.75 C70.91 14.48, 70.41 17.16, 70.18 26.25 M70.18 8.75 C70.45 12.95, 70.43 17.76, 70.18 26.25 M70.18 26.25 C70.4 34.01, 68.04 36.33, 61.43 35 M70.18 26.25 C71.29 30.92, 65.87 33.64, 61.43 35 M61.43 35 C45.95 34.83, 29.53 34.67, 8.75 35 M61.43 35 C51.37 34.89, 40.76 34.53, 8.75 35 M8.75 35 C3.43 33.97, 0.62 32.76, 0 26.25 M8.75 35 C2.65 36.35, -0.71 33.35, 0 26.25 M0 26.25 C0.5 20.29, -0.73 16.67, 0 8.75 M0 26.25 C0.05 22.16, 0.78 18.72, 0 8.75 M0 8.75 C-1.15 1.42, 4.48 -1.68, 8.75 0 M0 8.75 C-1.43 3.06, 4.5 0.25, 8.75 0" stroke="#1e1e1e" stroke-width="1" fill="none"></path></g><g transform="translate(143.21203978407345 130.03091430664062) rotate(0 16 9.199999999999989)"><text x="16" y="14.720312499999999" font-family="Helvetica, Segoe UI Emoji" font-size="16px" fill="#1e1e1e" text-anchor="middle" style="white-space: pre;" direction="ltr" dominant-baseline="alphabetic">任务</text></g><g stroke-linecap="round" transform="translate(123.58191283094845 174.70830078125) rotate(0 35.0877685546875 17.5)"><path d="M8.75 0 C26.31 -1.3, 44.7 0.56, 61.43 0 M8.75 0 C27.24 0.45, 47.64 -0.4, 61.43 0 M61.43 0 C67.96 0.6, 70.19 1.91, 70.18 8.75 M61.43 0 C66.89 -1.05, 70.32 1.86, 70.18 8.75 M70.18 8.75 C70.92 13.68, 69.75 17.71, 70.18 26.25 M70.18 8.75 C70.66 12.3, 69.96 17.48, 70.18 26.25 M70.18 26.25 C71.38 30.33, 65.48 34.13, 61.43 35 M70.18 26.25 C71.58 30.86, 65.82 33.72, 61.43 35 M61.43 35 C42.67 35.49, 22.15 37.17, 8.75 35 M61.43 35 C51.04 35.1, 39.56 35.72, 8.75 35 M8.75 35 C2.35 34.33, 1.53 31.25, 0 26.25 M8.75 35 C3.9 36.42, -2.13 30.62, 0 26.25 M0 26.25 C0.21 23.87, 1.16 18.69, 0 8.75 M0 26.25 C0.18 21.44, -0.1 17.73, 0 8.75 M0 8.75 C0.02 1.74, 4.78 -1.32, 8.75 0 M0 8.75 C0.55 1.16, 1.61 -1.91, 8.75 0" stroke="#1e1e1e" stroke-width="1" fill="none"></path></g><g transform="translate(142.66968138563595 183.00830078125) rotate(0 16 9.199999999999989)"><text x="16" y="14.720312499999999" font-family="Helvetica, Segoe UI Emoji" font-size="16px" fill="#1e1e1e" text-anchor="middle" style="white-space: pre;" direction="ltr" dominant-baseline="alphabetic">任务</text></g><g stroke-linecap="round" transform="translate(124.45679076063595 256.3226806640625) rotate(0 35.0877685546875 17.5)"><path d="M8.75 0 C24.18 -1.45, 40.41 -1.19, 61.43 0 M61.43 0 C65.66 -1.55, 68.63 2.32, 70.18 8.75 M70.18 8.75 C71.44 13.72, 68.97 21.9, 70.18 26.25 M70.18 26.25 C70.73 31.01, 66.71 33.22, 61.43 35 M61.43 35 C46.77 35.1, 27.12 35.91, 8.75 35 M8.75 35 C4.07 33.41, -0.16 30.74, 0 26.25 M0 26.25 C-0.31 19.78, 1.7 14.2, 0 8.75 M0 8.75 C1.34 2.2, 2.13 -1.01, 8.75 0" stroke="#1e1e1e" stroke-width="1.5" fill="none" stroke-dasharray="1.5 7"></path></g><g transform="translate(135.54455931532345 264.6226806640625) rotate(0 24 9.199999999999989)"><text x="24" y="14.720312499999999" font-family="Helvetica, Segoe UI Emoji" font-size="16px" fill="#1e1e1e" text-anchor="middle" style="white-space: pre;" direction="ltr" dominant-baseline="alphabetic">新任务</text></g><g stroke-linecap="round" transform="translate(342.44079954969845 169.29078979492186) rotate(0 35.0877685546875 17.5)"><path d="M8.75 0 C28 1.31, 42.24 -1.16, 61.43 0 M8.75 0 C20.35 0.32, 32.73 -0.22, 61.43 0 M61.43 0 C66.3 -1.01, 70.26 2.86, 70.18 8.75 M61.43 0 C67.81 -2.05, 68.55 0.94, 70.18 8.75 M70.18 8.75 C69.92 14.55, 69.74 20.8, 70.18 26.25 M70.18 8.75 C69.58 13.91, 69.86 20.96, 70.18 26.25 M70.18 26.25 C68.28 32.4, 67.68 36.33, 61.43 35 M70.18 26.25 C71.54 31.47, 66.96 34.27, 61.43 35 M61.43 35 C45.77 33.66, 27.59 33.83, 8.75 35 M61.43 35 C44.16 35.59, 27.71 35.09, 8.75 35 M8.75 35 C2.31 33.4, -1.33 30.38, 0 26.25 M8.75 35 C1.46 36.83, 0 29.8, 0 26.25 M0 26.25 C1.27 18.51, -0.49 12.22, 0 8.75 M0 26.25 C-0.67 22.26, -0.15 16.71, 0 8.75 M0 8.75 C0.46 1.73, 4.47 1.14, 8.75 0 M0 8.75 C-0.33 2.84, 1.16 1.09, 8.75 0" stroke="#1e1e1e" stroke-width="1" fill="none"></path></g><g transform="translate(361.52856810438595 177.59078979492188) rotate(0 16 9.199999999999989)"><text x="16" y="14.720312499999999" font-family="Helvetica, Segoe UI Emoji" font-size="16px" fill="#1e1e1e" text-anchor="middle" style="white-space: pre;" direction="ltr" dominant-baseline="alphabetic">任务</text></g><g mask="url(#mask-ADLLMj5Ct4th08yDNvhuW)" stroke-linecap="round"><g transform="translate(368.56858867936114 215.13748165556183) rotate(1.4616021811508424 -101.10550216231587 67.3904657175031)"><path d="M0 0 C-16.56 22.46, -65.66 119.01, -99.37 134.78 C-133.07 150.55, -185.07 101.3, -202.21 94.61" stroke="#1e1e1e" stroke-width="1.5" fill="none" stroke-dasharray="1.5 7"></path></g><g transform="translate(368.56858867936114 215.13748165556183) rotate(1.4616021811508424 -101.10550216231587 67.3904657175031)"><path d="M-177.76 99.8 C-187.44 97.74, -197.13 95.69, -202.21 94.61" stroke="#1e1e1e" stroke-width="1.5" fill="none" stroke-dasharray="1.5 5"></path></g><g transform="translate(368.56858867936114 215.13748165556183) rotate(1.4616021811508424 -101.10550216231587 67.3904657175031)"><path d="M-186.81 114.3 C-192.91 106.5, -199.01 98.7, -202.21 94.61" stroke="#1e1e1e" stroke-width="1.5" fill="none" stroke-dasharray="1.5 5"></path></g></g><mask id="mask-ADLLMj5Ct4th08yDNvhuW"><rect x="0" y="0" fill="#fff" width="670.7795930039929" height="449.91841309056804"></rect><rect x="227.48259529512234" y="340.7408439284239" fill="#000" width="80" height="18.4" opacity="1"></rect></mask><g transform="translate(227.52208695862043 340.741347667376) rotate(1.4616021811508424 39.940999558424835 -56.665132851299774)"><text x="40" y="14.720312499999999" font-family="Helvetica, Segoe UI Emoji" font-size="16px" fill="#1e1e1e" text-anchor="middle" style="white-space: pre;" direction="ltr" dominant-baseline="alphabetic">创建新任务</text></g><g stroke-linecap="round"><g transform="translate(457.709906837974 153.93650283692244) rotate(15.883607742937135 -3.2673257338535677 2.5474065043603957)"><path d="M-0.81 1.13 C-0.92 0.93, -0.05 -1.59, -0.5 -2.29 C-0.96 -3, -2.48 -3.93, -3.55 -3.12 C-4.62 -2.31, -6.67 0.89, -6.92 2.55 C-7.17 4.22, -5.79 5.89, -5.07 6.88 C-4.35 7.87, -3.52 8.05, -2.62 8.49 C-1.72 8.92, -0.07 11.02, 0.31 9.5 C0.68 7.98, -0.4 1.03, -0.39 -0.61 M0.97 0.67 C1.24 0.26, 2.75 -3.39, 1.89 -3.82 C1.03 -4.24, -2.75 -2.6, -4.2 -1.87 C-5.66 -1.14, -6.51 -0.42, -6.82 0.58 C-7.13 1.59, -7 2.97, -6.07 4.14 C-5.13 5.31, -2.37 6.85, -1.19 7.6 C0 8.35, 1.12 10.14, 1.05 8.67 C0.98 7.19, -1.27 -0.12, -1.61 -1.27" stroke="#000" stroke-width="1" fill="none"></path></g></g><mask></mask><g stroke-linecap="round"><g transform="translate(486.4140605044403 162.90851860306287) rotate(15.883607742937135 3.1917516152742564 2.5474065043603957)"><path d="M-0.61 1.14 C-0.46 0.36, -0.56 -3.06, 0.11 -3.56 C0.78 -4.06, 2.19 -2.88, 3.4 -1.88 C4.62 -0.87, 6.99 1.11, 7.4 2.45 C7.81 3.79, 6.65 5.04, 5.88 6.16 C5.11 7.28, 3.85 8.88, 2.79 9.17 C1.73 9.46, -0.1 9.5, -0.49 7.92 C-0.89 6.33, 0.45 1.06, 0.42 -0.33 M1.27 0.69 C1.35 0.62, -0.93 -1.37, -0.73 -2.09 C-0.53 -2.81, 1.02 -4.05, 2.49 -3.63 C3.97 -3.21, 7.8 -1.3, 8.13 0.42 C8.45 2.14, 5.07 5.34, 4.43 6.71 C3.79 8.07, 5.05 8.1, 4.31 8.64 C3.56 9.17, 0.73 11.49, -0.05 9.91 C-0.83 8.33, -0.56 0.53, -0.38 -0.85" stroke="#000" stroke-width="1" fill="none"></path></g></g><mask></mask><g stroke-linecap="round"><g transform="translate(459.1144986077701 155.6533359186837) rotate(15.883607742937135 16.5027638760738 -8.449503894079498)"><path d="M0.5 -0.3 C0.85 -1.81, -0.95 -4.34, 0.67 -6.42 C2.3 -8.5, 7.53 -11.14, 10.26 -12.77 C12.99 -14.41, 14.37 -16.18, 17.03 -16.22 C19.69 -16.26, 23.97 -13.86, 26.2 -13.02 C28.43 -12.18, 29.11 -13.05, 30.41 -11.16 C31.71 -9.26, 33.8 -3.21, 33.99 -1.66 M-2.67 -2.93 C-2.62 -3.97, -3.96 -7.67, -1.91 -10.02 C0.13 -12.37, 6.34 -16.49, 9.6 -17.03 C12.87 -17.56, 15.43 -12.83, 17.66 -13.24 C19.89 -13.66, 20.38 -20.76, 22.98 -19.51 C25.58 -18.26, 31.08 -9.56, 33.26 -5.75 C35.43 -1.93, 35.43 2.95, 36.04 3.38" stroke="#000" stroke-width="1" fill="none"></path></g></g><mask></mask><g stroke-linecap="round"><g transform="translate(452.2523651637101 163.6824677481447) rotate(15.883607742937135 6.202381054094872 3.0692037778109693)"><path d="M-0.28 1.12 C0.1 1.88, 1.62 3.57, 2.47 4.45 C3.31 5.34, 3.71 6.03, 4.77 6.43 C5.83 6.83, 7.63 7.33, 8.83 6.84 C10.04 6.35, 11.35 4, 12.02 3.49 M1.78 0.65 C2.06 1.11, 1.62 1.65, 2 2.86 C2.37 4.07, 2.83 7.58, 4.03 7.9 C5.22 8.22, 7.52 5.52, 9.18 4.8 C10.85 4.07, 13.74 3.93, 14.01 3.56" stroke="#000" stroke-width="1" fill="none"></path></g></g><mask></mask><g stroke-linecap="round" transform="translate(464.0234603566288 168.22199617649028) rotate(15.883607742937135 2.6581633088977696 1.2737032521801837)"><path d="M3.23 -0.21 C3.68 -0.21, 3.74 0.39, 4.05 0.54 C4.36 0.7, 4.98 0.58, 5.1 0.72 C5.21 0.85, 5.05 1, 4.72 1.35 C4.39 1.71, 3.73 2.74, 3.13 2.84 C2.54 2.94, 1.56 2.17, 1.15 1.95 C0.74 1.72, 0.79 1.73, 0.68 1.48 C0.57 1.23, 0.49 0.56, 0.51 0.45 C0.52 0.34, 0.28 0.86, 0.75 0.81 C1.23 0.77, 2.88 0.39, 3.36 0.16 C3.84 -0.07, 3.79 -0.56, 3.62 -0.59 M2.59 0.72 C2.94 0.76, 3.22 0.86, 3.78 1.04 C4.35 1.23, 5.79 1.7, 5.97 1.83 C6.14 1.96, 5.1 1.85, 4.84 1.82 C4.58 1.8, 5.02 1.59, 4.42 1.7 C3.82 1.81, 2.09 2.28, 1.26 2.48 C0.42 2.68, -0.44 3.05, -0.59 2.89 C-0.75 2.74, -0.08 2.02, 0.32 1.57 C0.72 1.11, 1.49 0.52, 1.82 0.14 C2.14 -0.24, 2.17 -0.61, 2.28 -0.7 C2.38 -0.8, 2.49 -0.53, 2.43 -0.44" stroke="#000" stroke-width="1" fill="none"></path></g><g stroke-linecap="round" transform="translate(456.9600789361824 144.87484715347296) rotate(17.19659740966481 15.010564426772703 15.522288214048984)"><path d="M15.72 0.4 C18.6 0.43, 22.97 1.82, 25.28 3.95 C27.6 6.09, 29.37 9.73, 29.62 13.22 C29.86 16.71, 28.66 22.14, 26.75 24.89 C24.83 27.64, 21.04 29.03, 18.12 29.71 C15.21 30.39, 11.92 30.4, 9.26 29 C6.59 27.59, 3.65 24.05, 2.14 21.28 C0.62 18.51, -0.62 15.42, 0.16 12.38 C0.94 9.35, 3.66 5.23, 6.81 3.08 C9.96 0.93, 16.87 -0.24, 19.07 -0.52 C21.27 -0.8, 20.14 0.89, 20.01 1.4 M16.97 1.4 C20.19 1.82, 25.53 4.52, 27.67 6.89 C29.81 9.26, 29.82 12.68, 29.81 15.61 C29.8 18.55, 29.81 21.96, 27.62 24.5 C25.42 27.04, 20.26 29.88, 16.64 30.85 C13.02 31.82, 8.45 31.9, 5.89 30.32 C3.33 28.74, 1.87 24.81, 1.27 21.39 C0.67 17.97, 1.33 13.18, 2.31 9.77 C3.29 6.36, 4.62 2.63, 7.15 0.93 C9.68 -0.78, 15.92 -0.3, 17.51 -0.43 C19.1 -0.57, 16.67 -0.43, 16.68 0.11" stroke="#000" stroke-width="1" fill="none"></path></g><g stroke-linecap="round" transform="translate(448.301082582478 185.03738635965766) rotate(0 22.400667974058592 13.453462398414217)"><path d="M1.62 -0.64 C12.56 0.63, 26.61 -1.12, 44.13 -1.71 M-0.78 0.51 C10.07 1.08, 20.52 0.06, 45.59 0.48 M42.92 -0.4 C44.82 9.84, 45.65 17.26, 46.24 25.79 M44.66 -0.07 C45.81 9.34, 44.46 20.21, 43.84 27.88 M44.46 26.21 C28.67 26.91, 14.41 25.88, -0.62 26.99 M44.54 26.68 C28.36 25.98, 11.73 26.82, -0.62 26.08 M-0.74 26.46 C-1.67 22.22, 0.15 15.99, -0.54 0.46 M0.03 26.15 C-0.07 15.86, 0.55 5.85, -0.08 0.74" stroke="#000" stroke-width="1" fill="none"></path></g><g stroke-linecap="round" transform="translate(468.67319024514234 195.77540795716556) rotate(0 2.2204743764373234 2.220474376437295)"><path d="M2.26 -0.55 C2.67 -0.41, 3.16 0.71, 3.43 1.06 C3.7 1.42, 3.71 1.23, 3.86 1.57 C4.01 1.92, 4.45 2.76, 4.34 3.13 C4.23 3.5, 3.75 3.52, 3.19 3.79 C2.64 4.06, 1.45 4.82, 1.01 4.73 C0.56 4.64, 0.61 3.88, 0.5 3.24 C0.39 2.61, 0.36 1.42, 0.34 0.92 C0.32 0.42, 0.01 0.31, 0.38 0.23 C0.74 0.15, 2.12 0.45, 2.54 0.42 C2.96 0.39, 2.82 0.16, 2.9 0.06 M2.63 0 C3.1 -0.18, 4.63 -0.24, 4.85 0.16 C5.06 0.56, 4.24 1.63, 3.91 2.4 C3.58 3.16, 3.04 4.32, 2.84 4.74 C2.64 5.17, 2.89 5.07, 2.72 4.93 C2.56 4.78, 2.36 4.35, 1.86 3.88 C1.36 3.41, 0.04 2.62, -0.27 2.11 C-0.57 1.6, -0.13 1.2, 0 0.83 C0.14 0.46, 0.08 -0.08, 0.55 -0.09 C1.02 -0.11, 2.4 0.82, 2.82 0.75 C3.23 0.68, 3.09 -0.41, 3.04 -0.53" stroke="#000" stroke-width="1" fill="none"></path></g><g stroke-linecap="round"><g transform="translate(460.5357693041966 155.99866648755648) rotate(17.19659740966481 4.71467828292657 0.06286237710568798)"><path d="M0.27 -0.21 C1.81 -0.17, 7.61 -0.11, 9.03 -0.13 M-0.51 -0.97 C1.3 -0.79, 8.73 0.5, 10.53 0.7" stroke="#000" stroke-width="1" fill="none"></path></g></g><mask></mask><g stroke-linecap="round"><g transform="translate(473.7518914938847 160.24018216770372) rotate(17.19659740966481 4.71467828292657 0.06286237710568798)"><path d="M-0.4 -0.26 C1.02 -0.28, 7.08 -0.29, 8.78 -0.34 M0.78 -1.04 C2.4 -0.96, 8.68 0.22, 10.15 0.39" stroke="#000" stroke-width="1" fill="none"></path></g></g><mask></mask><g stroke-linecap="round"><g transform="translate(461.0416514207169 155.65807861116144) rotate(17.19659740966481 0.12572475421131912 6.60054959609721)"><path d="M-1.03 -0.73 C-0.77 1.36, 0.85 9.74, 0.9 12.17 M0.64 1.5 C0.85 3.74, 0.12 11.45, 0.3 13.16" stroke="#000" stroke-width="1" fill="none"></path></g></g><mask></mask><g stroke-linecap="round"><g transform="translate(464.9837750571086 156.78987017705458) rotate(17.19659740966481 0 8.109246646633693)"><path d="M0.65 -1.03 C0.67 1.89, -0.7 13.82, -0.94 16.83 M-0.46 1.04 C0.01 3.68, 0.92 12.68, 1.28 15.03" stroke="#000" stroke-width="1" fill="none"></path></g></g><mask></mask><g stroke-linecap="round"><g transform="translate(473.93246088941 159.45620816064013) rotate(17.19659740966481 0.18858713131703553 8.423558532162133)"><path d="M-0.94 0.61 C-1.11 3.73, -0.42 15.03, -0.38 17.68 M0.77 -0.11 C0.93 2.76, 1.78 13.04, 1.93 15.99" stroke="#000" stroke-width="1" fill="none"></path></g></g><mask></mask><g stroke-linecap="round"><g transform="translate(478.3491512663901 160.77737695645357) rotate(17.19659740966481 0.18858713131703553 7.354898121365437)"><path d="M-0.76 0.83 C-0.72 3.11, -1.04 11.91, -0.69 14.32 M1.04 0.22 C1.52 2.62, 1.46 13.48, 1.46 15.65" stroke="#000" stroke-width="1" fill="none"></path></g></g><mask></mask><g stroke-linecap="round"><g transform="translate(462.8329432626223 152.95159886960613) rotate(17.19659740966481 3.897467380552598 -1.5086970505365116)"><path d="M-0.67 -0.25 C0.53 -0.44, 5.32 -0.23, 6.76 -0.64 C8.19 -1.06, 7.91 -2.23, 7.96 -2.74 M0.36 -1.03 C1.56 -1.49, 5.27 -1.28, 6.47 -1.78 C7.67 -2.29, 7.51 -3.79, 7.57 -4.06" stroke="#000" stroke-width="1" fill="none"></path></g></g><mask></mask><g stroke-linecap="round"><g transform="translate(476.28423781735876 153.47090970922847) rotate(17.19659740966481 3.3945683637070942 1.7601465589592635)"><path d="M0.6 0.36 C1.11 0.87, 1.52 2.38, 2.43 2.79 C3.34 3.2, 5.34 2.69, 6.04 2.81 M-0.01 -0.1 C0.48 0.19, 0.68 1.04, 1.92 1.61 C3.17 2.17, 6.67 2.84, 7.46 3.27" stroke="#000" stroke-width="1" fill="none"></path></g></g><mask></mask><g stroke-linecap="round"><g transform="translate(486.9633156714373 182.50629188640465) rotate(0 -15.655663827005355 -2.6124785708933302)"><path d="M0.26 0.44 C-0.53 -0.22, -2.87 -2.46, -3.81 -3.41 C-4.75 -4.35, -4.81 -5.29, -5.37 -5.24 C-5.92 -5.19, -5.71 -3.74, -7.14 -3.11 C-8.57 -2.47, -11.75 -1.64, -13.95 -1.42 C-16.15 -1.19, -18.65 -1.48, -20.33 -1.74 C-22.02 -2, -23.07 -2.33, -24.06 -2.97 C-25.06 -3.6, -25.8 -5.38, -26.32 -5.56 C-26.84 -5.73, -26.22 -4.96, -27.16 -4.02 C-28.09 -3.08, -31.64 -0.83, -31.94 0.08 C-32.24 0.98, -30.32 1.29, -28.96 1.41 C-27.6 1.53, -24.75 1.02, -23.76 0.79 M-1.06 -0.37 C-1.58 -0.98, -0.85 -1.86, -1.72 -2.46 C-2.59 -3.06, -5.46 -4.06, -6.26 -3.95 C-7.06 -3.83, -5 -2.33, -6.53 -1.77 C-8.06 -1.2, -13.32 -0.48, -15.45 -0.57 C-17.57 -0.66, -17.41 -1.76, -19.27 -2.3 C-21.14 -2.84, -25.28 -3.2, -26.64 -3.81 C-28 -4.42, -27.16 -6.21, -27.43 -5.94 C-27.71 -5.68, -27.63 -3.15, -28.31 -2.23 C-28.99 -1.3, -31.35 -0.63, -31.5 -0.37 C-31.66 -0.11, -30.33 -0.83, -29.25 -0.66 C-28.16 -0.48, -25.55 0.72, -25 0.67" stroke="#000" stroke-width="1" fill="none"></path></g></g><mask></mask><g stroke-linecap="round"><g transform="translate(493.4848321203791 212.0884042873331) rotate(358.16007135453435 -23.054454427165638 1.291683874574602)"><path d="M-2.78 -2.63 C-1.94 -2.72, 4.1 -0.68, 5.68 0.51 C7.25 1.69, 7.9 3.65, 6.65 4.48 C5.41 5.3, 2.04 5.27, -1.81 5.44 C-5.65 5.62, -12.07 5.43, -16.41 5.53 C-20.76 5.63, -22.69 6.6, -27.87 6.06 C-33.05 5.53, -43.79 3.71, -47.49 2.32 C-51.18 0.93, -49.59 -1.68, -50.05 -2.27 C-50.51 -2.86, -49.99 -1.86, -50.22 -1.24 M0.91 2.11 C1.27 2.41, 2.33 4.51, 3.14 4.08 C3.94 3.64, 6.47 0.11, 5.74 -0.48 C5 -1.08, 1.7 -0.84, -1.27 0.5 C-4.24 1.85, -6.95 6.88, -12.09 7.6 C-17.23 8.32, -26.44 6.25, -32.12 4.82 C-37.8 3.39, -43 0.54, -46.18 -0.97 C-49.37 -2.48, -51.2 -3.65, -51.22 -4.24 C-51.25 -4.83, -46.35 -5.51, -46.33 -4.49" stroke="#000" stroke-width="1" fill="none"></path></g></g><mask></mask><g transform="translate(433.3693273817297 230.1408264160156) rotate(0 40 9.199999999999989)"><text x="0" y="14.720312499999999" font-family="Helvetica, Segoe UI Emoji" font-size="16px" fill="#1e1e1e" text-anchor="start" style="white-space: pre;" direction="ltr" dominant-baseline="alphabetic">渲染主线程</text></g><g mask="url(#mask-_uTMjPKI3TJBTHpgymP5I)" stroke-linecap="round"><g transform="translate(380.5669592176672 215.7150146484375) rotate(0 0.5191650390625 73.34437561035156)"><path d="M0 0 C0.17 24.45, 0.87 122.24, 1.04 146.69" stroke="#1e1e1e" stroke-width="1.5" fill="none" stroke-dasharray="1.5 7"></path></g><g transform="translate(380.5669592176672 215.7150146484375) rotate(0 0.5191650390625 73.34437561035156)"><path d="M-7.68 123.26 C-5.05 130.32, -2.43 137.38, 1.04 146.69" stroke="#1e1e1e" stroke-width="1.5" fill="none" stroke-dasharray="1.5 5"></path></g><g transform="translate(380.5669592176672 215.7150146484375) rotate(0 0.5191650390625 73.34437561035156)"><path d="M9.42 123.14 C6.9 130.23, 4.37 137.33, 1.04 146.69" stroke="#1e1e1e" stroke-width="1.5" fill="none" stroke-dasharray="1.5 5"></path></g></g><mask id="mask-_uTMjPKI3TJBTHpgymP5I"><rect x="0" y="0" fill="#fff" width="481.6052892957922" height="462.4037658691406"></rect><rect x="349.0861242567298" y="279.85939025878906" fill="#000" width="64" height="18.4" opacity="1"></rect></mask><g transform="translate(349.0861242567298 279.859390258789) rotate(0 32 9.199999999999989)"><text x="32" y="14.720312499999999" font-family="Helvetica, Segoe UI Emoji" font-size="16px" fill="#1e1e1e" text-anchor="middle" style="white-space: pre;" direction="ltr" dominant-baseline="alphabetic">任务完成</text></g><g mask="url(#mask-cXSdD8iMtbizCrVQCK9o7)" stroke-linecap="round"><g transform="translate(154.87549193251095 86.44060058593749) rotate(0 109.82467651367188 2.5977935791015625)"><path d="M0 0 C19.62 -11.21, 81.13 -79.31, 117.74 -67.24 C154.34 -55.17, 202.66 49.16, 219.65 72.44" stroke="#1e1e1e" stroke-width="1.5" fill="none" stroke-dasharray="1.5 7"></path></g><g transform="translate(154.87549193251095 86.44060058593749) rotate(0 109.82467651367188 2.5977935791015625)"><path d="M200.32 56.58 C205.1 60.49, 209.87 64.41, 219.65 72.44" stroke="#1e1e1e" stroke-width="1.5" fill="none" stroke-dasharray="1.5 5"></path></g><g transform="translate(154.87549193251095 86.44060058593749) rotate(0 109.82467651367188 2.5977935791015625)"><path d="M215.04 47.86 C216.18 53.94, 217.32 60.01, 219.65 72.44" stroke="#1e1e1e" stroke-width="1.5" fill="none" stroke-dasharray="1.5 5"></path></g></g><mask id="mask-cXSdD8iMtbizCrVQCK9o7"><rect x="0" y="0" fill="#fff" width="474.5248449598547" height="326.1173889160156"></rect><rect x="240.61169798719845" y="10" fill="#000" width="64" height="18.4" opacity="1"></rect></mask><g transform="translate(240.61169798719857 10) rotate(0 24.088470458984375 78.32421899185519)"><text x="32" y="14.720312499999999" font-family="Helvetica, Segoe UI Emoji" font-size="16px" fill="#1e1e1e" text-anchor="middle" style="white-space: pre;" direction="ltr" dominant-baseline="alphabetic">取出任务</text></g><g mask="url(#mask-q0Oh08vT9hTClUSAqePG1)" stroke-linecap="round"><g transform="translate(17.194888905167204 414.8716613769531) rotate(0 65.889892578125 -57.827423095703125)"><path d="M0 0 C12.84 -6.08, 55.06 -17.22, 77.03 -36.5 C98.99 -55.77, 122.65 -102.46, 131.78 -115.65" stroke="#1e1e1e" stroke-width="1.5" fill="none" stroke-dasharray="1.5 7"></path></g><g transform="translate(17.194888905167204 414.8716613769531) rotate(0 65.889892578125 -57.827423095703125)"><path d="M126.9 -91.14 C128.14 -97.39, 129.39 -103.65, 131.78 -115.65" stroke="#1e1e1e" stroke-width="1.5" fill="none" stroke-dasharray="1.5 5"></path></g><g transform="translate(17.194888905167204 414.8716613769531) rotate(0 65.889892578125 -57.827423095703125)"><path d="M112.28 -100.01 C117.26 -104, 122.23 -107.99, 131.78 -115.65" stroke="#1e1e1e" stroke-width="1.5" fill="none" stroke-dasharray="1.5 5"></path></g></g><mask id="mask-q0Oh08vT9hTClUSAqePG1"><rect x="0" y="0" fill="#fff" width="248.9746740614172" height="630.5265075683594"></rect><rect x="30.222965077042204" y="369.1733093261719" fill="#000" width="128" height="18.4" opacity="1"></rect></mask><g transform="translate(30.222965077042204 369.1733093261719) rotate(0 52.86181640625 -12.12907104492183)"><text x="64" y="14.720312499999999" font-family="Helvetica, Segoe UI Emoji" font-size="16px" fill="#1e1e1e" text-anchor="middle" style="white-space: pre;" direction="ltr" dominant-baseline="alphabetic">其他线程创建任务</text></g><g transform="translate(16.609317616104704 224.6256896972656) rotate(0 32 9.199999999999989)"><text x="0" y="14.720312499999999" font-family="Helvetica, Segoe UI Emoji" font-size="16px" fill="#1e1e1e" text-anchor="start" style="white-space: pre;" direction="ltr" dominant-baseline="alphabetic">消息队列</text></g><g stroke-linecap="round" transform="translate(32.53587566398369 142.78004277059387) rotate(343.58593648075345 14.842359783777567 15.348349321860894)"><path d="M15.31 0.28 C18.38 0.27, 22.42 1.73, 24.79 3.85 C27.15 5.96, 29.09 9.64, 29.5 12.98 C29.91 16.33, 28.89 21.06, 27.27 23.92 C25.65 26.78, 22.78 29.17, 19.78 30.16 C16.78 31.14, 12.33 31.07, 9.26 29.83 C6.19 28.59, 2.9 25.65, 1.36 22.71 C-0.18 19.78, -0.67 15.43, 0.04 12.22 C0.74 9.01, 2.9 5.48, 5.59 3.48 C8.29 1.47, 14.26 0.69, 16.2 0.19 C18.14 -0.3, 17.24 0.2, 17.24 0.51 M16.4 0.04 C19.4 0.11, 23.49 2.69, 25.6 4.96 C27.72 7.23, 28.87 10.4, 29.1 13.68 C29.32 16.96, 28.77 21.9, 26.96 24.65 C25.15 27.41, 21.28 29.41, 18.24 30.22 C15.21 31.03, 11.46 30.93, 8.75 29.52 C6.04 28.12, 3.31 24.89, 1.96 21.78 C0.62 18.67, 0.07 13.98, 0.68 10.86 C1.29 7.74, 3.05 4.77, 5.64 3.05 C8.22 1.34, 14.38 0.92, 16.19 0.57 C18.01 0.22, 16.6 0.75, 16.53 0.96" stroke="#000" stroke-width="1" fill="none"></path></g><g stroke-linecap="round"><g transform="translate(33.82986137795058 161.30309107118882) rotate(343.58593648075345 -3.3170425274351487 2.586168750203683)"><path d="M0.1 -0.38 C0.05 -1.04, 0.19 -3.22, -0.42 -3.67 C-1.02 -4.13, -2.44 -3.97, -3.53 -3.12 C-4.61 -2.28, -6.46 -0.1, -6.95 1.4 C-7.44 2.89, -7.23 4.61, -6.46 5.85 C-5.7 7.09, -3.46 8.35, -2.34 8.83 C-1.21 9.32, -0.14 10.3, 0.3 8.76 C0.75 7.23, 0.33 1.17, 0.33 -0.35 M-0.52 0.62 C-0.39 0.01, 1.08 -2.54, 0.55 -3.07 C0.01 -3.6, -2.47 -3.39, -3.72 -2.57 C-4.97 -1.74, -6.61 0.44, -6.94 1.87 C-7.26 3.29, -6.3 4.85, -5.67 5.97 C-5.04 7.1, -4.23 8.25, -3.17 8.63 C-2.11 9, 0.16 9.76, 0.69 8.21 C1.23 6.65, 0.2 0.6, 0.04 -0.69" stroke="#000" stroke-width="1" fill="none"></path></g></g><mask></mask><g stroke-linecap="round"><g transform="translate(62.19952979597929 150.258827114028) rotate(343.58593648075345 3.2403184461157934 2.586168750203683)"><path d="M-0.53 -0.19 C-0.51 -0.72, -0.49 -3.09, 0.19 -3.57 C0.87 -4.06, 2.53 -3.92, 3.54 -3.1 C4.54 -2.28, 5.74 -0.24, 6.2 1.35 C6.66 2.95, 6.86 5.29, 6.29 6.47 C5.73 7.65, 3.84 8.12, 2.83 8.43 C1.82 8.73, 0.64 9.77, 0.22 8.31 C-0.2 6.84, 0.3 1.08, 0.3 -0.35 M0.2 -0.76 C0.16 -1.18, -0.57 -2.62, -0.09 -2.92 C0.39 -3.21, 2.05 -3.32, 3.09 -2.53 C4.12 -1.75, 5.66 0.5, 6.11 1.8 C6.56 3.1, 6.51 4.22, 5.81 5.25 C5.11 6.28, 2.76 7.35, 1.9 8.01 C1.05 8.66, 1.01 10.63, 0.69 9.18 C0.37 7.73, 0.18 0.74, -0.01 -0.68" stroke="#000" stroke-width="1" fill="none"></path></g></g><mask></mask><g stroke-linecap="round"><g transform="translate(26.693752088233055 153.18967888381695) rotate(343.58593648075345 16.753875816536777 -8.826706386564695)"><path d="M0.65 -0.19 C0.88 -1.64, -0.86 -6.48, 0.24 -9.14 C1.34 -11.79, 4.34 -14.86, 7.24 -16.09 C10.14 -17.32, 14.46 -16.61, 17.66 -16.53 C20.85 -16.45, 24.02 -16.43, 26.39 -15.62 C28.76 -14.81, 30.67 -13.19, 31.87 -11.67 C33.08 -10.15, 33.25 -8.2, 33.6 -6.49 C33.95 -4.78, 33.86 -2.35, 33.96 -1.4 M-0.47 -1.33 C-0.33 -2.56, -2.63 -5.41, -0.94 -7.67 C0.76 -9.93, 6.48 -13.09, 9.69 -14.9 C12.9 -16.7, 15.74 -18.46, 18.32 -18.5 C20.89 -18.54, 23.19 -16.62, 25.14 -15.11 C27.09 -13.6, 28.43 -11.21, 30.01 -9.45 C31.58 -7.7, 34.06 -5.81, 34.59 -4.57 C35.12 -3.33, 33.45 -2.41, 33.17 -2.01" stroke="#000" stroke-width="1" fill="none"></path></g></g><mask></mask><g stroke-linecap="round"><g transform="translate(33.18328389840781 167.51742902225175) rotate(343.58593648075345 6.296758696148061 2.979716168712912)"><path d="M-0.2 -0.06 C-0.13 0.44, -0.06 1.97, 0.73 2.94 C1.53 3.92, 3.2 5.26, 4.57 5.78 C5.95 6.3, 7.57 6.39, 8.96 6.07 C10.35 5.74, 12.27 4.18, 12.93 3.81 M0.7 -0.57 C0.92 0.02, 1.15 2.66, 1.76 3.59 C2.38 4.51, 3.18 4.47, 4.41 4.98 C5.65 5.48, 7.84 6.82, 9.17 6.62 C10.51 6.43, 11.95 4.11, 12.43 3.81" stroke="#000" stroke-width="1" fill="none"></path></g></g><mask></mask><g stroke-linecap="round" transform="translate(45.290947084603204 167.32219166240287) rotate(343.58593648075345 2.698610869777724 1.2930843751018415)"><path d="M3.06 0.21 C3.52 0.23, 4.08 0.39, 4.44 0.58 C4.79 0.77, 5.13 1.06, 5.18 1.33 C5.23 1.61, 5.04 2.04, 4.73 2.26 C4.43 2.48, 3.85 2.6, 3.36 2.64 C2.87 2.67, 2.29 2.58, 1.79 2.49 C1.29 2.41, 0.6 2.35, 0.33 2.12 C0.07 1.9, 0.04 1.42, 0.22 1.13 C0.4 0.84, 0.93 0.53, 1.4 0.37 C1.87 0.21, 2.71 0.25, 3.03 0.15 C3.34 0.06, 3.32 -0.19, 3.3 -0.2 M3.11 0.16 C3.78 0.16, 4.64 0.22, 5.04 0.33 C5.44 0.44, 5.63 0.52, 5.52 0.83 C5.42 1.15, 4.78 1.89, 4.43 2.23 C4.07 2.57, 3.82 2.8, 3.39 2.9 C2.95 3, 2.35 3, 1.8 2.85 C1.25 2.69, 0.32 2.34, 0.09 1.97 C-0.14 1.6, 0.27 1.02, 0.44 0.65 C0.61 0.29, 0.59 -0.14, 1.1 -0.22 C1.6 -0.3, 3.1 0.1, 3.48 0.18 C3.86 0.25, 3.4 0.22, 3.37 0.23" stroke="#000" stroke-width="1" fill="none"></path></g><g stroke-linecap="round"><g transform="translate(38.02540943887823 159.6743278220494) rotate(0 3.2564842076046716 -2.1375082036066715)"><path d="M0.23 0.33 C0.38 -0.14, 0.26 -2.07, 0.6 -2.88 C0.95 -3.69, 1.53 -4.31, 2.31 -4.5 C3.08 -4.69, 4.55 -4.52, 5.27 -4.01 C6 -3.51, 6.4 -1.93, 6.65 -1.48 M-0.07 0.19 C0.05 -0.38, 0.01 -2.73, 0.39 -3.47 C0.77 -4.2, 1.35 -4.17, 2.19 -4.23 C3.03 -4.29, 4.76 -4.27, 5.45 -3.81 C6.13 -3.34, 6.16 -1.81, 6.28 -1.44" stroke="#000" stroke-width="1" fill="none"></path></g></g><mask></mask><g stroke-linecap="round" transform="translate(25.536493801918937 182.06397615140423) rotate(0 22.741524526625994 13.658175080131087)"><path d="M0 0 C16.83 0.53, 32.64 0.47, 45.48 0 M0 0 C11.09 0.12, 21.7 0.52, 45.48 0 M45.48 0 C45.85 9.13, 46.13 17.51, 45.48 27.32 M45.48 0 C45.19 7.97, 45.49 16.66, 45.48 27.32 M45.48 27.32 C35.3 28.07, 24.34 27.61, 0 27.32 M45.48 27.32 C35.56 27.73, 25.78 27.79, 0 27.32 M0 27.32 C-0.56 19.5, -0.9 13.12, 0 0 M0 27.32 C0.2 18.32, -0.01 9.45, 0 0" stroke="#000" stroke-width="1" fill="none"></path></g><g stroke-linecap="round" transform="translate(46.21859072001405 192.96539131500413) rotate(0 2.254261906429406 2.254261906429406)"><path d="M2.32 0.21 C2.82 0.22, 3.46 0.44, 3.87 0.75 C4.28 1.07, 4.73 1.59, 4.79 2.11 C4.84 2.63, 4.51 3.44, 4.2 3.86 C3.89 4.29, 3.39 4.54, 2.94 4.63 C2.49 4.73, 1.95 4.66, 1.49 4.45 C1.04 4.23, 0.4 3.85, 0.2 3.34 C0 2.84, 0.2 1.92, 0.31 1.43 C0.42 0.93, 0.45 0.64, 0.86 0.37 C1.26 0.09, 2.47 -0.18, 2.75 -0.22 C3.03 -0.26, 2.59 -0.01, 2.56 0.11 M1.77 0.15 C2.22 0.24, 3.24 0.49, 3.75 0.83 C4.25 1.17, 4.73 1.76, 4.8 2.21 C4.86 2.65, 4.35 3.19, 4.12 3.5 C3.88 3.82, 3.86 4.01, 3.4 4.09 C2.95 4.17, 1.84 4.05, 1.4 3.97 C0.96 3.89, 0.95 3.91, 0.77 3.6 C0.6 3.3, 0.32 2.6, 0.36 2.12 C0.41 1.63, 0.73 0.98, 1.05 0.69 C1.37 0.39, 2.14 0.48, 2.27 0.37 C2.41 0.25, 1.91 0.08, 1.86 0" stroke="#000" stroke-width="1" fill="none"></path></g><g stroke-linecap="round"><g transform="translate(24.848006118000967 136.56169162352563) rotate(0 -0.9487295595850469 -5.713661175269522)"><path d="M0.3 -0.35 C0.77 -0.53, 2.74 -0.97, 3.16 -1.43 C3.59 -1.9, 2.84 -2.51, 2.84 -3.12 C2.84 -3.72, 3.23 -4.08, 3.19 -5.09 C3.14 -6.1, 3.26 -8.14, 2.59 -9.17 C1.92 -10.19, 0.37 -11.21, -0.83 -11.25 C-2.03 -11.29, -3.98 -10.5, -4.61 -9.41 C-5.24 -8.32, -4.98 -5.94, -4.61 -4.71 C-4.25 -3.48, -3.03 -2.58, -2.42 -2.03 C-1.8 -1.48, -1.34 -1.84, -0.94 -1.43 C-0.55 -1.02, -0.15 0.17, -0.06 0.42 M-0.21 0.67 C0.18 0.59, 2.36 -0.33, 2.84 -0.85 C3.32 -1.38, 2.57 -1.64, 2.66 -2.5 C2.75 -3.36, 3.49 -4.94, 3.37 -6.01 C3.25 -7.08, 2.79 -7.96, 1.96 -8.9 C1.13 -9.83, -0.57 -11.47, -1.59 -11.63 C-2.61 -11.79, -3.59 -10.98, -4.15 -9.85 C-4.71 -8.72, -5.13 -6.1, -4.95 -4.87 C-4.77 -3.64, -3.75 -2.99, -3.05 -2.46 C-2.36 -1.94, -1.31 -2.04, -0.79 -1.73 C-0.27 -1.42, -0.15 -0.85, 0.05 -0.58" stroke="#000" stroke-width="1" fill="none"></path></g></g><mask></mask><g stroke-linecap="round"><g transform="translate(20.693248638231353 136.30059570101275) rotate(0 -1.4653081329107636 2.41066821865968)"><path d="M0.13 -0.15 C-0.35 0.69, -2.22 3.96, -2.72 4.84 M-0.23 -0.53 C-0.76 0.39, -2.42 4.45, -2.88 5.3" stroke="#000" stroke-width="1" fill="none"></path></g></g><mask></mask><g stroke-linecap="round"><g transform="translate(16.47271038665656 131.22123703642063) rotate(0 -3.166956287258756 0.14180401286233746)"><path d="M0.21 0.02 C-0.85 0.14, -5.16 0.53, -6.24 0.59 M-0.1 -0.28 C-1.22 -0.23, -5.41 0.11, -6.47 0.12" stroke="#000" stroke-width="1" fill="none"></path></g></g><mask></mask><g stroke-linecap="round"><g transform="translate(18.703996013769938 125.2419690058423) rotate(0 -2.3161322100847883 -2.0325241843601134)"><path d="M0.09 0.3 C-0.71 -0.36, -3.86 -3.24, -4.59 -3.95 M-0.29 0.15 C-1.15 -0.62, -4.17 -3.73, -4.84 -4.52" stroke="#000" stroke-width="1" fill="none"></path></g></g><mask></mask><g stroke-linecap="round"><g transform="translate(25.885155930047517 122.65734077982154) rotate(0 0.519948047161904 -2.8833482615341097)"><path d="M0.04 0.11 C0.26 -0.88, 1.17 -4.71, 1.37 -5.65 M-0.36 -0.14 C-0.18 -1.08, 1.01 -5.21, 1.26 -6.21" stroke="#000" stroke-width="1" fill="none"></path></g></g><mask></mask><g stroke-linecap="round"><g transform="translate(30.62636661116494 128.78722242847306) rotate(0 3.261492295833648 -0.09453600857489164)"><path d="M0.33 0.12 C1.45 0.1, 5.68 0.08, 6.74 0.03 M0.07 -0.13 C1.15 -0.26, 5.49 -0.54, 6.57 -0.49" stroke="#000" stroke-width="1" fill="none"></path></g></g><mask></mask><g stroke-linecap="round"><g transform="translate(23.171124629505357 128.66368164573709) rotate(0 0.10186860113105922 1.8222770266239934)"><path d="M0.21 0.21 C0.1 0.54, -0.46 1.43, -0.35 2.04 C-0.24 2.66, 0.73 3.65, 0.87 3.89 M-0.1 0.02 C-0.28 0.39, -0.68 1.94, -0.54 2.49 C-0.4 3.04, 0.56 3.12, 0.72 3.33" stroke="#000" stroke-width="1" fill="none"></path></g></g><mask></mask><g stroke-linecap="round"><g transform="translate(25.199496741887287 138.42937844244506) rotate(0 1.6739553859855505 -0.8372009200823811)"><path d="M0.16 -0.01 C0.71 -0.28, 3.01 -1.13, 3.5 -1.43 M-0.18 -0.32 C0.31 -0.71, 2.63 -1.73, 3.3 -1.92" stroke="#000" stroke-width="1" fill="none"></path></g></g><mask></mask><g stroke-linecap="round"><g transform="translate(26.56942690646156 139.30982716967998) rotate(0 1.087164098611197 -0.6144840557367672)"><path d="M0.15 0.25 C0.45 0.02, 1.59 -1.15, 1.93 -1.35 M-0.2 0.07 C0.2 -0.11, 2.25 -0.69, 2.59 -0.96" stroke="#000" stroke-width="1" fill="none"></path></g></g><mask></mask><g stroke-linecap="round"><g transform="translate(27.01533593985073 139.84499561546858) rotate(0 0.8035560728865789 -0.5199480471618756)"><path d="M-0.25 -0.12 C-0.01 -0.29, 1.3 -0.62, 1.57 -0.77 M0.27 -0.49 C0.44 -0.77, 0.97 -1.23, 1.27 -1.25" stroke="#000" stroke-width="1" fill="none"></path></g></g><mask></mask><g stroke-linecap="round"><g transform="translate(54.28892088009616 156.28808328309498) rotate(332.851350188029 -3.0941529120256064 -2.1375082036066715)"><path d="M-0.04 0.27 C-0.11 -0.2, -0.39 -2.18, -0.7 -2.91 C-1.02 -3.65, -1.29 -4.01, -1.93 -4.17 C-2.58 -4.32, -3.88 -4.28, -4.57 -3.85 C-5.27 -3.42, -5.78 -2.05, -6.1 -1.61 M-0.49 0.1 C-0.43 -0.29, 0.24 -1.63, -0.03 -2.45 C-0.31 -3.26, -1.41 -4.61, -2.13 -4.8 C-2.86 -4.98, -3.64 -4.08, -4.37 -3.56 C-5.09 -3.03, -6.17 -1.99, -6.48 -1.64" stroke="#000" stroke-width="1" fill="none"></path></g></g><mask></mask><g stroke-linecap="round"><g transform="translate(70.68436617928705 209.72310333199846) rotate(0 -23.405259227561146 1.0725073962777287)"><path d="M-0.83 0.11 C0.27 0.1, 5.38 0.45, 6.51 0.84 C7.64 1.22, 7.27 2.3, 5.95 2.44 C4.63 2.58, 2.05 1.51, -1.43 1.68 C-4.9 1.85, -10.57 3.12, -14.91 3.48 C-19.25 3.84, -22.11 3.83, -27.47 3.84 C-32.82 3.85, -42.71 4.1, -47.04 3.52 C-51.37 2.93, -53.15 1.18, -53.43 0.33 C-53.71 -0.52, -49.33 -1.2, -48.73 -1.58 M0.93 -0.87 C1.91 -1.34, 4.87 -1.85, 5.65 -1.1 C6.44 -0.34, 6.75 3.08, 5.64 3.65 C4.53 4.21, 2.13 2.21, -1.02 2.28 C-4.16 2.35, -9.09 3.9, -13.25 4.06 C-17.4 4.22, -19.87 3.46, -25.94 3.23 C-32 3, -44.86 3.18, -49.64 2.68 C-54.42 2.18, -54.55 0.59, -54.61 0.21 C-54.67 -0.18, -50.9 0.29, -50 0.37" stroke="#000" stroke-width="1" fill="none"></path></g></g><mask></mask><g stroke-linecap="round"><g transform="translate(46.348626944950865 179.9335564390105) rotate(0 1.4487816679973093 -3.327438436811434)"><path d="M0.08 0.17 C-1.83 0.17, -9.08 0.14, -11.85 0.07 C-14.63 -0.01, -17.03 0.12, -16.58 -0.28 C-16.13 -0.69, -11.08 -1.74, -9.15 -2.37 C-7.23 -3, -6.97 -3.87, -5.04 -4.06 C-3.1 -4.25, 0.16 -3.56, 2.47 -3.52 C4.78 -3.47, 6.74 -3.12, 8.82 -3.77 C10.91 -4.42, 13.63 -6.96, 14.97 -7.41 C16.31 -7.87, 15.98 -7.47, 16.83 -6.49 C17.69 -5.51, 20.61 -2.75, 20.11 -1.56 C19.6 -0.36, 15.79 0.41, 13.81 0.69 C11.83 0.97, 9.19 0.18, 8.22 0.13 M-0.54 -0.22 C-2.46 -0.14, -9.36 0.66, -12.08 0.72 C-14.8 0.77, -17.33 0.51, -16.86 0.09 C-16.39 -0.32, -11.14 -1.15, -9.28 -1.78 C-7.41 -2.41, -7.47 -3.36, -5.65 -3.69 C-3.83 -4.02, -0.81 -3.66, 1.64 -3.76 C4.09 -3.86, 6.87 -3.62, 9.05 -4.28 C11.22 -4.94, 13.25 -7.48, 14.68 -7.71 C16.12 -7.95, 16.93 -6.7, 17.66 -5.7 C18.39 -4.69, 19.63 -2.82, 19.04 -1.67 C18.46 -0.51, 16.03 0.96, 14.15 1.24 C12.26 1.52, 8.75 0.17, 7.75 0" stroke="#000" stroke-width="1" fill="none"></path></g></g><mask></mask></svg>