<svg version="1.1" xmlns="http://www.w3.org/2000/svg" viewBox="0 0 627.7702971510446 537.0494948118521" width="627.7702971510446" height="537.0494948118521">
  <!-- svg-source:excalidraw -->
  
  <defs>
    <style class="style-fonts">
      @font-face {
        font-family: "Virgil";
        src: url("https://excalidraw.com/Virgil.woff2");
      }
      @font-face {
        font-family: "Cascadia";
        src: url("https://excalidraw.com/Cascadia.woff2");
      }
      @font-face {
        font-family: "Assistant";
        src: url("https://excalidraw.com/Assistant-Regular.woff2");
      }
    </style>
    
  </defs>
  <g stroke-linecap="round"><g transform="translate(11.018649365380384 328.5845772654699) rotate(0 -0.017023539405499832 98.53956047438197)"><path d="M-1.02 -0.02 C-0.88 33.03, -0.26 165.23, 0.01 198.16 M0.65 -1.08 C0.7 31.68, -0.83 163.84, -0.91 196.61" stroke="#1e1e1e" stroke-width="2" fill="none"></path></g></g><mask></mask><g stroke-linecap="round"><g transform="translate(92.95372542033533 329.9782428974419) rotate(0 -0.017023539405499832 98.53956047438197)"><path d="M-0.18 1.12 C0.12 33.8, 0.45 163.22, 0.65 196.07 M-1.73 0.66 C-1.43 33.46, -0.36 164.44, 0.06 197.07" stroke="#1e1e1e" stroke-width="2" fill="none"></path></g></g><mask></mask><g stroke-linecap="round" transform="translate(20.897143777646647 361.66852460621294) rotate(0 29.928006991904283 14.926572533161448)"><path d="M7.46 0 C24.92 1.58, 42.5 1.02, 52.39 0 M7.46 0 C18.67 -0.66, 28.76 0.11, 52.39 0 M52.39 0 C58.02 -1.25, 60 2.79, 59.86 7.46 M52.39 0 C58.81 2.2, 58.26 2.16, 59.86 7.46 M59.86 7.46 C60.48 12.35, 60.06 14.64, 59.86 22.39 M59.86 7.46 C60.09 11.04, 60.08 15.14, 59.86 22.39 M59.86 22.39 C60.08 29.29, 58.14 31.18, 52.39 29.85 M59.86 22.39 C60.97 26.2, 55.98 28.49, 52.39 29.85 M52.39 29.85 C39.37 29.75, 25.39 29.59, 7.46 29.85 M52.39 29.85 C43.92 29.68, 34.88 29.32, 7.46 29.85 M7.46 29.85 C3 28.83, 0.62 28.04, 0 22.39 M7.46 29.85 C2.22 31.21, -0.71 28.64, 0 22.39 M0 22.39 C0.43 17.31, -0.63 14.22, 0 7.46 M0 22.39 C0.04 18.9, 0.67 15.97, 0 7.46 M0 7.46 C-1.15 0.99, 4.05 -1.68, 7.46 0 M0 7.46 C-1.43 2.64, 4.07 0.25, 7.46 0" stroke="#1e1e1e" stroke-width="1" fill="none"></path></g><g transform="translate(37.18515137990249 368.74798472194095) rotate(0 13.639999389648409 7.847112417433436)"><text x="13.639999389648438" y="12.555646413831614" font-family="Helvetica, Segoe UI Emoji" font-size="13.647152030319045px" fill="#1e1e1e" text-anchor="middle" style="white-space: pre;" direction="ltr" dominant-baseline="alphabetic">任务</text></g><g stroke-linecap="round" transform="translate(20.613293981805896 456.62600882861443) rotate(0 29.928006991904283 14.926572533161448)"><path d="M7.46 0 C22.49 -1.34, 38.35 0.52, 52.39 0 M7.46 0 C23.12 0.41, 40.69 -0.44, 52.39 0 M52.39 0 C58.07 0.6, 59.87 1.48, 59.86 7.46 M52.39 0 C56.99 -1.05, 60 1.43, 59.86 7.46 M59.86 7.46 C60.49 11.67, 59.49 15.11, 59.86 22.39 M59.86 7.46 C60.27 10.49, 59.67 14.91, 59.86 22.39 M59.86 22.39 C61.06 25.61, 55.59 28.98, 52.39 29.85 M59.86 22.39 C61.26 26.14, 55.93 28.57, 52.39 29.85 M52.39 29.85 C36.61 30.28, 19.07 31.96, 7.46 29.85 M52.39 29.85 C43.6 29.92, 33.72 30.55, 7.46 29.85 M7.46 29.85 C1.92 29.19, 1.53 26.54, 0 22.39 M7.46 29.85 C3.47 31.27, -2.13 25.9, 0 22.39 M0 22.39 C0.18 20.36, 0.99 15.94, 0 7.46 M0 22.39 C0.15 18.29, -0.08 15.12, 0 7.46 M0 7.46 C0.02 1.31, 4.35 -1.32, 7.46 0 M0 7.46 C0.55 0.73, 1.18 -1.91, 7.46 0" stroke="#1e1e1e" stroke-width="1" fill="none"></path></g><g transform="translate(36.90130158406174 463.70546894434244) rotate(0 13.639999389648409 7.847112417433436)"><text x="13.639999389648438" y="12.555646413831614" font-family="Helvetica, Segoe UI Emoji" font-size="13.647152030319045px" fill="#1e1e1e" text-anchor="middle" style="white-space: pre;" direction="ltr" dominant-baseline="alphabetic">任务</text></g><g stroke-linecap="round"><g transform="translate(174.2401143680146 331.8024944607481) rotate(0 -0.01659061450129684 96.03360511692617)"><path d="M1.18 -0.88 C1.21 31.09, -0.36 160.42, -0.65 192.49 M0.34 1.27 C0.84 32.81, 2.07 158.7, 1.74 190.59" stroke="#1e1e1e" stroke-width="2" fill="none"></path></g></g><mask></mask><g stroke-linecap="round"><g transform="translate(254.09150300022281 333.1607178415052) rotate(0 -0.01659061450129684 96.03360511692617)"><path d="M-0.88 -0.62 C-0.93 31.1, 0.33 159.22, 0.39 191.51 M0.86 1.67 C0.63 34.06, 0.07 161.14, -0.34 192.76" stroke="#1e1e1e" stroke-width="2" fill="none"></path></g></g><mask></mask><g stroke-linecap="round" transform="translate(183.86738921042638 364.0450853484565) rotate(0 29.1669091232078 14.546975504030684)"><path d="M7.27 0 C25.41 -0.7, 41.25 1.99, 51.06 0 M7.27 0 C19.94 -0.47, 31.51 -0.88, 51.06 0 M51.06 0 C55.28 -1.37, 56.69 4.27, 58.33 7.27 M51.06 0 C55.14 2.29, 58.16 0.35, 58.33 7.27 M58.33 7.27 C57.76 12.98, 58.11 17.08, 58.33 21.82 M58.33 7.27 C58.4 10.61, 58.98 13.96, 58.33 21.82 M58.33 21.82 C56.62 27.2, 54.25 28.3, 51.06 29.09 M58.33 21.82 C58.68 27.92, 56.65 27.39, 51.06 29.09 M51.06 29.09 C36.09 30.1, 23.29 27.99, 7.27 29.09 M51.06 29.09 C34.44 29.11, 17.66 29.49, 7.27 29.09 M7.27 29.09 C4.19 28.69, 0.11 26.8, 0 21.82 M7.27 29.09 C1.07 27.14, -0.69 25.07, 0 21.82 M0 21.82 C1.39 16.03, 0.96 14.17, 0 7.27 M0 21.82 C-0.25 18.34, -0.52 14.44, 0 7.27 M0 7.27 C0.31 1.96, 4.17 1.61, 7.27 0 M0 7.27 C1.48 0.39, 4.11 -1.17, 7.27 0" stroke="#1e1e1e" stroke-width="1" fill="none"></path></g><g transform="translate(199.73431054066543 370.94450801608247) rotate(0 13.29998779296875 7.647552836404685)"><text x="13.29998779296875" y="12.236344305667227" font-family="Helvetica, Segoe UI Emoji" font-size="13.300091889399472px" fill="#1e1e1e" text-anchor="middle" style="white-space: pre;" direction="ltr" dominant-baseline="alphabetic">任务</text></g><g stroke-linecap="round" transform="translate(184.81473903625317 423.9398331110352) rotate(0 29.1669091232078 14.546975504030684)"><path d="M7.27 0 C17.27 1.97, 28.7 -0.65, 51.06 0 M7.27 0 C22.29 -0.54, 38.18 -0.58, 51.06 0 M51.06 0 C54.27 1.85, 57.66 4.42, 58.33 7.27 M51.06 0 C55.74 -2.08, 58.36 1.83, 58.33 7.27 M58.33 7.27 C58.09 13.45, 57.08 17.39, 58.33 21.82 M58.33 7.27 C59.01 12.14, 57.72 16.46, 58.33 21.82 M58.33 21.82 C56.67 25.87, 56.21 30.18, 51.06 29.09 M58.33 21.82 C59.08 24.97, 56.61 27.45, 51.06 29.09 M51.06 29.09 C41.94 28.56, 31.95 27.52, 7.27 29.09 M51.06 29.09 C39.82 29.87, 30.79 29.01, 7.27 29.09 M7.27 29.09 C2.53 29.23, -1.18 24.97, 0 21.82 M7.27 29.09 C1.73 27.49, 0.27 25.64, 0 21.82 M0 21.82 C0.76 19.44, -1.11 15.65, 0 7.27 M0 21.82 C-0.36 17.78, 0.13 14.81, 0 7.27 M0 7.27 C1.75 4.04, 3.72 -1.77, 7.27 0 M0 7.27 C1.69 1.25, 2.34 -0.19, 7.27 0" stroke="#1e1e1e" stroke-width="1" fill="none"></path></g><g transform="translate(200.68166036649222 430.8392557786612) rotate(0 13.29998779296875 7.647552836404685)"><text x="13.29998779296875" y="12.236344305667227" font-family="Helvetica, Segoe UI Emoji" font-size="13.300091889399472px" fill="#1e1e1e" text-anchor="middle" style="white-space: pre;" direction="ltr" dominant-baseline="alphabetic">任务</text></g><g stroke-linecap="round"><g transform="translate(337.94897216865354 338.5786710401637) rotate(0 -0.01587174346360598 91.87247067791361)"><path d="M1.2 -0.09 C0.83 30.6, -0.86 153.01, -1.12 183.76 M0.37 -1.18 C0.25 29.75, 1.3 154.71, 1.03 185.3" stroke="#1e1e1e" stroke-width="2" fill="none"></path></g></g><mask></mask><g stroke-linecap="round"><g transform="translate(414.3404015206087 339.87804262546166) rotate(0 -0.01587174346360598 91.87247067791361)"><path d="M-0.09 -1.08 C-0.03 29.29, -0.13 152.7, -0.02 183.44 M-1.6 0.96 C-1.65 32.02, -1.25 154.24, -0.96 184.81" stroke="#1e1e1e" stroke-width="2" fill="none"></path></g></g><mask></mask><g stroke-linecap="round" transform="translate(347.41221796483103 355.5439861830106) rotate(0 27.903107458318118 13.916655308515857)"><path d="M6.96 0 C23.72 -0.14, 41.5 -0.35, 48.85 0 M6.96 0 C22.51 -0.4, 39.8 -0.2, 48.85 0 M48.85 0 C53.97 1.81, 56.82 0.6, 55.81 6.96 M48.85 0 C54.09 -1.91, 54.89 2.66, 55.81 6.96 M55.81 6.96 C56.28 10.9, 54.95 16.48, 55.81 20.87 M55.81 6.96 C56.4 11.39, 55.48 16.93, 55.81 20.87 M55.81 20.87 C56.35 24.18, 54.8 29.6, 48.85 27.83 M55.81 20.87 C55.35 25.64, 53.64 26.48, 48.85 27.83 M48.85 27.83 C40.07 26.65, 30.04 29.37, 6.96 27.83 M48.85 27.83 C39.21 29.22, 30.27 28.1, 6.96 27.83 M6.96 27.83 C2.06 26.79, -1.69 25.82, 0 20.87 M6.96 27.83 C1.78 29.85, 1.86 27, 0 20.87 M0 20.87 C-0.15 17.82, 1.28 14.67, 0 6.96 M0 20.87 C0.56 17.88, -0.34 13.82, 0 6.96 M0 6.96 C0.72 2.46, 3.08 -0.16, 6.96 0 M0 6.96 C-0.56 0.45, 1.83 -1.55, 6.96 0" stroke="#1e1e1e" stroke-width="1" fill="none"></path></g><g transform="translate(362.5953394612351 362.14445698647813) rotate(0 12.719985961914062 7.316184505048341)"><text x="12.719985961914062" y="11.70614371977927" font-family="Helvetica, Segoe UI Emoji" font-size="12.723799139214492px" fill="#1e1e1e" text-anchor="middle" style="white-space: pre;" direction="ltr" dominant-baseline="alphabetic">任务</text></g><g stroke-linecap="round" transform="translate(349.7022270669846 455.14183822677956) rotate(0 27.903107458318118 13.916655308515857)"><path d="M6.96 0 C16.79 -0.62, 26.34 -0.15, 48.85 0 M6.96 0 C22.63 0.14, 38.35 0.94, 48.85 0 M48.85 0 C54.5 -1.72, 56.33 0.66, 55.81 6.96 M48.85 0 C52.57 0.34, 57.06 3.06, 55.81 6.96 M55.81 6.96 C54.94 9.76, 56.75 14.06, 55.81 20.87 M55.81 6.96 C55.5 10.39, 56.1 13.71, 55.81 20.87 M55.81 20.87 C57.12 27.28, 53.09 27.94, 48.85 27.83 M55.81 20.87 C55.96 24.16, 51.54 27.14, 48.85 27.83 M48.85 27.83 C38.41 29.47, 27.82 28.88, 6.96 27.83 M48.85 27.83 C31.54 28.1, 15.4 27.72, 6.96 27.83 M6.96 27.83 C0.62 28.14, -0.47 27.26, 0 20.87 M6.96 27.83 C4.17 29.32, -2.04 27.2, 0 20.87 M0 20.87 C1.39 17.09, -0.56 12.63, 0 6.96 M0 20.87 C-0.55 15.56, 0.17 9.94, 0 6.96 M0 6.96 C0.76 2.16, 1.83 -1.63, 6.96 0 M0 6.96 C-0.49 0.77, 4.45 -1.9, 6.96 0" stroke="#1e1e1e" stroke-width="1" fill="none"></path></g><g transform="translate(364.8853485633887 461.7423090302471) rotate(0 12.719985961914062 7.316184505048341)"><text x="12.719985961914062" y="11.70614371977927" font-family="Helvetica, Segoe UI Emoji" font-size="12.723799139214492px" fill="#1e1e1e" text-anchor="middle" style="white-space: pre;" direction="ltr" dominant-baseline="alphabetic">任务</text></g><g stroke-linecap="round"><g transform="translate(562.1108766072889 133.26438419978464) rotate(15.883607742937135 -3.2673257338535677 2.5474065043603886)"><path d="M-0.81 1.13 C-0.92 0.93, -0.05 -1.59, -0.5 -2.29 C-0.96 -3, -2.48 -3.93, -3.55 -3.12 C-4.62 -2.31, -6.67 0.89, -6.92 2.55 C-7.17 4.22, -5.79 5.89, -5.07 6.88 C-4.35 7.87, -3.52 8.05, -2.62 8.49 C-1.72 8.92, -0.07 11.02, 0.31 9.5 C0.68 7.98, -0.4 1.03, -0.39 -0.61 M0.97 0.67 C1.24 0.26, 2.75 -3.39, 1.89 -3.82 C1.03 -4.24, -2.75 -2.6, -4.2 -1.87 C-5.66 -1.14, -6.51 -0.42, -6.82 0.58 C-7.13 1.59, -7 2.97, -6.07 4.14 C-5.13 5.31, -2.37 6.85, -1.19 7.6 C0 8.35, 1.12 10.14, 1.05 8.67 C0.98 7.19, -1.27 -0.12, -1.61 -1.27" stroke="#000" stroke-width="1" fill="none"></path></g></g><mask></mask><g stroke-linecap="round"><g transform="translate(590.8150302737552 142.23639996592507) rotate(15.883607742937135 3.1917516152742564 2.5474065043603886)"><path d="M-0.61 1.14 C-0.46 0.36, -0.56 -3.06, 0.11 -3.56 C0.78 -4.06, 2.19 -2.88, 3.4 -1.88 C4.62 -0.87, 6.99 1.11, 7.4 2.45 C7.81 3.79, 6.65 5.04, 5.88 6.16 C5.11 7.28, 3.85 8.88, 2.79 9.17 C1.73 9.46, -0.1 9.5, -0.49 7.92 C-0.89 6.33, 0.45 1.06, 0.42 -0.33 M1.27 0.69 C1.35 0.62, -0.93 -1.37, -0.73 -2.09 C-0.53 -2.81, 1.02 -4.05, 2.49 -3.63 C3.97 -3.21, 7.8 -1.3, 8.13 0.42 C8.45 2.14, 5.07 5.34, 4.43 6.71 C3.79 8.07, 5.05 8.1, 4.31 8.64 C3.56 9.17, 0.73 11.49, -0.05 9.91 C-0.83 8.33, -0.56 0.53, -0.38 -0.85" stroke="#000" stroke-width="1" fill="none"></path></g></g><mask></mask><g stroke-linecap="round"><g transform="translate(563.515468377085 134.9812172815459) rotate(15.883607742937135 16.5027638760738 -8.449503894079491)"><path d="M0.5 -0.3 C0.85 -1.81, -0.95 -4.34, 0.67 -6.42 C2.3 -8.5, 7.53 -11.14, 10.26 -12.77 C12.99 -14.41, 14.37 -16.18, 17.03 -16.22 C19.69 -16.26, 23.97 -13.86, 26.2 -13.02 C28.43 -12.18, 29.11 -13.05, 30.41 -11.16 C31.71 -9.26, 33.8 -3.21, 33.99 -1.66 M-2.67 -2.93 C-2.62 -3.97, -3.96 -7.67, -1.91 -10.02 C0.13 -12.37, 6.34 -16.49, 9.6 -17.03 C12.87 -17.56, 15.43 -12.83, 17.66 -13.24 C19.89 -13.66, 20.38 -20.76, 22.98 -19.51 C25.58 -18.26, 31.08 -9.56, 33.26 -5.75 C35.43 -1.93, 35.43 2.95, 36.04 3.38" stroke="#000" stroke-width="1" fill="none"></path></g></g><mask></mask><g stroke-linecap="round"><g transform="translate(556.653334933025 143.0103491110069) rotate(15.883607742937135 6.202381054094872 3.069203777810962)"><path d="M-0.28 1.12 C0.1 1.88, 1.62 3.57, 2.47 4.45 C3.31 5.34, 3.71 6.03, 4.77 6.43 C5.83 6.83, 7.63 7.33, 8.83 6.84 C10.04 6.35, 11.35 4, 12.02 3.49 M1.78 0.65 C2.06 1.11, 1.62 1.65, 2 2.86 C2.37 4.07, 2.83 7.58, 4.03 7.9 C5.22 8.22, 7.52 5.52, 9.18 4.8 C10.85 4.07, 13.74 3.93, 14.01 3.56" stroke="#000" stroke-width="1" fill="none"></path></g></g><mask></mask><g stroke-linecap="round" transform="translate(568.4244301259437 147.54987753935248) rotate(15.883607742937135 2.6581633088977696 1.2737032521801979)"><path d="M3.23 -0.21 C3.68 -0.21, 3.74 0.39, 4.05 0.54 C4.36 0.7, 4.98 0.58, 5.1 0.72 C5.21 0.85, 5.05 1, 4.72 1.35 C4.39 1.71, 3.73 2.74, 3.13 2.84 C2.54 2.94, 1.56 2.17, 1.15 1.95 C0.74 1.72, 0.79 1.73, 0.68 1.48 C0.57 1.23, 0.49 0.56, 0.51 0.45 C0.52 0.34, 0.28 0.86, 0.75 0.81 C1.23 0.77, 2.88 0.39, 3.36 0.16 C3.84 -0.07, 3.79 -0.56, 3.62 -0.59 M2.59 0.72 C2.94 0.76, 3.22 0.86, 3.78 1.04 C4.35 1.23, 5.79 1.7, 5.97 1.83 C6.14 1.96, 5.1 1.85, 4.84 1.82 C4.58 1.8, 5.02 1.59, 4.42 1.7 C3.82 1.81, 2.09 2.28, 1.26 2.48 C0.42 2.68, -0.44 3.05, -0.59 2.89 C-0.75 2.74, -0.08 2.02, 0.32 1.57 C0.72 1.11, 1.49 0.52, 1.82 0.14 C2.14 -0.24, 2.17 -0.61, 2.28 -0.7 C2.38 -0.8, 2.49 -0.53, 2.43 -0.44" stroke="#000" stroke-width="1" fill="none"></path></g><g stroke-linecap="round" transform="translate(561.3610487054973 124.20272851633516) rotate(17.19659740966481 15.010564426772703 15.522288214048977)"><path d="M15.72 0.4 C18.6 0.43, 22.97 1.82, 25.28 3.95 C27.6 6.09, 29.37 9.73, 29.62 13.22 C29.86 16.71, 28.66 22.14, 26.75 24.89 C24.83 27.64, 21.04 29.03, 18.12 29.71 C15.21 30.39, 11.92 30.4, 9.26 29 C6.59 27.59, 3.65 24.05, 2.14 21.28 C0.62 18.51, -0.62 15.42, 0.16 12.38 C0.94 9.35, 3.66 5.23, 6.81 3.08 C9.96 0.93, 16.87 -0.24, 19.07 -0.52 C21.27 -0.8, 20.14 0.89, 20.01 1.4 M16.97 1.4 C20.19 1.82, 25.53 4.52, 27.67 6.89 C29.81 9.26, 29.82 12.68, 29.81 15.61 C29.8 18.55, 29.81 21.96, 27.62 24.5 C25.42 27.04, 20.26 29.88, 16.64 30.85 C13.02 31.82, 8.45 31.9, 5.89 30.32 C3.33 28.74, 1.87 24.81, 1.27 21.39 C0.67 17.97, 1.33 13.18, 2.31 9.77 C3.29 6.36, 4.62 2.63, 7.15 0.93 C9.68 -0.78, 15.92 -0.3, 17.51 -0.43 C19.1 -0.57, 16.67 -0.43, 16.68 0.11" stroke="#000" stroke-width="1" fill="none"></path></g><g stroke-linecap="round" transform="translate(552.7020523517929 164.36526772251986) rotate(0 22.400667974058592 13.453462398414203)"><path d="M1.62 -0.64 C12.56 0.63, 26.61 -1.12, 44.13 -1.71 M-0.78 0.51 C10.07 1.08, 20.52 0.06, 45.59 0.48 M42.92 -0.4 C44.82 9.84, 45.65 17.26, 46.24 25.79 M44.66 -0.07 C45.81 9.34, 44.46 20.21, 43.84 27.88 M44.46 26.21 C28.67 26.91, 14.41 25.88, -0.62 26.99 M44.54 26.68 C28.36 25.98, 11.73 26.82, -0.62 26.08 M-0.74 26.46 C-1.67 22.22, 0.15 15.99, -0.54 0.46 M0.03 26.15 C-0.07 15.86, 0.55 5.85, -0.08 0.74" stroke="#000" stroke-width="1" fill="none"></path></g><g stroke-linecap="round" transform="translate(573.0741600144572 175.10328932002776) rotate(0 2.2204743764373234 2.220474376437295)"><path d="M2.26 -0.55 C2.67 -0.41, 3.16 0.71, 3.43 1.06 C3.7 1.42, 3.71 1.23, 3.86 1.57 C4.01 1.92, 4.45 2.76, 4.34 3.13 C4.23 3.5, 3.75 3.52, 3.19 3.79 C2.64 4.06, 1.45 4.82, 1.01 4.73 C0.56 4.64, 0.61 3.88, 0.5 3.24 C0.39 2.61, 0.36 1.42, 0.34 0.92 C0.32 0.42, 0.01 0.31, 0.38 0.23 C0.74 0.15, 2.12 0.45, 2.54 0.42 C2.96 0.39, 2.82 0.16, 2.9 0.06 M2.63 0 C3.1 -0.18, 4.63 -0.24, 4.85 0.16 C5.06 0.56, 4.24 1.63, 3.91 2.4 C3.58 3.16, 3.04 4.32, 2.84 4.74 C2.64 5.17, 2.89 5.07, 2.72 4.93 C2.56 4.78, 2.36 4.35, 1.86 3.88 C1.36 3.41, 0.04 2.62, -0.27 2.11 C-0.57 1.6, -0.13 1.2, 0 0.83 C0.14 0.46, 0.08 -0.08, 0.55 -0.09 C1.02 -0.11, 2.4 0.82, 2.82 0.75 C3.23 0.68, 3.09 -0.41, 3.04 -0.53" stroke="#000" stroke-width="1" fill="none"></path></g><g stroke-linecap="round"><g transform="translate(564.9367390735115 135.32654785041868) rotate(17.19659740966481 4.71467828292657 0.06286237710568798)"><path d="M0.27 -0.21 C1.81 -0.17, 7.61 -0.11, 9.03 -0.13 M-0.51 -0.97 C1.3 -0.79, 8.73 0.5, 10.53 0.7" stroke="#000" stroke-width="1" fill="none"></path></g></g><mask></mask><g stroke-linecap="round"><g transform="translate(578.1528612631996 139.56806353056592) rotate(17.19659740966481 4.71467828292657 0.06286237710568798)"><path d="M-0.4 -0.26 C1.02 -0.28, 7.08 -0.29, 8.78 -0.34 M0.78 -1.04 C2.4 -0.96, 8.68 0.22, 10.15 0.39" stroke="#000" stroke-width="1" fill="none"></path></g></g><mask></mask><g stroke-linecap="round"><g transform="translate(565.4426211900318 134.98595997402364) rotate(17.19659740966481 0.12572475421131912 6.600549596097196)"><path d="M-1.03 -0.73 C-0.77 1.36, 0.85 9.74, 0.9 12.17 M0.64 1.5 C0.85 3.74, 0.12 11.45, 0.3 13.16" stroke="#000" stroke-width="1" fill="none"></path></g></g><mask></mask><g stroke-linecap="round"><g transform="translate(569.3847448264235 136.11775153991678) rotate(17.19659740966481 0 8.109246646633707)"><path d="M0.65 -1.03 C0.67 1.89, -0.7 13.82, -0.94 16.83 M-0.46 1.04 C0.01 3.68, 0.92 12.68, 1.28 15.03" stroke="#000" stroke-width="1" fill="none"></path></g></g><mask></mask><g stroke-linecap="round"><g transform="translate(578.3334306587249 138.78408952350233) rotate(17.19659740966481 0.18858713131703553 8.42355853216214)"><path d="M-0.94 0.61 C-1.11 3.73, -0.42 15.03, -0.38 17.68 M0.77 -0.11 C0.93 2.76, 1.78 13.04, 1.93 15.99" stroke="#000" stroke-width="1" fill="none"></path></g></g><mask></mask><g stroke-linecap="round"><g transform="translate(582.750121035705 140.10525831931577) rotate(17.19659740966481 0.18858713131703553 7.354898121365451)"><path d="M-0.76 0.83 C-0.72 3.11, -1.04 11.91, -0.69 14.32 M1.04 0.22 C1.52 2.62, 1.46 13.48, 1.46 15.65" stroke="#000" stroke-width="1" fill="none"></path></g></g><mask></mask><g stroke-linecap="round"><g transform="translate(567.2339130319372 132.27948023246833) rotate(17.19659740966481 3.897467380552598 -1.5086970505365045)"><path d="M-0.67 -0.25 C0.53 -0.44, 5.32 -0.23, 6.76 -0.64 C8.19 -1.06, 7.91 -2.23, 7.96 -2.74 M0.36 -1.03 C1.56 -1.49, 5.27 -1.28, 6.47 -1.78 C7.67 -2.29, 7.51 -3.79, 7.57 -4.06" stroke="#000" stroke-width="1" fill="none"></path></g></g><mask></mask><g stroke-linecap="round"><g transform="translate(580.6852075866736 132.79879107209067) rotate(17.19659740966481 3.3945683637070942 1.7601465589592493)"><path d="M0.6 0.36 C1.11 0.87, 1.52 2.38, 2.43 2.79 C3.34 3.2, 5.34 2.69, 6.04 2.81 M-0.01 -0.1 C0.48 0.19, 0.68 1.04, 1.92 1.61 C3.17 2.17, 6.67 2.84, 7.46 3.27" stroke="#000" stroke-width="1" fill="none"></path></g></g><mask></mask><g stroke-linecap="round"><g transform="translate(591.3642854407522 161.83417324926685) rotate(0 -15.655663827005355 -2.612478570893302)"><path d="M0.26 0.44 C-0.53 -0.22, -2.87 -2.46, -3.81 -3.41 C-4.75 -4.35, -4.81 -5.29, -5.37 -5.24 C-5.92 -5.19, -5.71 -3.74, -7.14 -3.11 C-8.57 -2.47, -11.75 -1.64, -13.95 -1.42 C-16.15 -1.19, -18.65 -1.48, -20.33 -1.74 C-22.02 -2, -23.07 -2.33, -24.06 -2.97 C-25.06 -3.6, -25.8 -5.38, -26.32 -5.56 C-26.84 -5.73, -26.22 -4.96, -27.16 -4.02 C-28.09 -3.08, -31.64 -0.83, -31.94 0.08 C-32.24 0.98, -30.32 1.29, -28.96 1.41 C-27.6 1.53, -24.75 1.02, -23.76 0.79 M-1.06 -0.37 C-1.58 -0.98, -0.85 -1.86, -1.72 -2.46 C-2.59 -3.06, -5.46 -4.06, -6.26 -3.95 C-7.06 -3.83, -5 -2.33, -6.53 -1.77 C-8.06 -1.2, -13.32 -0.48, -15.45 -0.57 C-17.57 -0.66, -17.41 -1.76, -19.27 -2.3 C-21.14 -2.84, -25.28 -3.2, -26.64 -3.81 C-28 -4.42, -27.16 -6.21, -27.43 -5.94 C-27.71 -5.68, -27.63 -3.15, -28.31 -2.23 C-28.99 -1.3, -31.35 -0.63, -31.5 -0.37 C-31.66 -0.11, -30.33 -0.83, -29.25 -0.66 C-28.16 -0.48, -25.55 0.72, -25 0.67" stroke="#000" stroke-width="1" fill="none"></path></g></g><mask></mask><g stroke-linecap="round"><g transform="translate(597.885801889694 191.4162856501953) rotate(358.16007135453435 -23.054454427165638 1.291683874574602)"><path d="M-2.78 -2.63 C-1.94 -2.72, 4.1 -0.68, 5.68 0.51 C7.25 1.69, 7.9 3.65, 6.65 4.48 C5.41 5.3, 2.04 5.27, -1.81 5.44 C-5.65 5.62, -12.07 5.43, -16.41 5.53 C-20.76 5.63, -22.69 6.6, -27.87 6.06 C-33.05 5.53, -43.79 3.71, -47.49 2.32 C-51.18 0.93, -49.59 -1.68, -50.05 -2.27 C-50.51 -2.86, -49.99 -1.86, -50.22 -1.24 M0.91 2.11 C1.27 2.41, 2.33 4.51, 3.14 4.08 C3.94 3.64, 6.47 0.11, 5.74 -0.48 C5 -1.08, 1.7 -0.84, -1.27 0.5 C-4.24 1.85, -6.95 6.88, -12.09 7.6 C-17.23 8.32, -26.44 6.25, -32.12 4.82 C-37.8 3.39, -43 0.54, -46.18 -0.97 C-49.37 -2.48, -51.2 -3.65, -51.22 -4.24 C-51.25 -4.83, -46.35 -5.51, -46.33 -4.49" stroke="#000" stroke-width="1" fill="none"></path></g></g><mask></mask><g transform="translate(537.7702971510446 209.4687077788778) rotate(0 40 9.200000000000003)"><text x="0" y="14.720312499999999" font-family="Helvetica, Segoe UI Emoji" font-size="16px" fill="#1e1e1e" text-anchor="start" style="white-space: pre;" direction="ltr" dominant-baseline="alphabetic">渲染主线程</text></g><g transform="translate(21.765719514325838 291.3342900542684) rotate(0 32 9.199999999999989)"><text x="0" y="14.720312499999999" font-family="Helvetica, Segoe UI Emoji" font-size="16px" fill="#1e1e1e" text-anchor="start" style="white-space: pre;" direction="ltr" dominant-baseline="alphabetic">延时队列</text></g><g transform="translate(174.47873220963834 161.30587818903402) rotate(0 32 9.200000000000003)"><text x="0" y="14.720312499999999" font-family="Helvetica, Segoe UI Emoji" font-size="16px" fill="#1e1e1e" text-anchor="start" style="white-space: pre;" direction="ltr" dominant-baseline="alphabetic">取出任务</text></g><g transform="translate(180.3692961744821 291.8714604644247) rotate(0 32 9.199999999999989)"><text x="0" y="14.720312499999999" font-family="Helvetica, Segoe UI Emoji" font-size="16px" fill="#1e1e1e" text-anchor="start" style="white-space: pre;" direction="ltr" dominant-baseline="alphabetic">交互队列</text></g><g transform="translate(348.80710135026334 289.3526006011434) rotate(0 24 9.199999999999989)"><text x="0" y="14.720312499999999" font-family="Helvetica, Segoe UI Emoji" font-size="16px" fill="#1e1e1e" text-anchor="start" style="white-space: pre;" direction="ltr" dominant-baseline="alphabetic">微队列</text></g><g stroke-linecap="round"><g transform="translate(167.81290691167737 185.4799428200656) rotate(0 -59.9833901474816 48.85642776749205)"><path d="M-0.38 0.1 C-9.49 6.04, -34.37 18.55, -54.43 34.67 C-74.49 50.79, -109.82 86.5, -120.76 96.82" stroke="#1e1e1e" stroke-width="1.5" fill="none" stroke-dasharray="1.5 7"></path></g><g transform="translate(167.81290691167737 185.4799428200656) rotate(0 -59.9833901474816 48.85642776749205)"><path d="M-109.87 74.31 C-113.36 79.44, -117.95 87.29, -120.76 96.82" stroke="#1e1e1e" stroke-width="1.5" fill="none" stroke-dasharray="1.5 5"></path></g><g transform="translate(167.81290691167737 185.4799428200656) rotate(0 -59.9833901474816 48.85642776749205)"><path d="M-97.95 86.58 C-105.13 87.77, -113.51 91.71, -120.76 96.82" stroke="#1e1e1e" stroke-width="1.5" fill="none" stroke-dasharray="1.5 5"></path></g></g><mask></mask><g stroke-linecap="round"><g transform="translate(208.04892049766738 194.84349415583094) rotate(0 1.0910858244345718 43.371673583984375)"><path d="M-0.98 -0.06 C-0.61 14.28, 1.5 71.85, 1.9 86.37" stroke="#1e1e1e" stroke-width="1.5" fill="none" stroke-dasharray="1.5 7"></path></g><g transform="translate(208.04892049766738 194.84349415583094) rotate(0 1.0910858244345718 43.371673583984375)"><path d="M-7.41 63.16 C-4.91 69.09, -2.91 74.57, 1.9 86.37" stroke="#1e1e1e" stroke-width="1.5" fill="none" stroke-dasharray="1.5 5"></path></g><g transform="translate(208.04892049766738 194.84349415583094) rotate(0 1.0910858244345718 43.371673583984375)"><path d="M9.68 62.61 C7.54 68.54, 4.89 74.18, 1.9 86.37" stroke="#1e1e1e" stroke-width="1.5" fill="none" stroke-dasharray="1.5 5"></path></g></g><mask></mask><g stroke-linecap="round"><g transform="translate(248.20791608196953 186.2065938466006) rotate(0 63.945603776532266 46.434432210279226)"><path d="M-1.17 -1 C10.03 3.64, 45.68 12.18, 67.1 27.78 C88.52 43.38, 117.29 81.76, 127.37 92.62" stroke="#1e1e1e" stroke-width="1.5" fill="none" stroke-dasharray="1.5 7"></path></g><g transform="translate(248.20791608196953 186.2065938466006) rotate(0 63.945603776532266 46.434432210279226)"><path d="M105.66 80.22 C110.24 83.93, 116.8 86.69, 127.37 92.62" stroke="#1e1e1e" stroke-width="1.5" fill="none" stroke-dasharray="1.5 5"></path></g><g transform="translate(248.20791608196953 186.2065938466006) rotate(0 63.945603776532266 46.434432210279226)"><path d="M118.72 69.17 C119.54 75.93, 122.34 81.87, 127.37 92.62" stroke="#1e1e1e" stroke-width="1.5" fill="none" stroke-dasharray="1.5 5"></path></g></g><mask></mask><g mask="url(#mask-7pQFXOVAAcYyxK_zAxgDn)" stroke-linecap="round"><g transform="translate(239.98546686715304 93.12322626989368) rotate(0 145.86604795444578 33.29429857316664)"><path d="M-0.14 -0.77 C25.89 0.83, 106.81 -1.08, 155.29 10.21 C203.76 21.49, 268.1 57.43, 290.72 66.94" stroke="#1e1e1e" stroke-width="1.5" fill="none" stroke-dasharray="1.5 7"></path></g><g transform="translate(239.98546686715304 93.12322626989368) rotate(0 145.86604795444578 33.29429857316664)"><path d="M265.83 64.56 C270.19 66.11, 275.21 63.98, 290.72 66.94" stroke="#1e1e1e" stroke-width="1.5" fill="none" stroke-dasharray="1.5 5"></path></g><g transform="translate(239.98546686715304 93.12322626989368) rotate(0 145.86604795444578 33.29429857316664)"><path d="M273.19 49.12 C275.96 54.14, 279.32 55.5, 290.72 66.94" stroke="#1e1e1e" stroke-width="1.5" fill="none" stroke-dasharray="1.5 5"></path></g></g><mask id="mask-7pQFXOVAAcYyxK_zAxgDn"><rect x="0" y="0" fill="#fff" width="631.7175627760446" height="259.71182341622693"></rect><rect x="322.68649588151334" y="95.25564625544033" fill="#000" width="144" height="18.4" opacity="1"></rect></mask><g transform="translate(322.68649588151334 95.25564625544031) rotate(0 62.58953871924609 30.956138449849234)"><text x="72" y="14.720312499999999" font-family="Helvetica, Segoe UI Emoji" font-size="16px" fill="#1e1e1e" text-anchor="middle" style="white-space: pre;" direction="ltr" dominant-baseline="alphabetic">交给渲染主线程执行</text></g><g stroke-linecap="round" transform="translate(190.5708780852898 36.09071621922015) rotate(343.58593648075345 14.842359783777567 15.348349321860894)"><path d="M13.91 -0.46 C16.92 -0.79, 21.42 1.27, 23.99 3.31 C26.55 5.36, 28.64 8.74, 29.31 11.82 C29.98 14.9, 29.39 18.77, 28.01 21.79 C26.63 24.8, 23.87 28.5, 21.05 29.89 C18.23 31.28, 14.17 31.11, 11.08 30.13 C7.98 29.14, 4.28 26.72, 2.48 24 C0.68 21.27, -0.14 17.15, 0.29 13.78 C0.71 10.4, 2.57 6.03, 5.04 3.74 C7.51 1.46, 13.38 0.56, 15.13 0.04 C16.87 -0.48, 15.52 0.39, 15.5 0.65 M12.99 0.42 C15.8 -0.13, 19.7 0.93, 22.28 2.73 C24.86 4.53, 27.49 8.09, 28.46 11.24 C29.43 14.39, 29.08 18.71, 28.1 21.62 C27.12 24.52, 25.36 27.21, 22.56 28.66 C19.77 30.12, 14.65 31.05, 11.34 30.33 C8.04 29.61, 4.53 26.94, 2.74 24.37 C0.95 21.8, 0.38 18.2, 0.61 14.91 C0.83 11.62, 2.12 7.06, 4.08 4.65 C6.03 2.24, 10.9 1.01, 12.32 0.44 C13.75 -0.14, 12.65 0.94, 12.65 1.2" stroke="#000" stroke-width="1" fill="none"></path></g><g stroke-linecap="round"><g transform="translate(191.8648637992568 54.6137645198151) rotate(343.58593648075345 -3.3170425274351487 2.586168750203667)"><path d="M-0.13 0.27 C-0.12 -0.36, 0.76 -3.03, 0.05 -3.52 C-0.65 -4.01, -3.28 -3.52, -4.36 -2.69 C-5.44 -1.85, -6.14 0.08, -6.41 1.5 C-6.69 2.92, -6.56 4.64, -6.01 5.83 C-5.47 7.02, -4.25 8.08, -3.15 8.64 C-2.04 9.19, 0.09 10.59, 0.63 9.15 C1.17 7.72, 0.14 1.5, 0.07 0.01 M0.8 -0.07 C0.74 -0.64, 0.28 -2.25, -0.41 -2.84 C-1.09 -3.42, -2.37 -4.38, -3.32 -3.58 C-4.27 -2.77, -5.57 0.43, -6.13 2.02 C-6.68 3.6, -7.22 4.89, -6.65 5.95 C-6.09 7, -3.76 7.85, -2.74 8.33 C-1.71 8.8, -0.87 10.21, -0.48 8.8 C-0.08 7.39, -0.36 1.38, -0.36 -0.13" stroke="#000" stroke-width="1" fill="none"></path></g></g><mask></mask><g stroke-linecap="round"><g transform="translate(220.23453221728562 43.56950056265429) rotate(343.58593648075345 3.2403184461157934 2.586168750203667)"><path d="M-0.06 -0.03 C-0.14 -0.6, -1.34 -2.64, -0.65 -3.14 C0.04 -3.63, 2.85 -3.75, 4.07 -3 C5.29 -2.25, 6.41 -0.21, 6.65 1.33 C6.88 2.88, 6.07 5.03, 5.48 6.28 C4.9 7.52, 4.07 8.42, 3.15 8.82 C2.23 9.22, 0.45 10.11, -0.04 8.67 C-0.53 7.24, 0.16 1.58, 0.19 0.21 M-0.75 -0.52 C-0.67 -1.27, -0.46 -3.62, 0.31 -3.93 C1.08 -4.24, 2.81 -3.33, 3.89 -2.38 C4.97 -1.43, 6.4 0.27, 6.79 1.77 C7.18 3.27, 6.98 5.48, 6.25 6.62 C5.52 7.75, 3.39 8.36, 2.4 8.6 C1.4 8.84, 0.72 9.47, 0.29 8.07 C-0.14 6.66, -0.04 1.5, -0.17 0.16" stroke="#000" stroke-width="1" fill="none"></path></g></g><mask></mask><g stroke-linecap="round"><g transform="translate(184.72875450953927 46.500352332443235) rotate(343.58593648075345 16.753875816536777 -8.826706386564691)"><path d="M-1.17 0.76 C-0.92 -0.72, -0.16 -6.1, 1.41 -8.92 C2.97 -11.73, 5.81 -14.79, 8.22 -16.13 C10.64 -17.47, 12.74 -17.19, 15.89 -16.96 C19.03 -16.74, 24.54 -15.79, 27.1 -14.77 C29.67 -13.76, 30.25 -12.46, 31.3 -10.88 C32.34 -9.29, 32.93 -7.1, 33.37 -5.28 C33.8 -3.45, 34.07 -0.82, 33.9 0.09 M0.41 0.11 C0.59 -1.15, -0.34 -4.83, 0.84 -7.34 C2.03 -9.85, 5.06 -12.99, 7.52 -14.96 C9.99 -16.93, 12.5 -18.74, 15.62 -19.16 C18.74 -19.58, 23.36 -18.69, 26.23 -17.48 C29.09 -16.27, 31.45 -13.75, 32.79 -11.9 C34.12 -10.05, 34.18 -8.41, 34.23 -6.38 C34.28 -4.35, 33.16 -0.69, 33.08 0.27" stroke="#000" stroke-width="1" fill="none"></path></g></g><mask></mask><g stroke-linecap="round"><g transform="translate(191.21828631971414 60.82810247087803) rotate(343.58593648075345 6.296758696148061 2.979716168712919)"><path d="M0.33 0.04 C0.62 0.47, 0.61 2, 1.18 2.92 C1.75 3.85, 2.41 4.99, 3.76 5.58 C5.11 6.17, 7.8 6.69, 9.29 6.45 C10.77 6.22, 12.08 4.52, 12.66 4.17 M-0.16 -0.42 C0.11 0.06, -0.05 2.71, 0.78 3.56 C1.62 4.41, 3.65 4.35, 4.85 4.68 C6.05 5.01, 6.8 5.6, 8 5.55 C9.2 5.49, 11.38 4.62, 12.03 4.36" stroke="#000" stroke-width="1" fill="none"></path></g></g><mask></mask><g stroke-linecap="round" transform="translate(203.3259495059093 60.632865111029155) rotate(343.58593648075345 2.698610869777724 1.2930843751018362)"><path d="M2.63 0.05 C3.14 -0.03, 3.69 0.16, 4.15 0.32 C4.61 0.48, 5.17 0.82, 5.4 1.01 C5.62 1.2, 5.66 1.23, 5.47 1.47 C5.28 1.71, 4.81 2.24, 4.27 2.46 C3.72 2.68, 2.79 2.84, 2.21 2.78 C1.63 2.72, 1.17 2.32, 0.77 2.1 C0.37 1.88, -0.17 1.73, -0.19 1.47 C-0.2 1.2, 0.22 0.81, 0.67 0.53 C1.11 0.26, 2.18 -0.05, 2.5 -0.17 C2.83 -0.29, 2.58 -0.2, 2.62 -0.19 M2.73 -0.02 C3.15 -0.03, 3.88 -0.1, 4.39 0.11 C4.9 0.33, 5.68 0.99, 5.79 1.27 C5.9 1.55, 5.51 1.53, 5.04 1.77 C4.58 2.02, 3.64 2.55, 3.03 2.74 C2.42 2.94, 1.92 3.06, 1.38 2.94 C0.84 2.82, 0.08 2.32, -0.2 2 C-0.49 1.69, -0.6 1.44, -0.31 1.07 C-0.01 0.7, 1.01 0.01, 1.58 -0.22 C2.15 -0.45, 2.83 -0.34, 3.12 -0.3 C3.42 -0.27, 3.37 -0.03, 3.36 -0.03" stroke="#000" stroke-width="1" fill="none"></path></g><g stroke-linecap="round"><g transform="translate(196.06041186018444 52.98500127067569) rotate(0 3.2564842076046716 -2.137508203606661)"><path d="M-0.29 0.2 C-0.16 -0.22, 0.41 -1.88, 0.81 -2.63 C1.22 -3.37, 1.4 -4.09, 2.13 -4.27 C2.87 -4.44, 4.46 -4.19, 5.21 -3.66 C5.95 -3.12, 6.47 -1.48, 6.63 -1.03 M0.21 0 C0.32 -0.51, 0.42 -2.44, 0.71 -3.09 C0.99 -3.73, 1.16 -3.85, 1.93 -3.87 C2.71 -3.9, 4.62 -3.6, 5.34 -3.26 C6.06 -2.92, 6.08 -2.2, 6.26 -1.84" stroke="#000" stroke-width="1" fill="none"></path></g></g><mask></mask><g stroke-linecap="round" transform="translate(183.57149622322515 75.37464960003052) rotate(0 22.741524526625994 13.65817508013108)"><path d="M0 0 C10.84 -0.09, 19.9 0.14, 45.48 0 M0 0 C14.91 0.28, 30.8 -0.06, 45.48 0 M45.48 0 C45 10.68, 45.47 20.34, 45.48 27.32 M45.48 0 C45.08 9.62, 45.07 18.72, 45.48 27.32 M45.48 27.32 C27.37 26.62, 8.76 27.98, 0 27.32 M45.48 27.32 C31.15 27.37, 17.29 27.67, 0 27.32 M0 27.32 C0.25 22.12, -0.92 15.72, 0 0 M0 27.32 C-0.02 20.36, 0.22 13.98, 0 0" stroke="#000" stroke-width="1" fill="none"></path></g><g stroke-linecap="round" transform="translate(204.25359314132027 86.27606476363042) rotate(0 2.254261906429406 2.2542619064293987)"><path d="M2.66 -0.31 C3.15 -0.33, 3.79 0.22, 4.11 0.64 C4.43 1.06, 4.54 1.74, 4.58 2.22 C4.62 2.69, 4.66 3.11, 4.35 3.51 C4.03 3.92, 3.21 4.48, 2.71 4.64 C2.21 4.79, 1.72 4.69, 1.33 4.43 C0.93 4.17, 0.54 3.57, 0.36 3.08 C0.18 2.6, 0.1 1.99, 0.24 1.52 C0.38 1.04, 0.8 0.41, 1.2 0.22 C1.61 0.02, 2.48 0.39, 2.67 0.33 C2.87 0.27, 2.42 -0.09, 2.38 -0.14 M2.22 -0.29 C2.56 -0.34, 2.89 0.18, 3.24 0.58 C3.59 0.99, 4.22 1.67, 4.33 2.14 C4.44 2.61, 4.14 3, 3.89 3.39 C3.63 3.77, 3.11 4.34, 2.81 4.44 C2.5 4.54, 2.43 4.2, 2.05 4.01 C1.67 3.81, 0.81 3.59, 0.52 3.26 C0.24 2.92, 0.32 2.52, 0.35 2.02 C0.38 1.51, 0.38 0.6, 0.71 0.2 C1.05 -0.19, 2.08 -0.34, 2.35 -0.36 C2.62 -0.38, 2.38 -0.05, 2.33 0.08" stroke="#000" stroke-width="1" fill="none"></path></g><g stroke-linecap="round"><g transform="translate(182.88300853930707 29.872365072151915) rotate(0 -0.9487295595850469 -5.713661175269514)"><path d="M0.19 0.21 C0.71 0.08, 2.84 -0.27, 3.14 -0.75 C3.44 -1.22, 2 -1.85, 1.99 -2.63 C1.98 -3.41, 2.93 -4.36, 3.09 -5.42 C3.24 -6.48, 3.62 -7.94, 2.89 -9 C2.16 -10.05, -0.07 -11.61, -1.31 -11.74 C-2.56 -11.87, -4.01 -11, -4.57 -9.79 C-5.13 -8.59, -4.96 -5.78, -4.69 -4.5 C-4.42 -3.22, -3.58 -2.74, -2.95 -2.11 C-2.32 -1.49, -1.35 -1.18, -0.92 -0.76 C-0.49 -0.34, -0.62 0.3, -0.38 0.4 M-0.37 -0.16 C0.08 -0.43, 2.23 -0.93, 2.8 -1.48 C3.37 -2.03, 2.97 -2.87, 3.04 -3.44 C3.11 -4, 3.32 -3.98, 3.22 -4.85 C3.11 -5.72, 3.06 -7.67, 2.41 -8.64 C1.76 -9.62, 0.7 -10.41, -0.66 -10.71 C-2.02 -11.01, -5.02 -11.46, -5.76 -10.43 C-6.49 -9.41, -5.65 -5.86, -5.06 -4.56 C-4.47 -3.25, -2.92 -3.23, -2.2 -2.59 C-1.48 -1.95, -1.05 -1.05, -0.75 -0.72 C-0.46 -0.39, -0.58 -0.66, -0.42 -0.61" stroke="#000" stroke-width="1" fill="none"></path></g></g><mask></mask><g stroke-linecap="round"><g transform="translate(178.72825105953746 29.611269149639035) rotate(0 -1.4653081329107636 2.4106682186596693)"><path d="M0.12 0.29 C-0.45 1.13, -2.76 4.38, -3.27 5.15 M-0.25 0.14 C-0.72 0.87, -2.16 3.83, -2.64 4.7" stroke="#000" stroke-width="1" fill="none"></path></g></g><mask></mask><g stroke-linecap="round"><g transform="translate(174.50771280796278 24.531910485046915) rotate(0 -3.166956287258756 0.14180401286233346)"><path d="M-0.34 0.33 C-1.41 0.34, -5.35 0.34, -6.31 0.37 M0.14 0.19 C-0.98 0.07, -5.51 -0.16, -6.57 -0.2" stroke="#000" stroke-width="1" fill="none"></path></g></g><mask></mask><g stroke-linecap="round"><g transform="translate(176.73899843507627 18.552642454468575) rotate(0 -2.3161322100847883 -2.0325241843601134)"><path d="M0.03 0.09 C-0.65 -0.61, -3.62 -3.12, -4.4 -3.84 M-0.39 -0.17 C-1.06 -0.82, -3.81 -3.72, -4.55 -4.35" stroke="#000" stroke-width="1" fill="none"></path></g></g><mask></mask><g stroke-linecap="round"><g transform="translate(183.92015835135373 15.96801422844782) rotate(0 0.519948047161904 -2.8833482615341133)"><path d="M0.24 0.22 C0.41 -0.79, 0.89 -4.96, 1.06 -5.97 M-0.07 0.03 C0.05 -0.95, 0.58 -4.71, 0.79 -5.62" stroke="#000" stroke-width="1" fill="none"></path></g></g><mask></mask><g stroke-linecap="round"><g transform="translate(188.66136903247127 22.09789587709934) rotate(0 3.261492295833648 -0.09453600857488897)"><path d="M0.02 -0.2 C1.11 -0.28, 5.66 -0.25, 6.76 -0.22 M-0.4 0.46 C0.64 0.43, 5.46 0.4, 6.6 0.21" stroke="#000" stroke-width="1" fill="none"></path></g></g><mask></mask><g stroke-linecap="round"><g transform="translate(181.2061270508117 21.974355094363368) rotate(0 0.10186860113105922 1.822277026624005)"><path d="M0.24 -0.04 C0.17 0.36, -0.44 1.53, -0.39 2.18 C-0.35 2.82, 0.37 3.54, 0.52 3.84 M-0.07 -0.36 C-0.18 -0.06, -0.66 1.02, -0.61 1.62 C-0.57 2.22, 0.02 2.96, 0.2 3.25" stroke="#000" stroke-width="1" fill="none"></path></g></g><mask></mask><g stroke-linecap="round"><g transform="translate(183.23449916319362 31.74005189107134) rotate(0 1.6739553859855505 -0.8372009200823725)"><path d="M0.12 0.13 C0.6 -0.11, 2.66 -1.23, 3.16 -1.48 M-0.25 -0.11 C0.33 -0.45, 3.17 -1.71, 3.85 -2" stroke="#000" stroke-width="1" fill="none"></path></g></g><mask></mask><g stroke-linecap="round"><g transform="translate(184.6044293277679 32.62050061830626) rotate(0 1.087164098611197 -0.6144840557367786)"><path d="M-0.19 0.2 C0.11 0.02, 1.59 -0.72, 1.94 -0.92 M0.36 -0.01 C0.76 -0.29, 2.24 -1.13, 2.62 -1.38" stroke="#000" stroke-width="1" fill="none"></path></g></g><mask></mask><g stroke-linecap="round"><g transform="translate(185.05033836115683 33.15566906409486) rotate(0 0.8035560728865789 -0.5199480471618896)"><path d="M-0.23 0.31 C0.03 0.15, 1 -0.54, 1.36 -0.78 M0.29 0.17 C0.68 -0.11, 1.77 -1.11, 2.04 -1.27" stroke="#000" stroke-width="1" fill="none"></path></g></g><mask></mask><g stroke-linecap="round"><g transform="translate(212.3239233014025 49.59875673172126) rotate(332.851350188029 -3.0941529120256064 -2.137508203606661)"><path d="M-0.24 0.26 C-0.22 -0.3, 0.22 -2.29, -0.11 -3.05 C-0.44 -3.81, -1.38 -4.13, -2.2 -4.29 C-3.02 -4.45, -4.41 -4.5, -5.03 -4 C-5.64 -3.5, -5.73 -1.71, -5.9 -1.3 M0.28 0.08 C0.3 -0.27, 0.08 -1.99, -0.21 -2.66 C-0.5 -3.32, -0.65 -3.73, -1.45 -3.92 C-2.26 -4.1, -4.27 -4.25, -5.06 -3.79 C-5.85 -3.33, -5.93 -1.65, -6.19 -1.16" stroke="#000" stroke-width="1" fill="none"></path></g></g><mask></mask><g stroke-linecap="round"><g transform="translate(228.71936860059316 103.03377678062475) rotate(0 -23.405259227561146 1.0725073962777145)"><path d="M1.17 -0.35 C2.24 -0.43, 5.08 0.03, 5.62 0.41 C6.17 0.79, 5.48 1.53, 4.42 1.92 C3.35 2.31, 2.2 2.67, -0.78 2.75 C-3.76 2.82, -8.85 2.27, -13.45 2.39 C-18.05 2.51, -22.6 3.25, -28.37 3.47 C-34.14 3.69, -43.77 4.24, -48.07 3.73 C-52.36 3.22, -53.74 1.12, -54.15 0.4 C-54.56 -0.32, -51.43 -0.19, -50.52 -0.59 M0.32 -1.59 C1.86 -1.54, 7.47 1.18, 7.96 1.92 C8.46 2.66, 4.63 2.53, 3.3 2.86 C1.97 3.19, 2.97 3.98, -0.03 3.91 C-3.03 3.83, -10.14 2.61, -14.69 2.4 C-19.23 2.2, -21.84 2.57, -27.31 2.67 C-32.79 2.77, -43.42 3.4, -47.54 3.01 C-51.66 2.61, -51.79 1.11, -52.05 0.31 C-52.3 -0.48, -49.22 -1.84, -49.06 -1.78" stroke="#000" stroke-width="1" fill="none"></path></g></g><mask></mask><g stroke-linecap="round"><g transform="translate(204.3836293662572 73.24422988763678) rotate(0 1.4487816679973093 -3.32743843681142)"><path d="M-0.32 -0.03 C-2.51 -0.03, -9.9 -0.21, -12.56 -0.17 C-15.22 -0.13, -16.97 0.66, -16.29 0.21 C-15.61 -0.24, -10.29 -2.13, -8.48 -2.86 C-6.68 -3.6, -7.2 -4.14, -5.45 -4.23 C-3.7 -4.32, -0.32 -3.5, 2 -3.42 C4.33 -3.34, 6.47 -3.15, 8.49 -3.74 C10.52 -4.33, 12.67 -6.5, 14.15 -6.96 C15.63 -7.42, 16.45 -7.31, 17.38 -6.5 C18.31 -5.69, 20.33 -3.24, 19.73 -2.09 C19.14 -0.94, 15.77 0.14, 13.82 0.4 C11.86 0.66, 8.91 -0.39, 7.98 -0.53 M0.51 -0.52 C-1.54 -0.44, -8.66 0.14, -11.48 0.36 C-14.3 0.59, -16.95 1.31, -16.41 0.83 C-15.87 0.35, -10.23 -1.74, -8.27 -2.53 C-6.3 -3.33, -6.42 -3.76, -4.61 -3.94 C-2.8 -4.12, 0.4 -3.56, 2.59 -3.61 C4.79 -3.66, 6.46 -3.66, 8.55 -4.23 C10.63 -4.8, 13.73 -6.78, 15.11 -7.03 C16.49 -7.27, 15.98 -6.47, 16.82 -5.71 C17.65 -4.95, 20.58 -3.56, 20.14 -2.47 C19.7 -1.38, 16.28 0.28, 14.16 0.81 C12.03 1.33, 8.32 0.7, 7.38 0.68" stroke="#000" stroke-width="1" fill="none"></path></g></g><mask></mask><g stroke-linecap="round"><g transform="translate(205.95749197526334 110.68663380426844) rotate(0 -0.40771484375 21.474609375)"><path d="M0.26 0.36 C0.03 7.52, -0.91 35.52, -1.03 42.7" stroke="#1e1e1e" stroke-width="1.5" fill="none" stroke-dasharray="1.5 7"></path></g><g transform="translate(205.95749197526334 110.68663380426844) rotate(0 -0.40771484375 21.474609375)"><path d="M-7.84 22.33 C-4.74 29.44, -3.32 37.95, -1.03 42.7" stroke="#1e1e1e" stroke-width="1.5" fill="none" stroke-dasharray="1.5 5"></path></g><g transform="translate(205.95749197526334 110.68663380426844) rotate(0 -0.40771484375 21.474609375)"><path d="M6.85 22.72 C4.54 29.72, 0.54 38.09, -1.03 42.7" stroke="#1e1e1e" stroke-width="1.5" fill="none" stroke-dasharray="1.5 5"></path></g></g><mask></mask></svg>