<svg version="1.1" xmlns="http://www.w3.org/2000/svg" viewBox="0 0 691.8642920464049 424.6711420979541" width="691.8642920464049" height="424.6711420979541">
  <!-- svg-source:excalidraw -->
  
  <defs>
    <style class="style-fonts">
      @font-face {
        font-family: "Virgil";
        src: url("https://excalidraw.com/Virgil.woff2");
      }
      @font-face {
        font-family: "Cascadia";
        src: url("https://excalidraw.com/Cascadia.woff2");
      }
      @font-face {
        font-family: "Assistant";
        src: url("https://excalidraw.com/Assistant-Regular.woff2");
      }
    </style>
    
  </defs>
  <g stroke-linecap="round"><g transform="translate(30.535303733815454 23.230054944286714) rotate(15.883607742937135 -2.7565295420599227 2.1491586260128024)"><path d="M0 0 C0.02 -0.48, 0.62 -2.48, 0.09 -2.9 C-0.44 -3.32, -2.23 -3.21, -3.18 -2.52 C-4.13 -1.84, -5.3 -0.03, -5.61 1.21 C-5.92 2.46, -5.61 4, -5.05 4.95 C-4.49 5.9, -3.1 6.54, -2.24 6.91 C-1.39 7.29, -0.28 8.35, 0.09 7.2 C0.47 6.04, 0.02 1.2, 0 0 M0 0 C0.02 -0.48, 0.62 -2.48, 0.09 -2.9 C-0.44 -3.32, -2.23 -3.21, -3.18 -2.52 C-4.13 -1.84, -5.3 -0.03, -5.61 1.21 C-5.92 2.46, -5.61 4, -5.05 4.95 C-4.49 5.9, -3.1 6.54, -2.24 6.91 C-1.39 7.29, -0.28 8.35, 0.09 7.2 C0.47 6.04, 0.02 1.2, 0 0" stroke="#000" stroke-width="1" fill="none"></path></g></g><mask></mask><g stroke-linecap="round"><g transform="translate(54.7520038753471 30.799433857121464) rotate(15.883607742937135 2.6927702760887655 2.1491586260128024)"><path d="M0 0 C-0.02 -0.48, -0.61 -2.48, -0.09 -2.9 C0.43 -3.32, 2.18 -3.21, 3.1 -2.52 C4.03 -1.84, 5.17 -0.03, 5.48 1.21 C5.78 2.46, 5.48 4, 4.93 4.95 C4.38 5.9, 3.03 6.54, 2.19 6.91 C1.35 7.29, 0.27 8.35, -0.09 7.2 C-0.46 6.04, -0.02 1.2, 0 0 M0 0 C-0.02 -0.48, -0.61 -2.48, -0.09 -2.9 C0.43 -3.32, 2.18 -3.21, 3.1 -2.52 C4.03 -1.84, 5.17 -0.03, 5.48 1.21 C5.78 2.46, 5.48 4, 4.93 4.95 C4.38 5.9, 3.03 6.54, 2.19 6.91 C1.35 7.29, 0.27 8.35, -0.09 7.2 C-0.46 6.04, -0.02 1.2, 0 0" stroke="#000" stroke-width="1" fill="none"></path></g></g><mask></mask><g stroke-linecap="round"><g transform="translate(31.72030915517894 24.67848754457082) rotate(15.883607742937135 13.922810229387267 -7.128553746096841)"><path d="M0 0 C0.19 -1.27, -0.03 -5.49, 1.11 -7.61 C2.26 -9.74, 4.67 -11.65, 6.87 -12.76 C9.06 -13.87, 11.82 -14.23, 14.29 -14.26 C16.77 -14.28, 19.7 -13.91, 21.72 -12.9 C23.74 -11.89, 25.39 -10.23, 26.41 -8.21 C27.43 -6.18, 27.61 -1.99, 27.85 -0.75 M0 0 C0.19 -1.27, -0.03 -5.49, 1.11 -7.61 C2.26 -9.74, 4.67 -11.65, 6.87 -12.76 C9.06 -13.87, 11.82 -14.23, 14.29 -14.26 C16.77 -14.28, 19.7 -13.91, 21.72 -12.9 C23.74 -11.89, 25.39 -10.23, 26.41 -8.21 C27.43 -6.18, 27.61 -1.99, 27.85 -0.75" stroke="#000" stroke-width="1" fill="none"></path></g></g><mask></mask><g stroke-linecap="round"><g transform="translate(25.93096487152866 31.452387941363874) rotate(15.883607742937135 5.232734045944198 2.5893809106567076)"><path d="M0 0 C0.22 0.48, 0.65 2.04, 1.31 2.91 C1.98 3.77, 3 4.84, 3.99 5.18 C4.99 5.52, 6.21 5.24, 7.29 4.95 C8.37 4.67, 9.94 3.71, 10.47 3.46 M0 0 C0.22 0.48, 0.65 2.04, 1.31 2.91 C1.98 3.77, 3 4.84, 3.99 5.18 C4.99 5.52, 6.21 5.24, 7.29 4.95 C8.37 4.67, 9.94 3.71, 10.47 3.46" stroke="#000" stroke-width="1" fill="none"></path></g></g><mask></mask><g stroke-linecap="round" transform="translate(35.86183013711411 35.28223082788775) rotate(15.883607742937135 2.2426003054046646 1.074579313006403)"><path d="M4.49 1.07 C4.49 1.14, 4.47 1.2, 4.45 1.26 C4.43 1.32, 4.39 1.38, 4.35 1.44 C4.31 1.5, 4.25 1.56, 4.18 1.61 C4.12 1.67, 4.04 1.72, 3.96 1.77 C3.88 1.81, 3.78 1.86, 3.68 1.9 C3.58 1.94, 3.48 1.97, 3.36 2.01 C3.25 2.04, 3.13 2.06, 3.01 2.08 C2.89 2.11, 2.76 2.12, 2.63 2.13 C2.5 2.14, 2.37 2.15, 2.24 2.15 C2.11 2.15, 1.98 2.14, 1.85 2.13 C1.73 2.12, 1.6 2.11, 1.48 2.08 C1.35 2.06, 1.23 2.04, 1.12 2.01 C1.01 1.97, 0.9 1.94, 0.8 1.9 C0.7 1.86, 0.61 1.81, 0.52 1.77 C0.44 1.72, 0.37 1.67, 0.3 1.61 C0.24 1.56, 0.18 1.5, 0.14 1.44 C0.09 1.38, 0.06 1.32, 0.03 1.26 C0.01 1.2, 0 1.14, 0 1.07 C0 1.01, 0.01 0.95, 0.03 0.89 C0.06 0.83, 0.09 0.77, 0.14 0.71 C0.18 0.65, 0.24 0.59, 0.3 0.54 C0.37 0.48, 0.44 0.43, 0.52 0.38 C0.61 0.34, 0.7 0.29, 0.8 0.25 C0.9 0.21, 1.01 0.18, 1.12 0.14 C1.23 0.11, 1.35 0.09, 1.48 0.06 C1.6 0.04, 1.73 0.03, 1.85 0.02 C1.98 0.01, 2.11 0, 2.24 0 C2.37 0, 2.5 0.01, 2.63 0.02 C2.76 0.03, 2.89 0.04, 3.01 0.06 C3.13 0.09, 3.25 0.11, 3.36 0.14 C3.48 0.18, 3.58 0.21, 3.68 0.25 C3.78 0.29, 3.88 0.34, 3.96 0.38 C4.04 0.43, 4.12 0.48, 4.18 0.54 C4.25 0.59, 4.31 0.65, 4.35 0.71 C4.39 0.77, 4.43 0.83, 4.45 0.89 C4.47 0.95, 4.48 1.04, 4.49 1.07 C4.49 1.11, 4.49 1.04, 4.49 1.07" stroke="#000" stroke-width="1" fill="none"></path></g><g stroke-linecap="round" transform="translate(29.902699906981297 15.585049938329398) rotate(17.19659740966481 12.663893243539974 13.095616876842485)"><path d="M25.33 13.1 C25.33 13.85, 25.26 14.62, 25.14 15.37 C25.01 16.12, 24.81 16.86, 24.56 17.57 C24.31 18.29, 24 18.99, 23.63 19.64 C23.26 20.3, 22.84 20.93, 22.36 21.51 C21.89 22.09, 21.37 22.64, 20.8 23.13 C20.24 23.61, 19.63 24.06, 19 24.44 C18.36 24.82, 17.68 25.14, 17 25.4 C16.31 25.66, 15.58 25.86, 14.86 25.99 C14.14 26.12, 13.4 26.19, 12.66 26.19 C11.93 26.19, 11.19 26.12, 10.46 25.99 C9.74 25.86, 9.02 25.66, 8.33 25.4 C7.64 25.14, 6.97 24.82, 6.33 24.44 C5.7 24.06, 5.09 23.61, 4.52 23.13 C3.96 22.64, 3.43 22.09, 2.96 21.51 C2.49 20.93, 2.06 20.3, 1.7 19.64 C1.33 18.99, 1.01 18.29, 0.76 17.57 C0.51 16.86, 0.32 16.12, 0.19 15.37 C0.07 14.62, 0 13.85, 0 13.1 C0 12.34, 0.07 11.57, 0.19 10.82 C0.32 10.08, 0.51 9.33, 0.76 8.62 C1.01 7.9, 1.33 7.2, 1.7 6.55 C2.06 5.89, 2.49 5.26, 2.96 4.68 C3.43 4.1, 3.96 3.55, 4.52 3.06 C5.09 2.58, 5.7 2.13, 6.33 1.75 C6.97 1.38, 7.64 1.05, 8.33 0.79 C9.02 0.53, 9.74 0.33, 10.46 0.2 C11.19 0.07, 11.93 0, 12.66 0 C13.4 0, 14.14 0.07, 14.86 0.2 C15.58 0.33, 16.31 0.53, 17 0.79 C17.68 1.05, 18.36 1.38, 19 1.75 C19.63 2.13, 20.24 2.58, 20.8 3.06 C21.37 3.55, 21.89 4.1, 22.36 4.68 C22.84 5.26, 23.26 5.89, 23.63 6.55 C24 7.2, 24.31 7.9, 24.56 8.62 C24.81 9.33, 25.01 10.08, 25.14 10.82 C25.26 11.57, 25.3 12.72, 25.33 13.1 C25.36 13.47, 25.36 12.72, 25.33 13.1" stroke="#000" stroke-width="1" fill="none"></path></g><g stroke-linecap="round" transform="translate(22.597404629481048 49.46879304324924) rotate(0 18.898667614489966 11.350220199956077)"><path d="M0 0 C10.29 0, 20.58 0, 37.8 0 M0 0 C13.4 0, 26.8 0, 37.8 0 M37.8 0 C37.8 6.23, 37.8 12.46, 37.8 22.7 M37.8 0 C37.8 4.91, 37.8 9.83, 37.8 22.7 M37.8 22.7 C25.57 22.7, 13.34 22.7, 0 22.7 M37.8 22.7 C26.77 22.7, 15.74 22.7, 0 22.7 M0 22.7 C0 14.43, 0 6.15, 0 0 M0 22.7 C0 17, 0 11.3, 0 0" stroke="#000" stroke-width="1" fill="none"></path></g><g stroke-linecap="round" transform="translate(39.784646178222374 58.5280899018754) rotate(0 1.8733373145558403 1.8733373145558545)"><path d="M3.75 1.87 C3.75 1.98, 3.74 2.09, 3.72 2.2 C3.7 2.31, 3.67 2.41, 3.63 2.51 C3.6 2.62, 3.55 2.72, 3.5 2.81 C3.44 2.9, 3.38 2.99, 3.31 3.08 C3.24 3.16, 3.16 3.24, 3.08 3.31 C2.99 3.38, 2.9 3.44, 2.81 3.5 C2.72 3.55, 2.62 3.6, 2.51 3.63 C2.41 3.67, 2.31 3.7, 2.2 3.72 C2.09 3.74, 1.98 3.75, 1.87 3.75 C1.76 3.75, 1.65 3.74, 1.55 3.72 C1.44 3.7, 1.33 3.67, 1.23 3.63 C1.13 3.6, 1.03 3.55, 0.94 3.5 C0.84 3.44, 0.75 3.38, 0.67 3.31 C0.59 3.24, 0.51 3.16, 0.44 3.08 C0.37 2.99, 0.31 2.9, 0.25 2.81 C0.2 2.72, 0.15 2.62, 0.11 2.51 C0.08 2.41, 0.05 2.31, 0.03 2.2 C0.01 2.09, 0 1.98, 0 1.87 C0 1.76, 0.01 1.65, 0.03 1.55 C0.05 1.44, 0.08 1.33, 0.11 1.23 C0.15 1.13, 0.2 1.03, 0.25 0.94 C0.31 0.84, 0.37 0.75, 0.44 0.67 C0.51 0.59, 0.59 0.51, 0.67 0.44 C0.75 0.37, 0.84 0.31, 0.94 0.25 C1.03 0.2, 1.13 0.15, 1.23 0.11 C1.33 0.08, 1.44 0.05, 1.55 0.03 C1.65 0.01, 1.76 0, 1.87 0 C1.98 0, 2.09 0.01, 2.2 0.03 C2.31 0.05, 2.41 0.08, 2.51 0.11 C2.62 0.15, 2.72 0.2, 2.81 0.25 C2.9 0.31, 2.99 0.37, 3.08 0.44 C3.16 0.51, 3.24 0.59, 3.31 0.67 C3.38 0.75, 3.44 0.84, 3.5 0.94 C3.55 1.03, 3.6 1.13, 3.63 1.23 C3.67 1.33, 3.7 1.44, 3.72 1.55 C3.74 1.65, 3.74 1.82, 3.75 1.87 C3.75 1.93, 3.75 1.82, 3.75 1.87" stroke="#000" stroke-width="1" fill="none"></path></g><g stroke-linecap="round"><g transform="translate(32.91938600918547 24.969830983338234) rotate(17.19659740966481 3.977610751673467 0.05303481002231436)"><path d="M0 0 C1.33 0.02, 6.63 0.09, 7.96 0.11 M0 0 C1.33 0.02, 6.63 0.09, 7.96 0.11" stroke="#000" stroke-width="1" fill="none"></path></g></g><mask></mask><g stroke-linecap="round"><g transform="translate(44.06937049646274 28.548250837316665) rotate(17.19659740966481 3.977610751673467 0.05303481002231436)"><path d="M0 0 C1.33 0.02, 6.63 0.09, 7.96 0.11 M0 0 C1.33 0.02, 6.63 0.09, 7.96 0.11" stroke="#000" stroke-width="1" fill="none"></path></g></g><mask></mask><g stroke-linecap="round"><g transform="translate(33.34618122722554 24.68248878992825) rotate(17.19659740966481 0.10606962004465004 5.568655052342891)"><path d="M0 0 C0.04 1.86, 0.18 9.28, 0.21 11.14 M0 0 C0.04 1.86, 0.18 9.28, 0.21 11.14" stroke="#000" stroke-width="1" fill="none"></path></g></g><mask></mask><g stroke-linecap="round"><g transform="translate(36.67201438477548 25.63734212901027) rotate(17.19659740966481 0 6.841490492878414)"><path d="M0 0 C0 2.28, 0 11.4, 0 13.68 M0 0 C0 2.28, 0 11.4, 0 13.68" stroke="#000" stroke-width="1" fill="none"></path></g></g><mask></mask><g stroke-linecap="round"><g transform="translate(44.22171064057511 27.886839124279696) rotate(17.19659740966481 0.1591044300669182 7.106664542989975)"><path d="M0 0 C0.05 2.37, 0.27 11.84, 0.32 14.21 M0 0 C0.05 2.37, 0.27 11.84, 0.32 14.21" stroke="#000" stroke-width="1" fill="none"></path></g></g><mask></mask><g stroke-linecap="round"><g transform="translate(47.94791931825057 29.001463472251324) rotate(17.19659740966481 0.1591044300669182 6.205072772610649)"><path d="M0 0 C0.05 2.07, 0.27 10.34, 0.32 12.41 M0 0 C0.05 2.07, 0.27 10.34, 0.32 12.41" stroke="#000" stroke-width="1" fill="none"></path></g></g><mask></mask><g stroke-linecap="round"><g transform="translate(34.857432104204804 22.39912558396322) rotate(17.19659740966481 3.288158221383412 -1.2728354405355198)"><path d="M0 0 C0.87 -0.14, 4.1 -0.42, 5.2 -0.85 C6.29 -1.27, 6.35 -2.26, 6.58 -2.55 M0 0 C0.87 -0.14, 4.1 -0.42, 5.2 -0.85 C6.29 -1.27, 6.35 -2.26, 6.58 -2.55" stroke="#000" stroke-width="1" fill="none"></path></g></g><mask></mask><g stroke-linecap="round"><g transform="translate(46.20582336954374 22.837250150515878) rotate(17.19659740966481 2.8638797412049257 1.4849746806247701)"><path d="M0 0 C0.32 0.35, 0.95 1.63, 1.91 2.12 C2.86 2.62, 5.09 2.83, 5.73 2.97 M0 0 C0.32 0.35, 0.95 1.63, 1.91 2.12 C2.86 2.62, 5.09 2.83, 5.73 2.97" stroke="#000" stroke-width="1" fill="none"></path></g></g><mask></mask><g stroke-linecap="round"><g transform="translate(55.215391433639525 47.33339631283584) rotate(0 -13.20814126138589 -2.204057674461616)"><path d="M0 0 C-0.37 -0.32, -1.49 -1.19, -2.21 -1.92 C-2.93 -2.65, -3.59 -4.2, -4.32 -4.38 C-5.06 -4.56, -5.38 -3.41, -6.62 -3 C-7.85 -2.59, -10.08 -2.05, -11.74 -1.92 C-13.4 -1.79, -15.05 -2, -16.59 -2.23 C-18.14 -2.46, -20.09 -2.91, -21.01 -3.31 C-21.92 -3.7, -21.61 -4.73, -22.06 -4.62 C-22.52 -4.5, -23.02 -3.39, -23.74 -2.62 C-24.47 -1.84, -26.46 -0.41, -26.42 0.06 C-26.37 0.53, -24.47 0.19, -23.46 0.21 C-22.44 0.22, -20.86 0.17, -20.34 0.16 M0 0 C-0.37 -0.32, -1.49 -1.19, -2.21 -1.92 C-2.93 -2.65, -3.59 -4.2, -4.32 -4.38 C-5.06 -4.56, -5.38 -3.41, -6.62 -3 C-7.85 -2.59, -10.08 -2.05, -11.74 -1.92 C-13.4 -1.79, -15.05 -2, -16.59 -2.23 C-18.14 -2.46, -20.09 -2.91, -21.01 -3.31 C-21.92 -3.7, -21.61 -4.73, -22.06 -4.62 C-22.52 -4.5, -23.02 -3.39, -23.74 -2.62 C-24.47 -1.84, -26.46 -0.41, -26.42 0.06 C-26.37 0.53, -24.47 0.19, -23.46 0.21 C-22.44 0.22, -20.86 0.17, -20.34 0.16" stroke="#000" stroke-width="1" fill="none"></path></g></g><mask></mask><g stroke-linecap="round"><g transform="translate(60.717368957421854 72.2907998262962) rotate(358.16007135453435 -19.450244597927906 1.089748941274948)"><path d="M0 0 C0.88 0.09, 4.56 0.03, 5.26 0.52 C5.97 1, 5.35 2.5, 4.23 2.89 C3.11 3.29, 1.35 2.89, -1.44 2.89 C-4.24 2.89, -8.58 2.82, -12.53 2.88 C-16.48 2.94, -20.62 3.36, -25.16 3.24 C-29.69 3.11, -36.57 2.69, -39.74 2.13 C-42.9 1.57, -43.93 0.43, -44.16 -0.1 C-44.4 -0.63, -41.64 -0.9, -41.13 -1.06 M0 0 C0.88 0.09, 4.56 0.03, 5.26 0.52 C5.97 1, 5.35 2.5, 4.23 2.89 C3.11 3.29, 1.35 2.89, -1.44 2.89 C-4.24 2.89, -8.58 2.82, -12.53 2.88 C-16.48 2.94, -20.62 3.36, -25.16 3.24 C-29.69 3.11, -36.57 2.69, -39.74 2.13 C-42.9 1.57, -43.93 0.43, -44.16 -0.1 C-44.4 -0.63, -41.64 -0.9, -41.13 -1.06" stroke="#000" stroke-width="1" fill="none"></path></g></g><mask></mask><g transform="translate(10 87.52100304351842) rotate(0 33.74661440699151 7.761721313608049)"><text x="0" y="12.419017747197927" font-family="Helvetica, Segoe UI Emoji" font-size="13.498645762796603px" fill="#1e1e1e" text-anchor="start" style="white-space: pre;" direction="ltr" dominant-baseline="alphabetic">渲染主线程</text></g><g stroke-linecap="round"><g transform="translate(97.19198980031115 58.66541124690638) rotate(0 289.4531555175781 1.3546295166015625)"><path d="M0 0 C96.48 0.45, 482.42 2.26, 578.91 2.71 M0 0 C96.48 0.45, 482.42 2.26, 578.91 2.71" stroke="#1e1e1e" stroke-width="1" fill="none"></path></g><g transform="translate(97.19198980031115 58.66541124690638) rotate(0 289.4531555175781 1.3546295166015625)"><path d="M555.37 11.15 C560.2 9.42, 565.02 7.69, 578.91 2.71 M555.37 11.15 C563.71 8.16, 572.05 5.17, 578.91 2.71" stroke="#1e1e1e" stroke-width="1" fill="none"></path></g><g transform="translate(97.19198980031115 58.66541124690638) rotate(0 289.4531555175781 1.3546295166015625)"><path d="M555.45 -5.95 C560.26 -4.18, 565.06 -2.4, 578.91 2.71 M555.45 -5.95 C563.76 -2.88, 572.08 0.19, 578.91 2.71" stroke="#1e1e1e" stroke-width="1" fill="none"></path></g></g><mask></mask><g stroke-linecap="round"><g transform="translate(95.58993901906115 181.4439757000314) rotate(0 292.8702697753906 2.21942138671875)"><path d="M0 0 C97.62 0.74, 488.12 3.7, 585.74 4.44 M0 0 C97.62 0.74, 488.12 3.7, 585.74 4.44" stroke="#1e1e1e" stroke-width="1" fill="none"></path></g><g transform="translate(95.58993901906115 181.4439757000314) rotate(0 292.8702697753906 2.21942138671875)"><path d="M562.18 12.81 C567.03 11.09, 571.88 9.37, 585.74 4.44 M562.18 12.81 C568.59 10.54, 574.99 8.26, 585.74 4.44" stroke="#1e1e1e" stroke-width="1" fill="none"></path></g><g transform="translate(95.58993901906115 181.4439757000314) rotate(0 292.8702697753906 2.21942138671875)"><path d="M562.31 -4.29 C567.13 -2.49, 571.96 -0.7, 585.74 4.44 M562.31 -4.29 C568.68 -1.92, 575.05 0.45, 585.74 4.44" stroke="#1e1e1e" stroke-width="1" fill="none"></path></g></g><mask></mask><g stroke-linecap="round"><g transform="translate(97.86166753468615 293.013220084797) rotate(0 292.0013122558594 1.5896148681640625)"><path d="M0 0 C97.33 0.53, 486.67 2.65, 584 3.18 M0 0 C97.33 0.53, 486.67 2.65, 584 3.18" stroke="#1e1e1e" stroke-width="1" fill="none"></path></g><g transform="translate(97.86166753468615 293.013220084797) rotate(0 292.0013122558594 1.5896148681640625)"><path d="M560.46 11.6 C568 8.91, 575.53 6.21, 584 3.18 M560.46 11.6 C568.14 8.85, 575.82 6.11, 584 3.18" stroke="#1e1e1e" stroke-width="1" fill="none"></path></g><g transform="translate(97.86166753468615 293.013220084797) rotate(0 292.0013122558594 1.5896148681640625)"><path d="M560.56 -5.5 C568.06 -2.72, 575.56 0.06, 584 3.18 M560.56 -5.5 C568.21 -2.67, 575.86 0.16, 584 3.18" stroke="#1e1e1e" stroke-width="1" fill="none"></path></g></g><mask></mask><g stroke-linecap="round" transform="translate(108.0597266167174 18.35108019221888) rotate(0 27.3734130859375 17.338241577148438)"><path d="M8.67 0 C17.68 0, 26.7 0, 46.08 0 M8.67 0 C20.6 0, 32.53 0, 46.08 0 M46.08 0 C51.86 0, 54.75 2.89, 54.75 8.67 M46.08 0 C51.86 0, 54.75 2.89, 54.75 8.67 M54.75 8.67 C54.75 13.88, 54.75 19.08, 54.75 26.01 M54.75 8.67 C54.75 13.35, 54.75 18.03, 54.75 26.01 M54.75 26.01 C54.75 31.79, 51.86 34.68, 46.08 34.68 M54.75 26.01 C54.75 31.79, 51.86 34.68, 46.08 34.68 M46.08 34.68 C34.5 34.68, 22.93 34.68, 8.67 34.68 M46.08 34.68 C33.17 34.68, 20.27 34.68, 8.67 34.68 M8.67 34.68 C2.89 34.68, 0 31.79, 0 26.01 M8.67 34.68 C2.89 34.68, 0 31.79, 0 26.01 M0 26.01 C0 20.05, 0 14.09, 0 8.67 M0 26.01 C0 21.44, 0 16.88, 0 8.67 M0 8.67 C0 2.89, 2.89 0, 8.67 0 M0 8.67 C0 2.89, 2.89 0, 8.67 0" stroke="#1e1e1e" stroke-width="1" fill="none"></path></g><g transform="translate(116.7690772026549 26.489321769367315) rotate(0 18.6640625 9.199999999999996)"><text x="18.6640625" y="14.720312499999999" font-family="Helvetica, Segoe UI Emoji" font-size="16px" fill="#1e1e1e" text-anchor="middle" style="white-space: pre;" direction="ltr" dominant-baseline="alphabetic">DOM</text></g><g stroke-linecap="round" transform="translate(171.51430120167834 18.35108019221888) rotate(0 25.01116943359375 17.338241577148438)"><path d="M8.67 0 C16.39 0, 24.11 0, 41.35 0 M8.67 0 C18.97 0, 29.28 0, 41.35 0 M41.35 0 C47.13 0, 50.02 2.89, 50.02 8.67 M41.35 0 C47.13 0, 50.02 2.89, 50.02 8.67 M50.02 8.67 C50.02 14.99, 50.02 21.3, 50.02 26.01 M50.02 8.67 C50.02 15.43, 50.02 22.2, 50.02 26.01 M50.02 26.01 C50.02 31.79, 47.13 34.68, 41.35 34.68 M50.02 26.01 C50.02 31.79, 47.13 34.68, 41.35 34.68 M41.35 34.68 C32.16 34.68, 22.97 34.68, 8.67 34.68 M41.35 34.68 C28.86 34.68, 16.37 34.68, 8.67 34.68 M8.67 34.68 C2.89 34.68, 0 31.79, 0 26.01 M8.67 34.68 C2.89 34.68, 0 31.79, 0 26.01 M0 26.01 C0 21.94, 0 17.88, 0 8.67 M0 26.01 C0 19.75, 0 13.49, 0 8.67 M0 8.67 C0 2.89, 2.89 0, 8.67 0 M0 8.67 C0 2.89, 2.89 0, 8.67 0" stroke="#1e1e1e" stroke-width="1" fill="none"></path></g><g transform="translate(178.7403143852721 26.489321769367315) rotate(0 17.78515625 9.199999999999996)"><text x="17.78515625" y="14.720312499999999" font-family="Helvetica, Segoe UI Emoji" font-size="16px" fill="#1e1e1e" text-anchor="middle" style="white-space: pre;" direction="ltr" dominant-baseline="alphabetic">Style</text></g><g stroke-linecap="round" transform="translate(234.96887578663927 18.699392570148568) rotate(0 29.805511474609375 16.98992919921875)"><path d="M8.49 0 C17.69 0, 26.89 0, 51.12 0 M8.49 0 C22.16 0, 35.82 0, 51.12 0 M51.12 0 C56.78 0, 59.61 2.83, 59.61 8.49 M51.12 0 C56.78 0, 59.61 2.83, 59.61 8.49 M59.61 8.49 C59.61 13.93, 59.61 19.37, 59.61 25.48 M59.61 8.49 C59.61 14.89, 59.61 21.28, 59.61 25.48 M59.61 25.48 C59.61 31.15, 56.78 33.98, 51.12 33.98 M59.61 25.48 C59.61 31.15, 56.78 33.98, 51.12 33.98 M51.12 33.98 C38.02 33.98, 24.93 33.98, 8.49 33.98 M51.12 33.98 C41.88 33.98, 32.64 33.98, 8.49 33.98 M8.49 33.98 C2.83 33.98, 0 31.15, 0 25.48 M8.49 33.98 C2.83 33.98, 0 31.15, 0 25.48 M0 25.48 C0 20.07, 0 14.66, 0 8.49 M0 25.48 C0 21.54, 0 17.6, 0 8.49 M0 8.49 C0 2.83, 2.83 0, 8.49 0 M0 8.49 C0 2.83, 2.83 0, 8.49 0" stroke="#1e1e1e" stroke-width="1" fill="none"></path></g><g transform="translate(240.75485601124865 26.489321769367315) rotate(0 24.01953125 9.199999999999996)"><text x="24.01953125" y="14.720312499999999" font-family="Helvetica, Segoe UI Emoji" font-size="16px" fill="#1e1e1e" text-anchor="middle" style="white-space: pre;" direction="ltr" dominant-baseline="alphabetic">Layout</text></g><g stroke-linecap="round" transform="translate(304.6807745903502 19.73200060237513) rotate(0 25.073822021484375 16.689620971679688)"><path d="M8.34 0 C17.85 0, 27.35 0, 41.8 0 M8.34 0 C20.72 0, 33.1 0, 41.8 0 M41.8 0 C47.37 0, 50.15 2.78, 50.15 8.34 M41.8 0 C47.37 0, 50.15 2.78, 50.15 8.34 M50.15 8.34 C50.15 13.07, 50.15 17.79, 50.15 25.03 M50.15 8.34 C50.15 12.14, 50.15 15.94, 50.15 25.03 M50.15 25.03 C50.15 30.6, 47.37 33.38, 41.8 33.38 M50.15 25.03 C50.15 30.6, 47.37 33.38, 41.8 33.38 M41.8 33.38 C34.62 33.38, 27.45 33.38, 8.34 33.38 M41.8 33.38 C28.79 33.38, 15.77 33.38, 8.34 33.38 M8.34 33.38 C2.78 33.38, 0 30.6, 0 25.03 M8.34 33.38 C2.78 33.38, 0 30.6, 0 25.03 M0 25.03 C0 18.84, 0 12.65, 0 8.34 M0 25.03 C0 21.36, 0 17.69, 0 8.34 M0 8.34 C0 2.78, 2.78 0, 8.34 0 M0 8.34 C0 2.78, 2.78 0, 8.34 0" stroke="#1e1e1e" stroke-width="1" fill="none"></path></g><g transform="translate(309.7428778618346 27.221621574054815) rotate(0 20.01171875 9.199999999999996)"><text x="20.01171875" y="14.720312499999999" font-family="Helvetica, Segoe UI Emoji" font-size="16px" fill="#1e1e1e" text-anchor="middle" style="white-space: pre;" direction="ltr" dominant-baseline="alphabetic">Layer</text></g><g stroke-linecap="round" transform="translate(363.8829688042174 20.705724967609505) rotate(0 25.7598876953125 16.900070190429688)"><path d="M8.45 0 C16.88 0, 25.31 0, 43.07 0 M8.45 0 C19.17 0, 29.89 0, 43.07 0 M43.07 0 C48.7 0, 51.52 2.82, 51.52 8.45 M43.07 0 C48.7 0, 51.52 2.82, 51.52 8.45 M51.52 8.45 C51.52 12.57, 51.52 16.68, 51.52 25.35 M51.52 8.45 C51.52 12.2, 51.52 15.95, 51.52 25.35 M51.52 25.35 C51.52 30.98, 48.7 33.8, 43.07 33.8 M51.52 25.35 C51.52 30.98, 48.7 33.8, 43.07 33.8 M43.07 33.8 C32.76 33.8, 22.45 33.8, 8.45 33.8 M43.07 33.8 C34.6 33.8, 26.13 33.8, 8.45 33.8 M8.45 33.8 C2.82 33.8, 0 30.98, 0 25.35 M8.45 33.8 C2.82 33.8, 0 30.98, 0 25.35 M0 25.35 C0 21.62, 0 17.9, 0 8.45 M0 25.35 C0 20.99, 0 16.62, 0 8.45 M0 8.45 C0 2.82, 2.82 0, 8.45 0 M0 8.45 C0 2.82, 2.82 0, 8.45 0" stroke="#1e1e1e" stroke-width="1" fill="none"></path></g><g transform="translate(371.4084814995299 28.40579515803919) rotate(0 18.234375 9.199999999999996)"><text x="18.234375" y="14.720312499999999" font-family="Helvetica, Segoe UI Emoji" font-size="16px" fill="#1e1e1e" text-anchor="middle" style="white-space: pre;" direction="ltr" dominant-baseline="alphabetic">Paint</text></g><g stroke-linecap="round" transform="translate(410.9258154839049 142.68320299495326) rotate(0 23.235382080078125 16.900070190429688)"><path d="M8.45 0 C16.07 0, 23.69 0, 38.02 0 M8.45 0 C17.17 0, 25.9 0, 38.02 0 M38.02 0 C43.65 0, 46.47 2.82, 46.47 8.45 M38.02 0 C43.65 0, 46.47 2.82, 46.47 8.45 M46.47 8.45 C46.47 13.21, 46.47 17.98, 46.47 25.35 M46.47 8.45 C46.47 11.93, 46.47 15.41, 46.47 25.35 M46.47 25.35 C46.47 30.98, 43.65 33.8, 38.02 33.8 M46.47 25.35 C46.47 30.98, 43.65 33.8, 38.02 33.8 M38.02 33.8 C29.69 33.8, 21.36 33.8, 8.45 33.8 M38.02 33.8 C26.96 33.8, 15.9 33.8, 8.45 33.8 M8.45 33.8 C2.82 33.8, 0 30.98, 0 25.35 M8.45 33.8 C2.82 33.8, 0 30.98, 0 25.35 M0 25.35 C0 19.65, 0 13.95, 0 8.45 M0 25.35 C0 21.67, 0 17.99, 0 8.45 M0 8.45 C0 2.82, 2.82 0, 8.45 0 M0 8.45 C0 2.82, 2.82 0, 8.45 0" stroke="#1e1e1e" stroke-width="1" fill="none"></path></g><g transform="translate(417.563541313983 150.38327318538296) rotate(0 16.59765625 9.200000000000003)"><text x="16.59765625" y="14.720312499999999" font-family="Helvetica, Segoe UI Emoji" font-size="16px" fill="#1e1e1e" text-anchor="middle" style="white-space: pre;" direction="ltr" dominant-baseline="alphabetic">Tiles</text></g><g stroke-linecap="round" transform="translate(466.5047949760924 144.05807329524623) rotate(0 33.478515625 16.255142211914062)"><path d="M8.13 0 C19.71 0, 31.3 0, 58.83 0 M8.13 0 C26.44 0, 44.75 0, 58.83 0 M58.83 0 C64.25 0, 66.96 2.71, 66.96 8.13 M58.83 0 C64.25 0, 66.96 2.71, 66.96 8.13 M66.96 8.13 C66.96 13.27, 66.96 18.42, 66.96 24.38 M66.96 8.13 C66.96 13.66, 66.96 19.18, 66.96 24.38 M66.96 24.38 C66.96 29.8, 64.25 32.51, 58.83 32.51 M66.96 24.38 C66.96 29.8, 64.25 32.51, 58.83 32.51 M58.83 32.51 C48.34 32.51, 37.85 32.51, 8.13 32.51 M58.83 32.51 C47.85 32.51, 36.88 32.51, 8.13 32.51 M8.13 32.51 C2.71 32.51, 0 29.8, 0 24.38 M8.13 32.51 C2.71 32.51, 0 29.8, 0 24.38 M0 24.38 C0 18.4, 0 12.42, 0 8.13 M0 24.38 C0 18.28, 0 12.18, 0 8.13 M0 8.13 C0 2.71, 2.71 0, 8.13 0 M0 8.13 C0 2.71, 2.71 0, 8.13 0" stroke="#1e1e1e" stroke-width="1" fill="none"></path></g><g transform="translate(476.4208106010924 151.1132155071603) rotate(0 23.5625 9.200000000000003)"><text x="23.5625" y="14.720312499999999" font-family="Helvetica, Segoe UI Emoji" font-size="16px" fill="#1e1e1e" text-anchor="middle" style="white-space: pre;" direction="ltr" dominant-baseline="alphabetic">Raster</text></g><g stroke-linecap="round" transform="translate(470.17416753468615 254.67584825862514) rotate(0 33.7215576171875 16.255142211914062)"><path d="M8.13 0 C27.89 0, 47.65 0, 59.32 0 M8.13 0 C23.44 0, 38.75 0, 59.32 0 M59.32 0 C64.73 0, 67.44 2.71, 67.44 8.13 M59.32 0 C64.73 0, 67.44 2.71, 67.44 8.13 M67.44 8.13 C67.44 11.89, 67.44 15.66, 67.44 24.38 M67.44 8.13 C67.44 12.95, 67.44 17.76, 67.44 24.38 M67.44 24.38 C67.44 29.8, 64.73 32.51, 59.32 32.51 M67.44 24.38 C67.44 29.8, 64.73 32.51, 59.32 32.51 M59.32 32.51 C44.6 32.51, 29.87 32.51, 8.13 32.51 M59.32 32.51 C41.41 32.51, 23.5 32.51, 8.13 32.51 M8.13 32.51 C2.71 32.51, 0 29.8, 0 24.38 M8.13 32.51 C2.71 32.51, 0 29.8, 0 24.38 M0 24.38 C0 19.54, 0 14.7, 0 8.13 M0 24.38 C0 18.07, 0 11.75, 0 8.13 M0 8.13 C0 2.71, 2.71 0, 8.13 0 M0 8.13 C0 2.71, 2.71 0, 8.13 0" stroke="#1e1e1e" stroke-width="1" fill="none"></path></g><g transform="translate(480.33322515187365 261.7309904705392) rotate(0 23.5625 9.199999999999989)"><text x="23.5625" y="14.720312499999999" font-family="Helvetica, Segoe UI Emoji" font-size="16px" fill="#1e1e1e" text-anchor="middle" style="white-space: pre;" direction="ltr" dominant-baseline="alphabetic">Raster</text></g><g stroke-linecap="round" transform="translate(567.1343726128111 255.06036974300014) rotate(0 29.66766357421875 16.255142211914062)"><path d="M8.13 0 C19.46 0, 30.79 0, 51.21 0 M8.13 0 C24.05 0, 39.96 0, 51.21 0 M51.21 0 C56.63 0, 59.34 2.71, 59.34 8.13 M51.21 0 C56.63 0, 59.34 2.71, 59.34 8.13 M59.34 8.13 C59.34 11.97, 59.34 15.82, 59.34 24.38 M59.34 8.13 C59.34 14.19, 59.34 20.26, 59.34 24.38 M59.34 24.38 C59.34 29.8, 56.63 32.51, 51.21 32.51 M59.34 24.38 C59.34 29.8, 56.63 32.51, 51.21 32.51 M51.21 32.51 C38.6 32.51, 25.99 32.51, 8.13 32.51 M51.21 32.51 C39.24 32.51, 27.28 32.51, 8.13 32.51 M8.13 32.51 C2.71 32.51, 0 29.8, 0 24.38 M8.13 32.51 C2.71 32.51, 0 29.8, 0 24.38 M0 24.38 C0 20.15, 0 15.92, 0 8.13 M0 24.38 C0 18.76, 0 13.14, 0 8.13 M0 8.13 C0 2.71, 2.71 0, 8.13 0 M0 8.13 C0 2.71, 2.71 0, 8.13 0" stroke="#1e1e1e" stroke-width="1" fill="none"></path></g><g transform="translate(578.1340674370299 262.1155119549142) rotate(0 18.66796875 9.199999999999989)"><text x="18.66796875" y="14.720312499999999" font-family="Helvetica, Segoe UI Emoji" font-size="16px" fill="#1e1e1e" text-anchor="middle" style="white-space: pre;" direction="ltr" dominant-baseline="alphabetic">Draw</text></g><g stroke-linecap="round" transform="translate(542.5700415581236 144.26547838557826) rotate(0 49.74835205078125 16.777679443359375)"><path d="M8.39 0 C39.64 0, 70.89 0, 91.11 0 M8.39 0 C32.99 0, 57.59 0, 91.11 0 M91.11 0 C96.7 0, 99.5 2.8, 99.5 8.39 M91.11 0 C96.7 0, 99.5 2.8, 99.5 8.39 M99.5 8.39 C99.5 14.06, 99.5 19.74, 99.5 25.17 M99.5 8.39 C99.5 14.98, 99.5 21.57, 99.5 25.17 M99.5 25.17 C99.5 30.76, 96.7 33.56, 91.11 33.56 M99.5 25.17 C99.5 30.76, 96.7 33.56, 91.11 33.56 M91.11 33.56 C73.21 33.56, 55.31 33.56, 8.39 33.56 M91.11 33.56 C59.54 33.56, 27.97 33.56, 8.39 33.56 M8.39 33.56 C2.8 33.56, 0 30.76, 0 25.17 M8.39 33.56 C2.8 33.56, 0 30.76, 0 25.17 M0 25.17 C0 19.95, 0 14.73, 0 8.39 M0 25.17 C0 19.07, 0 12.98, 0 8.39 M0 8.39 C0 2.8, 2.8 0, 8.39 0 M0 8.39 C0 2.8, 2.8 0, 8.39 0" stroke="#1e1e1e" stroke-width="1" fill="none"></path></g><g transform="translate(551.8574561089049 151.84315782893765) rotate(0 40.4609375 9.200000000000003)"><text x="40.4609375" y="14.720312499999999" font-family="Helvetica, Segoe UI Emoji" font-size="16px" fill="#1e1e1e" text-anchor="middle" style="white-space: pre;" direction="ltr" dominant-baseline="alphabetic">Draw Quad</text></g><g stroke-linecap="round"><g transform="translate(399.1480254400583 65.32785631526576) rotate(0 -9.030630124561071 43.45728776836637)"><path d="M0 0 C-3.01 8.7, -17.55 37.73, -18.06 52.21 C-18.57 66.7, -5.57 81.13, -3.07 86.91 M0 0 C-3.01 8.7, -17.55 37.73, -18.06 52.21 C-18.57 66.7, -5.57 81.13, -3.07 86.91" stroke="#1e1e1e" stroke-width="1" fill="none"></path></g><g transform="translate(399.1480254400583 65.32785631526576) rotate(0 -9.030630124561071 43.45728776836637)"><path d="M-17.81 75.09 C-12.58 79.28, -7.35 83.48, -3.07 86.91 M-17.81 75.09 C-12.37 79.46, -6.92 83.83, -3.07 86.91" stroke="#1e1e1e" stroke-width="1" fill="none"></path></g><g transform="translate(399.1480254400583 65.32785631526576) rotate(0 -9.030630124561071 43.45728776836637)"><path d="M-6.76 68.38 C-5.45 74.96, -4.14 81.54, -3.07 86.91 M-6.76 68.38 C-5.4 75.23, -4.04 82.07, -3.07 86.91" stroke="#1e1e1e" stroke-width="1" fill="none"></path></g></g><mask></mask><g stroke-linecap="round" transform="translate(29.615373099292583 148.71729036285097) rotate(0 11.751695247694613 12.152321222047846)"><path d="M23.5 12.15 C23.5 12.86, 23.44 13.57, 23.32 14.26 C23.21 14.96, 23.03 15.65, 22.79 16.31 C22.56 16.97, 22.27 17.62, 21.93 18.23 C21.59 18.84, 21.19 19.42, 20.75 19.96 C20.32 20.5, 19.83 21.01, 19.31 21.46 C18.78 21.91, 18.22 22.32, 17.63 22.68 C17.04 23.03, 16.41 23.33, 15.77 23.57 C15.13 23.81, 14.46 24, 13.79 24.12 C13.12 24.24, 12.43 24.3, 11.75 24.3 C11.07 24.3, 10.38 24.24, 9.71 24.12 C9.04 24, 8.37 23.81, 7.73 23.57 C7.09 23.33, 6.46 23.03, 5.88 22.68 C5.29 22.32, 4.72 21.91, 4.2 21.46 C3.68 21.01, 3.19 20.5, 2.75 19.96 C2.31 19.42, 1.91 18.84, 1.57 18.23 C1.23 17.62, 0.94 16.97, 0.71 16.31 C0.48 15.65, 0.3 14.96, 0.18 14.26 C0.06 13.57, 0 12.86, 0 12.15 C0 11.45, 0.06 10.73, 0.18 10.04 C0.3 9.35, 0.48 8.66, 0.71 8 C0.94 7.33, 1.23 6.69, 1.57 6.08 C1.91 5.47, 2.31 4.88, 2.75 4.34 C3.19 3.8, 3.68 3.3, 4.2 2.84 C4.72 2.39, 5.29 1.98, 5.88 1.63 C6.46 1.28, 7.09 0.97, 7.73 0.73 C8.37 0.49, 9.04 0.31, 9.71 0.18 C10.38 0.06, 11.07 0, 11.75 0 C12.43 0, 13.12 0.06, 13.79 0.18 C14.46 0.31, 15.13 0.49, 15.77 0.73 C16.41 0.97, 17.04 1.28, 17.63 1.63 C18.22 1.98, 18.78 2.39, 19.31 2.84 C19.83 3.3, 20.32 3.8, 20.75 4.34 C21.19 4.88, 21.59 5.47, 21.93 6.08 C22.27 6.69, 22.56 7.33, 22.79 8 C23.03 8.66, 23.21 9.35, 23.32 10.04 C23.44 10.73, 23.47 11.8, 23.5 12.15 C23.53 12.5, 23.53 11.8, 23.5 12.15" stroke="#000" stroke-width="1" fill="none"></path></g><g stroke-linecap="round" transform="translate(23.44352536835754 179.71807227643774) rotate(0 18.00599565016489 10.814096512927037)"><path d="M0 0 C11.9 0, 23.8 0, 36.01 0 M0 0 C11.88 0, 23.75 0, 36.01 0 M36.01 0 C36.01 5.46, 36.01 10.91, 36.01 21.63 M36.01 0 C36.01 5.3, 36.01 10.61, 36.01 21.63 M36.01 21.63 C24.96 21.63, 13.9 21.63, 0 21.63 M36.01 21.63 C25.41 21.63, 14.81 21.63, 0 21.63 M0 21.63 C0 14.12, 0 6.62, 0 0 M0 21.63 C0 15.68, 0 9.73, 0 0" stroke="#000" stroke-width="1" fill="none"></path></g><g stroke-linecap="round" transform="translate(39.81893356526598 188.3494564119471) rotate(0 1.7848508807743428 1.784850880774357)"><path d="M3.57 1.78 C3.57 1.89, 3.56 1.99, 3.54 2.09 C3.52 2.2, 3.5 2.3, 3.46 2.4 C3.43 2.49, 3.38 2.59, 3.33 2.68 C3.28 2.77, 3.22 2.85, 3.15 2.93 C3.09 3.01, 3.01 3.09, 2.93 3.15 C2.85 3.22, 2.77 3.28, 2.68 3.33 C2.59 3.38, 2.49 3.43, 2.4 3.46 C2.3 3.5, 2.2 3.52, 2.09 3.54 C1.99 3.56, 1.89 3.57, 1.78 3.57 C1.68 3.57, 1.58 3.56, 1.47 3.54 C1.37 3.52, 1.27 3.5, 1.17 3.46 C1.08 3.43, 0.98 3.38, 0.89 3.33 C0.8 3.28, 0.72 3.22, 0.64 3.15 C0.56 3.09, 0.48 3.01, 0.42 2.93 C0.35 2.85, 0.29 2.77, 0.24 2.68 C0.19 2.59, 0.14 2.49, 0.11 2.4 C0.07 2.3, 0.05 2.2, 0.03 2.09 C0.01 1.99, 0 1.89, 0 1.78 C0 1.68, 0.01 1.58, 0.03 1.47 C0.05 1.37, 0.07 1.27, 0.11 1.17 C0.14 1.08, 0.19 0.98, 0.24 0.89 C0.29 0.8, 0.35 0.72, 0.42 0.64 C0.48 0.56, 0.56 0.48, 0.64 0.42 C0.72 0.35, 0.8 0.29, 0.89 0.24 C0.98 0.19, 1.08 0.14, 1.17 0.11 C1.27 0.07, 1.37 0.05, 1.47 0.03 C1.58 0.01, 1.68 0, 1.78 0 C1.89 0, 1.99 0.01, 2.09 0.03 C2.2 0.05, 2.3 0.07, 2.4 0.11 C2.49 0.14, 2.59 0.19, 2.68 0.24 C2.77 0.29, 2.85 0.35, 2.93 0.42 C3.01 0.48, 3.09 0.56, 3.15 0.64 C3.22 0.72, 3.28 0.8, 3.33 0.89 C3.38 0.98, 3.43 1.08, 3.46 1.17 C3.5 1.27, 3.52 1.37, 3.54 1.47 C3.56 1.58, 3.57 1.73, 3.57 1.78 C3.57 1.84, 3.57 1.73, 3.57 1.78" stroke="#000" stroke-width="1" fill="none"></path></g><g stroke-linecap="round"><g transform="translate(39.38198464666175 164.44383772086178) rotate(342.3417368676496 -2.8508411848193873 0.05431394526266331)"><path d="M0 0 C-0.95 0.02, -4.75 0.09, -5.7 0.11 M0 0 C-0.95 0.02, -4.75 0.09, -5.7 0.11" stroke="#000" stroke-width="1" fill="none"></path></g></g><mask></mask><g stroke-linecap="round"><g transform="translate(49.02905945431928 164.7360892267996) rotate(15.467423925549827 -2.9776591809476827 -0.05596288685343609)"><path d="M0 0 C-0.99 -0.02, -4.96 -0.09, -5.96 -0.11 M0 0 C-0.99 -0.02, -4.96 -0.09, -5.96 -0.11" stroke="#000" stroke-width="1" fill="none"></path></g></g><mask></mask><g stroke-linecap="round"><g transform="translate(32.831336283400674 162.71930960514112) rotate(0 2.165444083292414 -1.1319366799028643)"><path d="M0 0 C0.41 -0.07, 1.74 -0.02, 2.46 -0.39 C3.18 -0.77, 4.02 -1.95, 4.33 -2.26 M0 0 C0.41 -0.07, 1.74 -0.02, 2.46 -0.39 C3.18 -0.77, 4.02 -1.95, 4.33 -2.26" stroke="#000" stroke-width="1" fill="none"></path></g></g><mask></mask><g stroke-linecap="round"><g transform="translate(44.82358389420983 157.25172085538887) rotate(350.63677705434617 2.559161189345616 2.559161189345602)"><path d="M0 0 C0.13 0.44, 0.26 1.9, 0.79 2.66 C1.31 3.41, 2.43 4.12, 3.15 4.53 C3.87 4.94, 4.79 5.02, 5.12 5.12 M0 0 C0.13 0.44, 0.26 1.9, 0.79 2.66 C1.31 3.41, 2.43 4.12, 3.15 4.53 C3.87 4.94, 4.79 5.02, 5.12 5.12" stroke="#000" stroke-width="1" fill="none"></path></g></g><mask></mask><g stroke-linecap="round"><g transform="translate(52.01751513504087 138.01809381757204) rotate(0 -0.08977734979652041 1.4364375967445113)"><path d="M0 0 C-0.03 0.48, -0.15 2.39, -0.18 2.87 M0 0 C-0.03 0.48, -0.15 2.39, -0.18 2.87" stroke="#000" stroke-width="1" fill="none"></path></g></g><mask></mask><g stroke-linecap="round"><g transform="translate(54.44839130685136 136.99219012143857) rotate(0 0.08977734979652041 3.1422072428786265)"><path d="M0 0 C0.03 1.05, 0.15 5.24, 0.18 6.28 M0 0 C0.03 1.05, 0.15 5.24, 0.18 6.28" stroke="#000" stroke-width="1" fill="none"></path></g></g><mask></mask><g stroke-linecap="round"><g transform="translate(57.41404648627986 138.40788637630436) rotate(0 0 4.309312790233562)"><path d="M0 0 C0 1.44, 0 7.18, 0 8.62 M0 0 C0 1.44, 0 7.18, 0 8.62" stroke="#000" stroke-width="1" fill="none"></path></g></g><mask></mask><g stroke-linecap="round"><g transform="translate(60.18974102380275 135.97333244293853) rotate(0 0 7.361742683315654)"><path d="M0 0 C0 2.45, 0 12.27, 0 14.72 M0 0 C0 2.45, 0 12.27, 0 14.72" stroke="#000" stroke-width="1" fill="none"></path></g></g><mask></mask><g stroke-linecap="round"><g transform="translate(63.73002000076042 138.2074248495491) rotate(0 -0.31497368484252775 8.673795223396596)"><path d="M0 0 C-0.1 2.89, -0.52 14.46, -0.63 17.35 M0 0 C-0.1 2.89, -0.52 14.46, -0.63 17.35" stroke="#000" stroke-width="1" fill="none"></path></g></g><mask></mask><g stroke-linecap="round"><g transform="translate(66.00560633227269 136.4893642412494) rotate(0 0.6983809685984284 12.108046522785358)"><path d="M0 0 C0.23 4.04, 1.16 20.18, 1.4 24.22 M0 0 C0.23 4.04, 1.16 20.18, 1.4 24.22" stroke="#000" stroke-width="1" fill="none"></path></g></g><mask></mask><g stroke-linecap="round"><g transform="translate(15.728210676582876 140.34019727284448) rotate(0 -0.4499624069179049 13.161400402348775)"><path d="M0 0 C-0.15 4.39, -0.75 21.94, -0.9 26.32 M0 0 C-0.15 4.39, -0.75 21.94, -0.9 26.32" stroke="#000" stroke-width="1" fill="none"></path></g></g><mask></mask><g stroke-linecap="round"><g transform="translate(18.884347490507025 137.8687800799698) rotate(0 0 11.36155077467717)"><path d="M0 0 C0 3.79, 0 18.94, 0 22.72 M0 0 C0 3.79, 0 18.94, 0 22.72" stroke="#000" stroke-width="1" fill="none"></path></g></g><mask></mask><g stroke-linecap="round"><g transform="translate(22.828731496328487 139.49684619421527) rotate(0 0.3374718051884429 8.324304527981312)"><path d="M0 0 C0.11 2.77, 0.56 13.87, 0.67 16.65 M0 0 C0.11 2.77, 0.56 13.87, 0.67 16.65" stroke="#000" stroke-width="1" fill="none"></path></g></g><mask></mask><g stroke-linecap="round"><g transform="translate(25.68297469457309 139.42257903654013) rotate(0 0.11249060172946201 5.399548883014901)"><path d="M0 0 C0.04 1.8, 0.19 9, 0.22 10.8 M0 0 C0.04 1.8, 0.19 9, 0.22 10.8" stroke="#000" stroke-width="1" fill="none"></path></g></g><mask></mask><g stroke-linecap="round"><g transform="translate(12.07265081044659 142.34915672527057) rotate(0 0 11.36155077467717)"><path d="M0 0 C0 3.79, 0 18.94, 0 22.72 M0 0 C0 3.79, 0 18.94, 0 22.72" stroke="#000" stroke-width="1" fill="none"></path></g></g><mask></mask><g stroke-linecap="round"><g transform="translate(29.009062779766055 141.19710271395954) rotate(0 -0.08977734979652041 1.4364375967445113)"><path d="M0 0 C-0.03 0.48, -0.15 2.39, -0.18 2.87 M0 0 C-0.03 0.48, -0.15 2.39, -0.18 2.87" stroke="#000" stroke-width="1" fill="none"></path></g></g><mask></mask><g stroke-linecap="round"><g transform="translate(54.129828807710965 177.28091246580755) rotate(0 -12.584259321907552 -2.0999497799855646)"><path d="M0 0 C-0.35 -0.31, -1.42 -1.14, -2.1 -1.83 C-2.79 -2.53, -3.42 -4.01, -4.12 -4.18 C-4.82 -4.35, -5.13 -3.25, -6.31 -2.86 C-7.48 -2.47, -9.6 -1.95, -11.18 -1.83 C-12.77 -1.71, -14.34 -1.91, -15.81 -2.13 C-17.28 -2.35, -19.14 -2.77, -20.01 -3.15 C-20.88 -3.53, -20.59 -4.51, -21.02 -4.4 C-21.46 -4.29, -21.93 -3.23, -22.62 -2.49 C-23.31 -1.75, -25.21 -0.39, -25.17 0.06 C-25.12 0.5, -23.31 0.18, -22.35 0.2 C-21.38 0.21, -19.87 0.16, -19.38 0.15 M0 0 C-0.35 -0.31, -1.42 -1.14, -2.1 -1.83 C-2.79 -2.53, -3.42 -4.01, -4.12 -4.18 C-4.82 -4.35, -5.13 -3.25, -6.31 -2.86 C-7.48 -2.47, -9.6 -1.95, -11.18 -1.83 C-12.77 -1.71, -14.34 -1.91, -15.81 -2.13 C-17.28 -2.35, -19.14 -2.77, -20.01 -3.15 C-20.88 -3.53, -20.59 -4.51, -21.02 -4.4 C-21.46 -4.29, -21.93 -3.23, -22.62 -2.49 C-23.31 -1.75, -25.21 -0.39, -25.17 0.06 C-25.12 0.5, -23.31 0.18, -22.35 0.2 C-21.38 0.21, -19.87 0.16, -19.38 0.15" stroke="#000" stroke-width="1" fill="none"></path></g></g><mask></mask><g stroke-linecap="round"><g transform="translate(23.347690592188087 201.0758865859981) rotate(0 18.553918622755475 1.120356765018954)"><path d="M0 0 C-0.84 0.08, -4.35 0.03, -5.02 0.49 C-5.69 0.95, -5.1 2.38, -4.04 2.76 C-2.97 3.13, -1.13 2.67, 1.38 2.76 C3.89 2.84, 7.6 3.18, 11.02 3.25 C14.45 3.31, 17.47 3.25, 21.95 3.15 C26.43 3.05, 34.56 3.2, 37.92 2.66 C41.29 2.12, 41.91 0.51, 42.13 -0.1 C42.35 -0.71, 39.72 -0.86, 39.24 -1.01 M0 0 C-0.84 0.08, -4.35 0.03, -5.02 0.49 C-5.69 0.95, -5.1 2.38, -4.04 2.76 C-2.97 3.13, -1.13 2.67, 1.38 2.76 C3.89 2.84, 7.6 3.18, 11.02 3.25 C14.45 3.31, 17.47 3.25, 21.95 3.15 C26.43 3.05, 34.56 3.2, 37.92 2.66 C41.29 2.12, 41.91 0.51, 42.13 -0.1 C42.35 -0.71, 39.72 -0.86, 39.24 -1.01" stroke="#000" stroke-width="1" fill="none"></path></g></g><mask></mask><g stroke-linecap="round"><g transform="translate(29.79553013455677 159.4020565311199) rotate(0 -2.6263258318711564 2.047643868916481)"><path d="M0 0 C0.01 -0.46, 0.59 -2.36, 0.09 -2.76 C-0.42 -3.16, -2.12 -3.06, -3.03 -2.4 C-3.93 -1.75, -5.04 -0.03, -5.34 1.16 C-5.64 2.34, -5.34 3.81, -4.81 4.72 C-4.27 5.62, -2.95 6.23, -2.14 6.59 C-1.32 6.94, -0.27 7.95, 0.09 6.86 C0.45 5.76, 0.01 1.14, 0 0 M0 0 C0.01 -0.46, 0.59 -2.36, 0.09 -2.76 C-0.42 -3.16, -2.12 -3.06, -3.03 -2.4 C-3.93 -1.75, -5.04 -0.03, -5.34 1.16 C-5.64 2.34, -5.34 3.81, -4.81 4.72 C-4.27 5.62, -2.95 6.23, -2.14 6.59 C-1.32 6.94, -0.27 7.95, 0.09 6.86 C0.45 5.76, 0.01 1.14, 0 0" stroke="#000" stroke-width="1" fill="none"></path></g></g><mask></mask><g stroke-linecap="round"><g transform="translate(53.75038281382422 158.74779434132958) rotate(0 2.5655782125599558 2.047643868916481)"><path d="M0 0 C-0.01 -0.46, -0.58 -2.36, -0.09 -2.76 C0.41 -3.16, 2.07 -3.06, 2.96 -2.4 C3.84 -1.75, 4.93 -0.03, 5.22 1.16 C5.51 2.34, 5.22 3.81, 4.7 4.72 C4.17 5.62, 2.88 6.23, 2.09 6.59 C1.29 6.94, 0.26 7.95, -0.09 6.86 C-0.43 5.76, -0.01 1.14, 0 0 M0 0 C-0.01 -0.46, -0.58 -2.36, -0.09 -2.76 C0.41 -3.16, 2.07 -3.06, 2.96 -2.4 C3.84 -1.75, 4.93 -0.03, 5.22 1.16 C5.51 2.34, 5.22 3.81, 4.7 4.72 C4.17 5.62, 2.88 6.23, 2.09 6.59 C1.29 6.94, 0.26 7.95, -0.09 6.86 C-0.43 5.76, -0.01 1.14, 0 0" stroke="#000" stroke-width="1" fill="none"></path></g></g><mask></mask><g stroke-linecap="round"><g transform="translate(28.011817559996643 156.55881085670464) rotate(0 13.265171150806793 -6.7918389995796815)"><path d="M0 0 C0.18 -1.21, -0.03 -5.23, 1.06 -7.25 C2.15 -9.28, 4.45 -11.1, 6.54 -12.16 C8.63 -13.21, 11.26 -13.56, 13.62 -13.58 C15.98 -13.61, 18.77 -13.25, 20.7 -12.29 C22.62 -11.33, 24.19 -9.75, 25.17 -7.82 C26.14 -5.89, 26.3 -1.9, 26.53 -0.71 M0 0 C0.18 -1.21, -0.03 -5.23, 1.06 -7.25 C2.15 -9.28, 4.45 -11.1, 6.54 -12.16 C8.63 -13.21, 11.26 -13.56, 13.62 -13.58 C15.98 -13.61, 18.77 -13.25, 20.7 -12.29 C22.62 -11.33, 24.19 -9.75, 25.17 -7.82 C26.14 -5.89, 26.3 -1.9, 26.53 -0.71" stroke="#000" stroke-width="1" fill="none"></path></g></g><mask></mask><g stroke-linecap="round"><g transform="translate(27.63346702626177 166.1524004783357) rotate(0 4.98556768084012 2.4670724076948574)"><path d="M0 0 C0.21 0.46, 0.62 1.95, 1.25 2.77 C1.89 3.59, 2.86 4.61, 3.8 4.93 C4.75 5.26, 5.92 4.99, 6.94 4.72 C7.97 4.45, 9.47 3.53, 9.97 3.29 M0 0 C0.21 0.46, 0.62 1.95, 1.25 2.77 C1.89 3.59, 2.86 4.61, 3.8 4.93 C4.75 5.26, 5.92 4.99, 6.94 4.72 C7.97 4.45, 9.47 3.53, 9.97 3.29" stroke="#000" stroke-width="1" fill="none"></path></g></g><mask></mask><g stroke-linecap="round" transform="translate(37.22726661200386 167.94733713180568) rotate(0 2.1366718632172024 1.0238219344582404)"><path d="M4.27 1.02 C4.27 1.08, 4.26 1.14, 4.24 1.2 C4.22 1.26, 4.19 1.32, 4.14 1.37 C4.1 1.43, 4.05 1.48, 3.99 1.54 C3.93 1.59, 3.85 1.64, 3.77 1.68 C3.69 1.73, 3.6 1.77, 3.51 1.81 C3.42 1.85, 3.31 1.88, 3.21 1.91 C3.1 1.94, 2.98 1.97, 2.87 1.99 C2.75 2.01, 2.63 2.02, 2.51 2.03 C2.39 2.04, 2.26 2.05, 2.14 2.05 C2.01 2.05, 1.89 2.04, 1.77 2.03 C1.64 2.02, 1.52 2.01, 1.41 1.99 C1.29 1.97, 1.18 1.94, 1.07 1.91 C0.96 1.88, 0.86 1.85, 0.76 1.81 C0.67 1.77, 0.58 1.73, 0.5 1.68 C0.42 1.64, 0.35 1.59, 0.29 1.54 C0.22 1.48, 0.17 1.43, 0.13 1.37 C0.09 1.32, 0.05 1.26, 0.03 1.2 C0.01 1.14, 0 1.08, 0 1.02 C0 0.96, 0.01 0.9, 0.03 0.85 C0.05 0.79, 0.09 0.73, 0.13 0.67 C0.17 0.62, 0.22 0.56, 0.29 0.51 C0.35 0.46, 0.42 0.41, 0.5 0.37 C0.58 0.32, 0.67 0.28, 0.76 0.24 C0.86 0.2, 0.96 0.17, 1.07 0.14 C1.18 0.11, 1.29 0.08, 1.41 0.06 C1.52 0.04, 1.64 0.03, 1.77 0.02 C1.89 0.01, 2.01 0, 2.14 0 C2.26 0, 2.39 0.01, 2.51 0.02 C2.63 0.03, 2.75 0.04, 2.87 0.06 C2.98 0.08, 3.1 0.11, 3.21 0.14 C3.31 0.17, 3.42 0.2, 3.51 0.24 C3.6 0.28, 3.69 0.32, 3.77 0.37 C3.85 0.41, 3.93 0.46, 3.99 0.51 C4.05 0.56, 4.1 0.62, 4.14 0.67 C4.19 0.73, 4.22 0.79, 4.24 0.85 C4.26 0.9, 4.27 0.99, 4.27 1.02 C4.28 1.05, 4.28 0.99, 4.27 1.02" stroke="#000" stroke-width="1" fill="none"></path></g><g transform="translate(13.7416372055809 211.77828238729876) rotate(0 26.808765628801325 7.707520118280371)"><text x="0" y="12.33229399360045" font-family="Helvetica, Segoe UI Emoji" font-size="13.40438281440066px" fill="#1e1e1e" text-anchor="start" style="white-space: pre;" direction="ltr" dominant-baseline="alphabetic">合成线程</text></g><g stroke-linecap="round" transform="translate(30.069626059009238 268.67462821597854) rotate(13.250635386373409 11.465469778145405 11.856338066036756)"><path d="M22.93 11.86 C22.93 12.54, 22.87 13.24, 22.76 13.92 C22.64 14.59, 22.47 15.27, 22.24 15.91 C22.01 16.56, 21.73 17.19, 21.39 17.78 C21.06 18.38, 20.68 18.95, 20.25 19.48 C19.82 20, 19.34 20.5, 18.84 20.94 C18.33 21.38, 17.77 21.78, 17.2 22.12 C16.62 22.47, 16.01 22.76, 15.39 23 C14.76 23.23, 14.11 23.41, 13.46 23.53 C12.8 23.65, 12.13 23.71, 11.47 23.71 C10.8 23.71, 10.13 23.65, 9.47 23.53 C8.82 23.41, 8.17 23.23, 7.54 23 C6.92 22.76, 6.31 22.47, 5.73 22.12 C5.16 21.78, 4.6 21.38, 4.1 20.94 C3.59 20.5, 3.11 20, 2.68 19.48 C2.26 18.95, 1.87 18.38, 1.54 17.78 C1.2 17.19, 0.92 16.56, 0.69 15.91 C0.46 15.27, 0.29 14.59, 0.17 13.92 C0.06 13.24, 0 12.54, 0 11.86 C0 11.17, 0.06 10.47, 0.17 9.8 C0.29 9.12, 0.46 8.45, 0.69 7.8 C0.92 7.16, 1.2 6.52, 1.54 5.93 C1.87 5.33, 2.26 4.76, 2.68 4.24 C3.11 3.71, 3.59 3.21, 4.1 2.77 C4.6 2.33, 5.16 1.93, 5.73 1.59 C6.31 1.25, 6.92 0.95, 7.54 0.72 C8.17 0.48, 8.82 0.3, 9.47 0.18 C10.13 0.06, 10.8 0, 11.47 0 C12.13 0, 12.8 0.06, 13.46 0.18 C14.11 0.3, 14.76 0.48, 15.39 0.72 C16.01 0.95, 16.62 1.25, 17.2 1.59 C17.77 1.93, 18.33 2.33, 18.84 2.77 C19.34 3.21, 19.82 3.71, 20.25 4.24 C20.68 4.76, 21.06 5.33, 21.39 5.93 C21.73 6.52, 22.01 7.16, 22.24 7.8 C22.47 8.45, 22.64 9.12, 22.76 9.8 C22.87 10.47, 22.9 11.51, 22.93 11.86 C22.96 12.2, 22.96 11.51, 22.93 11.86" stroke="#000" stroke-width="1" fill="none"></path></g><g stroke-linecap="round"><g transform="translate(30.358115161553542 275.9122089584295) rotate(13.250635386373409 -2.5623587761764384 1.9977712492222963)"><path d="M0 0 C0.01 -0.45, 0.58 -2.3, 0.09 -2.69 C-0.41 -3.08, -2.07 -2.98, -2.95 -2.35 C-3.84 -1.71, -4.92 -0.03, -5.21 1.13 C-5.5 2.29, -5.21 3.72, -4.69 4.6 C-4.17 5.49, -2.88 6.08, -2.08 6.43 C-1.29 6.78, -0.26 7.76, 0.09 6.69 C0.43 5.62, 0.01 1.11, 0 0 M0 0 C0.01 -0.45, 0.58 -2.3, 0.09 -2.69 C-0.41 -3.08, -2.07 -2.98, -2.95 -2.35 C-3.84 -1.71, -4.92 -0.03, -5.21 1.13 C-5.5 2.29, -5.21 3.72, -4.69 4.6 C-4.17 5.49, -2.88 6.08, -2.08 6.43 C-1.29 6.78, -0.26 7.76, 0.09 6.69 C0.43 5.62, 0.01 1.11, 0 0" stroke="#000" stroke-width="1" fill="none"></path></g></g><mask></mask><g stroke-linecap="round"><g transform="translate(52.94217426291914 281.7239487776135) rotate(13.250635386373409 2.5030907319814446 1.9977712492222963)"><path d="M0 0 C-0.01 -0.45, -0.57 -2.3, -0.08 -2.69 C0.4 -3.08, 2.02 -2.98, 2.88 -2.35 C3.75 -1.71, 4.81 -0.03, 5.09 1.13 C5.37 2.29, 5.09 3.72, 4.58 4.6 C4.07 5.49, 2.81 6.08, 2.04 6.43 C1.26 6.78, 0.25 7.76, -0.08 6.69 C-0.42 5.62, -0.01 1.11, 0 0 M0 0 C-0.01 -0.45, -0.57 -2.3, -0.08 -2.69 C0.4 -3.08, 2.02 -2.98, 2.88 -2.35 C3.75 -1.71, 4.81 -0.03, 5.09 1.13 C5.37 2.29, 5.09 3.72, 4.58 4.6 C4.07 5.49, 2.81 6.08, 2.04 6.43 C1.26 6.78, 0.25 7.76, -0.08 6.69 C-0.42 5.62, -0.01 1.11, 0 0" stroke="#000" stroke-width="1" fill="none"></path></g></g><mask></mask><g stroke-linecap="round"><g transform="translate(31.146432192362795 276.5677354432372) rotate(13.250635386373409 12.942083310179328 -6.8184801332152745)"><path d="M0 0 C0.09 -1.16, -0.52 -4.91, 0.52 -6.95 C1.56 -8.99, 4.17 -11.13, 6.25 -12.25 C8.34 -13.36, 10.73 -13.64, 13.03 -13.64 C15.33 -13.64, 18.23 -13.12, 20.06 -12.25 C21.9 -11.38, 23.16 -9.73, 24.06 -8.43 C24.96 -7.12, 25.15 -5.72, 25.45 -4.43 C25.75 -3.14, 25.81 -1.32, 25.88 -0.69 M0 0 C0.09 -1.16, -0.52 -4.91, 0.52 -6.95 C1.56 -8.99, 4.17 -11.13, 6.25 -12.25 C8.34 -13.36, 10.73 -13.64, 13.03 -13.64 C15.33 -13.64, 18.23 -13.12, 20.06 -12.25 C21.9 -11.38, 23.16 -9.73, 24.06 -8.43 C24.96 -7.12, 25.15 -5.72, 25.45 -4.43 C25.75 -3.14, 25.81 -1.32, 25.88 -0.69" stroke="#000" stroke-width="1" fill="none"></path></g></g><mask></mask><g stroke-linecap="round"><g transform="translate(26.78926069240515 283.26136744961127) rotate(13.250635386373409 4.864138693758662 2.3017799175822233)"><path d="M0 0 C0.14 0.39, 0.33 1.68, 0.87 2.36 C1.41 3.04, 2.27 3.69, 3.25 4.07 C4.24 4.44, 5.7 4.75, 6.78 4.6 C7.85 4.46, 9.24 3.45, 9.73 3.21 M0 0 C0.14 0.39, 0.33 1.68, 0.87 2.36 C1.41 3.04, 2.27 3.69, 3.25 4.07 C4.24 4.44, 5.7 4.75, 6.78 4.6 C7.85 4.46, 9.24 3.45, 9.73 3.21" stroke="#000" stroke-width="1" fill="none"></path></g></g><mask></mask><g stroke-linecap="round" transform="translate(35.85146409421793 286.80500387404885) rotate(13.250635386373409 2.0846308687537203 0.9988856246111482)"><path d="M4.17 1 C4.17 1.06, 4.16 1.12, 4.14 1.17 C4.12 1.23, 4.08 1.29, 4.04 1.34 C4 1.39, 3.95 1.45, 3.89 1.5 C3.83 1.55, 3.76 1.6, 3.68 1.64 C3.6 1.69, 3.52 1.73, 3.42 1.76 C3.33 1.8, 3.23 1.84, 3.13 1.86 C3.02 1.89, 2.91 1.92, 2.8 1.94 C2.68 1.96, 2.57 1.97, 2.45 1.98 C2.33 1.99, 2.21 2, 2.08 2 C1.96 2, 1.84 1.99, 1.72 1.98 C1.6 1.97, 1.49 1.96, 1.37 1.94 C1.26 1.92, 1.15 1.89, 1.04 1.86 C0.94 1.84, 0.84 1.8, 0.74 1.76 C0.65 1.73, 0.57 1.69, 0.49 1.64 C0.41 1.6, 0.34 1.55, 0.28 1.5 C0.22 1.45, 0.17 1.39, 0.13 1.34 C0.08 1.29, 0.05 1.23, 0.03 1.17 C0.01 1.12, 0 1.06, 0 1 C0 0.94, 0.01 0.88, 0.03 0.83 C0.05 0.77, 0.08 0.71, 0.13 0.66 C0.17 0.6, 0.22 0.55, 0.28 0.5 C0.34 0.45, 0.41 0.4, 0.49 0.36 C0.57 0.31, 0.65 0.27, 0.74 0.23 C0.84 0.2, 0.94 0.16, 1.04 0.13 C1.15 0.1, 1.26 0.08, 1.37 0.06 C1.49 0.04, 1.6 0.03, 1.72 0.02 C1.84 0.01, 1.96 0, 2.08 0 C2.21 0, 2.33 0.01, 2.45 0.02 C2.57 0.03, 2.68 0.04, 2.8 0.06 C2.91 0.08, 3.02 0.1, 3.13 0.13 C3.23 0.16, 3.33 0.2, 3.42 0.23 C3.52 0.27, 3.6 0.31, 3.68 0.36 C3.76 0.4, 3.83 0.45, 3.89 0.5 C3.95 0.55, 4 0.6, 4.04 0.66 C4.08 0.71, 4.12 0.77, 4.14 0.83 C4.16 0.88, 4.16 0.97, 4.17 1 C4.17 1.03, 4.17 0.97, 4.17 1" stroke="#000" stroke-width="1" fill="none"></path></g><g stroke-linecap="round"><g transform="translate(35.1324445839947 279.39193425104366) rotate(29.664698905619883 2.515578507004534 -1.6511886294372289)"><path d="M0 0 C0.06 -0.38, 0.1 -1.73, 0.37 -2.28 C0.64 -2.83, 1.02 -3.19, 1.61 -3.3 C2.21 -3.41, 3.35 -3.31, 3.92 -2.93 C4.49 -2.55, 4.85 -1.34, 5.03 -1.03 M0 0 C0.06 -0.38, 0.1 -1.73, 0.37 -2.28 C0.64 -2.83, 1.02 -3.19, 1.61 -3.3 C2.21 -3.41, 3.35 -3.31, 3.92 -2.93 C4.49 -2.55, 4.85 -1.34, 5.03 -1.03" stroke="#000" stroke-width="1" fill="none"></path></g></g><mask></mask><g stroke-linecap="round" transform="translate(22.507886603332395 299.48795911341574) rotate(0 17.567439811961037 10.550707292314797)"><path d="M0 0 C10.07 0, 20.15 0, 35.13 0 M0 0 C12.97 0, 25.94 0, 35.13 0 M35.13 0 C35.13 4.33, 35.13 8.65, 35.13 21.1 M35.13 0 C35.13 4.86, 35.13 9.72, 35.13 21.1 M35.13 21.1 C27.05 21.1, 18.96 21.1, 0 21.1 M35.13 21.1 C21.5 21.1, 7.86 21.1, 0 21.1 M0 21.1 C0 13.34, 0 5.57, 0 0 M0 21.1 C0 16.29, 0 11.48, 0 0" stroke="#000" stroke-width="1" fill="none"></path></g><g stroke-linecap="round" transform="translate(38.48445371379091 307.9091163901636) rotate(0 1.7413788734888271 1.7413788734888556)"><path d="M3.48 1.74 C3.48 1.84, 3.47 1.94, 3.46 2.04 C3.44 2.14, 3.41 2.24, 3.38 2.34 C3.34 2.43, 3.3 2.52, 3.25 2.61 C3.2 2.7, 3.14 2.78, 3.08 2.86 C3.01 2.94, 2.94 3.01, 2.86 3.08 C2.78 3.14, 2.7 3.2, 2.61 3.25 C2.52 3.3, 2.43 3.34, 2.34 3.38 C2.24 3.41, 2.14 3.44, 2.04 3.46 C1.94 3.47, 1.84 3.48, 1.74 3.48 C1.64 3.48, 1.54 3.47, 1.44 3.46 C1.34 3.44, 1.24 3.41, 1.15 3.38 C1.05 3.34, 0.96 3.3, 0.87 3.25 C0.78 3.2, 0.7 3.14, 0.62 3.08 C0.54 3.01, 0.47 2.94, 0.41 2.86 C0.34 2.78, 0.28 2.7, 0.23 2.61 C0.18 2.52, 0.14 2.43, 0.11 2.34 C0.07 2.24, 0.04 2.14, 0.03 2.04 C0.01 1.94, 0 1.84, 0 1.74 C0 1.64, 0.01 1.54, 0.03 1.44 C0.04 1.34, 0.07 1.24, 0.11 1.15 C0.14 1.05, 0.18 0.96, 0.23 0.87 C0.28 0.78, 0.34 0.7, 0.41 0.62 C0.47 0.54, 0.54 0.47, 0.62 0.41 C0.7 0.34, 0.78 0.28, 0.87 0.23 C0.96 0.18, 1.05 0.14, 1.15 0.11 C1.24 0.07, 1.34 0.04, 1.44 0.03 C1.54 0.01, 1.64 0, 1.74 0 C1.84 0, 1.94 0.01, 2.04 0.03 C2.14 0.04, 2.24 0.07, 2.34 0.11 C2.43 0.14, 2.52 0.18, 2.61 0.23 C2.7 0.28, 2.78 0.34, 2.86 0.41 C2.94 0.47, 3.01 0.54, 3.08 0.62 C3.14 0.7, 3.2 0.78, 3.25 0.87 C3.3 0.96, 3.34 1.05, 3.38 1.15 C3.41 1.24, 3.44 1.34, 3.46 1.44 C3.47 1.54, 3.48 1.69, 3.48 1.74 C3.49 1.79, 3.49 1.69, 3.48 1.74" stroke="#000" stroke-width="1" fill="none"></path></g><g stroke-linecap="round"><g transform="translate(48.23943991972976 281.55772414878766) rotate(2.516049093648834 -2.3901803499309153 -1.6511886294372289)"><path d="M0 0 C-0.06 -0.38, -0.1 -1.73, -0.35 -2.28 C-0.61 -2.83, -0.97 -3.19, -1.53 -3.3 C-2.1 -3.41, -3.19 -3.31, -3.73 -2.93 C-4.27 -2.55, -4.61 -1.34, -4.78 -1.03 M0 0 C-0.06 -0.38, -0.1 -1.73, -0.35 -2.28 C-0.61 -2.83, -0.97 -3.19, -1.53 -3.3 C-2.1 -3.41, -3.19 -3.31, -3.73 -2.93 C-4.27 -2.55, -4.61 -1.34, -4.78 -1.03" stroke="#000" stroke-width="1" fill="none"></path></g></g><mask></mask><g stroke-linecap="round"><g transform="translate(57.47906359080696 320.95217174103186) rotate(0 -18.080163547616337 0.8284936706830024)"><path d="M0 0 C0.82 0.06, 4.24 0.02, 4.89 0.36 C5.55 0.7, 4.97 1.76, 3.93 2.04 C2.89 2.32, 1.1 1.98, -1.34 2.04 C-3.79 2.1, -7.4 2.35, -10.74 2.4 C-14.08 2.45, -17.02 2.4, -21.39 2.33 C-25.76 2.26, -33.68 2.37, -36.96 1.97 C-40.23 1.56, -40.84 0.38, -41.05 -0.07 C-41.27 -0.52, -38.71 -0.63, -38.24 -0.75 M0 0 C0.82 0.06, 4.24 0.02, 4.89 0.36 C5.55 0.7, 4.97 1.76, 3.93 2.04 C2.89 2.32, 1.1 1.98, -1.34 2.04 C-3.79 2.1, -7.4 2.35, -10.74 2.4 C-14.08 2.45, -17.02 2.4, -21.39 2.33 C-25.76 2.26, -33.68 2.37, -36.96 1.97 C-40.23 1.56, -40.84 0.38, -41.05 -0.07 C-41.27 -0.52, -38.71 -0.63, -38.24 -0.75" stroke="#000" stroke-width="1" fill="none"></path></g></g><mask></mask><g stroke-linecap="round"><g transform="translate(29.2622667496272 297.46458757093274) rotate(0 10.526265459633407 -2.5281627819365156)"><path d="M0 0 C-0.58 0, -3.86 0.55, -3.46 0 C-3.06 -0.55, 0.91 -2.53, 2.42 -3.29 C3.93 -4.04, 4.36 -4.52, 5.6 -4.54 C6.85 -4.56, 8.09 -3.63, 9.88 -3.4 C11.68 -3.18, 14.57 -2.81, 16.38 -3.18 C18.19 -3.55, 19.72 -5.53, 20.76 -5.63 C21.79 -5.73, 21.96 -4.68, 22.59 -3.79 C23.21 -2.89, 24.93 -0.99, 24.51 -0.26 C24.09 0.47, 21.59 0.48, 20.06 0.57 C18.53 0.67, 16.13 0.36, 15.35 0.32 M0 0 C-0.58 0, -3.86 0.55, -3.46 0 C-3.06 -0.55, 0.91 -2.53, 2.42 -3.29 C3.93 -4.04, 4.36 -4.52, 5.6 -4.54 C6.85 -4.56, 8.09 -3.63, 9.88 -3.4 C11.68 -3.18, 14.57 -2.81, 16.38 -3.18 C18.19 -3.55, 19.72 -5.53, 20.76 -5.63 C21.79 -5.73, 21.96 -4.68, 22.59 -3.79 C23.21 -2.89, 24.93 -0.99, 24.51 -0.26 C24.09 0.47, 21.59 0.48, 20.06 0.57 C18.53 0.67, 16.13 0.36, 15.35 0.32" stroke="#000" stroke-width="1" fill="none"></path></g></g><mask></mask><g stroke-linecap="round"><g transform="translate(61.390690856658125 268.2692819363444) rotate(0 3.9693194910402667 -2.914492652407688)"><path d="M0 0 C-0.02 -0.34, 0.24 -1.97, -0.15 -2.04 C-0.54 -2.1, -2.21 -0.99, -2.34 -0.39 C-2.47 0.21, -1.55 2.02, -0.91 1.59 C-0.27 1.15, 0.99 -1.51, 1.5 -3.02 C2.01 -4.54, 2.05 -6.37, 2.16 -7.52 C2.27 -8.68, 1.61 -9.92, 2.16 -9.94 C2.71 -9.96, 4.1 -8.11, 5.45 -7.63 C6.8 -7.16, 9.75 -7.71, 10.28 -7.09 C10.81 -6.46, 9.05 -5.46, 8.63 -3.9 C8.21 -2.35, 8.23 0.91, 7.76 2.24 C7.28 3.58, 6.49 4.04, 5.78 4.11 C5.07 4.18, 3.57 3.19, 3.48 2.68 C3.38 2.17, 4.63 1.09, 5.23 1.04 C5.84 0.98, 6.79 2.13, 7.1 2.35 M0 0 C-0.02 -0.34, 0.24 -1.97, -0.15 -2.04 C-0.54 -2.1, -2.21 -0.99, -2.34 -0.39 C-2.47 0.21, -1.55 2.02, -0.91 1.59 C-0.27 1.15, 0.99 -1.51, 1.5 -3.02 C2.01 -4.54, 2.05 -6.37, 2.16 -7.52 C2.27 -8.68, 1.61 -9.92, 2.16 -9.94 C2.71 -9.96, 4.1 -8.11, 5.45 -7.63 C6.8 -7.16, 9.75 -7.71, 10.28 -7.09 C10.81 -6.46, 9.05 -5.46, 8.63 -3.9 C8.21 -2.35, 8.23 0.91, 7.76 2.24 C7.28 3.58, 6.49 4.04, 5.78 4.11 C5.07 4.18, 3.57 3.19, 3.48 2.68 C3.38 2.17, 4.63 1.09, 5.23 1.04 C5.84 0.98, 6.79 2.13, 7.1 2.35" stroke="#000" stroke-width="1" fill="none"></path></g></g><mask></mask><g stroke-linecap="round"><g transform="translate(21.002039649454105 264.38207249202355) rotate(15.289106529619394 -2.3467353609256065 -3.389190591586214)"><path d="M0 0 C-0.38 -0.09, -1.84 -0.85, -2.26 -0.54 C-2.68 -0.22, -2.79 1.29, -2.51 1.87 C-2.23 2.45, -1.09 3.02, -0.59 2.94 C-0.08 2.87, 0.45 2.32, 0.5 1.43 C0.56 0.54, 0.34 -0.98, -0.25 -2.41 C-0.84 -3.84, -2.19 -5.92, -3.02 -7.14 C-3.84 -8.35, -5.32 -9.34, -5.2 -9.72 C-5.07 -10.11, -2.98 -9.48, -2.26 -9.45 C-1.55 -9.42, -1.15 -9.53, -0.92 -9.54 M0 0 C-0.38 -0.09, -1.84 -0.85, -2.26 -0.54 C-2.68 -0.22, -2.79 1.29, -2.51 1.87 C-2.23 2.45, -1.09 3.02, -0.59 2.94 C-0.08 2.87, 0.45 2.32, 0.5 1.43 C0.56 0.54, 0.34 -0.98, -0.25 -2.41 C-0.84 -3.84, -2.19 -5.92, -3.02 -7.14 C-3.84 -8.35, -5.32 -9.34, -5.2 -9.72 C-5.07 -10.11, -2.98 -9.48, -2.26 -9.45 C-1.55 -9.42, -1.15 -9.53, -0.92 -9.54" stroke="#000" stroke-width="1" fill="none"></path></g></g><mask></mask><g stroke-linecap="round"><g transform="translate(23.254133658989417 281.6937554783757) rotate(0 1.317009232050225 -5.213161543532834)"><path d="M0 0 C-0.15 -0.6, -0.79 -2.51, -0.88 -3.62 C-0.97 -4.74, -0.82 -5.71, -0.55 -6.69 C-0.27 -7.68, 0.09 -8.93, 0.77 -9.55 C1.45 -10.17, 3.05 -10.28, 3.51 -10.43 M0 0 C-0.15 -0.6, -0.79 -2.51, -0.88 -3.62 C-0.97 -4.74, -0.82 -5.71, -0.55 -6.69 C-0.27 -7.68, 0.09 -8.93, 0.77 -9.55 C1.45 -10.17, 3.05 -10.28, 3.51 -10.43" stroke="#000" stroke-width="1" fill="none"></path></g></g><mask></mask><g stroke-linecap="round"><g transform="translate(19.700678721750705 277.6897883847977) rotate(0 1.9410447766171046 -3.8916277232142136)"><path d="M0 0 C-0.02 -0.51, -0.38 -1.97, -0.09 -3.03 C0.19 -4.09, 1.03 -5.58, 1.7 -6.37 C2.38 -7.16, 3.6 -7.55, 3.98 -7.78 M0 0 C-0.02 -0.51, -0.38 -1.97, -0.09 -3.03 C0.19 -4.09, 1.03 -5.58, 1.7 -6.37 C2.38 -7.16, 3.6 -7.55, 3.98 -7.78" stroke="#000" stroke-width="1" fill="none"></path></g></g><mask></mask><g stroke-linecap="round"><g transform="translate(57.35247832056564 286.3904038775437) rotate(145.7534639509702 1.317009232050225 -5.213161543532834)"><path d="M0 0 C-0.15 -0.6, -0.79 -2.51, -0.88 -3.62 C-0.97 -4.74, -0.82 -5.71, -0.55 -6.69 C-0.27 -7.68, 0.09 -8.93, 0.77 -9.55 C1.45 -10.17, 3.05 -10.28, 3.51 -10.43 M0 0 C-0.15 -0.6, -0.79 -2.51, -0.88 -3.62 C-0.97 -4.74, -0.82 -5.71, -0.55 -6.69 C-0.27 -7.68, 0.09 -8.93, 0.77 -9.55 C1.45 -10.17, 3.05 -10.28, 3.51 -10.43" stroke="#000" stroke-width="1" fill="none"></path></g></g><mask></mask><g stroke-linecap="round"><g transform="translate(60.34666568372131 282.48339135379865) rotate(132.79064988234197 1.9410447766171046 -3.8916277232142136)"><path d="M0 0 C-0.02 -0.51, -0.38 -1.97, -0.09 -3.03 C0.19 -4.09, 1.03 -5.58, 1.7 -6.37 C2.38 -7.16, 3.6 -7.55, 3.98 -7.78 M0 0 C-0.02 -0.51, -0.38 -1.97, -0.09 -3.03 C0.19 -4.09, 1.03 -5.58, 1.7 -6.37 C2.38 -7.16, 3.6 -7.55, 3.98 -7.78" stroke="#000" stroke-width="1" fill="none"></path></g></g><mask></mask><g transform="translate(14.937549113502769 332.1350256586866) rotate(0 29.918037604146377 8.25673332145368)"><text x="0" y="13.21105377401749" font-family="Helvetica, Segoe UI Emoji" font-size="14.359536211223768px" fill="#1e1e1e" text-anchor="start" style="white-space: pre;" direction="ltr" dominant-baseline="alphabetic">GPU进程</text></g><g stroke-linecap="round"><g transform="translate(499.974772460978 184.1349241863595) rotate(0 -0.1528689690856595 32.55641174316406)"><path d="M0 0 C-0.05 10.85, -0.25 54.26, -0.31 65.11 M0 0 C-0.05 10.85, -0.25 54.26, -0.31 65.11" stroke="#1e1e1e" stroke-width="1" fill="none"></path></g><g transform="translate(499.974772460978 184.1349241863595) rotate(0 -0.1528689690856595 32.55641174316406)"><path d="M-8.75 41.58 C-6.8 47.01, -4.85 52.44, -0.31 65.11 M-8.75 41.58 C-5.38 50.97, -2.01 60.35, -0.31 65.11" stroke="#1e1e1e" stroke-width="1" fill="none"></path></g><g transform="translate(499.974772460978 184.1349241863595) rotate(0 -0.1528689690856595 32.55641174316406)"><path d="M8.35 41.66 C6.36 47.07, 4.36 52.48, -0.31 65.11 M8.35 41.66 C4.9 51.01, 1.45 60.37, -0.31 65.11" stroke="#1e1e1e" stroke-width="1" fill="none"></path></g></g><mask></mask><g stroke-linecap="round"><g transform="translate(591.2925147026549 183.7486937176095) rotate(0 0.0997314453125 31.732620239257812)"><path d="M0 0 C0.03 10.58, 0.17 52.89, 0.2 63.47 M0 0 C0.03 10.58, 0.17 52.89, 0.2 63.47" stroke="#1e1e1e" stroke-width="1" fill="none"></path></g><g transform="translate(591.2925147026549 183.7486937176095) rotate(0 0.0997314453125 31.732620239257812)"><path d="M-8.42 40 C-5.57 47.76, -2.72 55.52, 0.2 63.47 M-8.42 40 C-6.41 45.48, -4.39 50.97, 0.2 63.47" stroke="#1e1e1e" stroke-width="1" fill="none"></path></g><g transform="translate(591.2925147026549 183.7486937176095) rotate(0 0.0997314453125 31.732620239257812)"><path d="M8.68 39.95 C5.87 47.72, 3.07 55.5, 0.2 63.47 M8.68 39.95 C6.69 45.44, 4.71 50.94, 0.2 63.47" stroke="#1e1e1e" stroke-width="1" fill="none"></path></g></g><mask></mask><g stroke-linecap="round"><g transform="translate(596.9219092339049 290.1092589031564) rotate(0 0.0411376953125 30.7352294921875)"><path d="M0 0 C0.01 10.25, 0.07 51.23, 0.08 61.47 M0 0 C0.01 10.25, 0.07 51.23, 0.08 61.47" stroke="#1e1e1e" stroke-width="1" fill="none"></path></g><g transform="translate(596.9219092339049 290.1092589031564) rotate(0 0.0411376953125 30.7352294921875)"><path d="M-8.5 37.99 C-6.13 44.47, -3.77 50.94, 0.08 61.47 M-8.5 37.99 C-6.5 43.46, -4.5 48.92, 0.08 61.47" stroke="#1e1e1e" stroke-width="1" fill="none"></path></g><g transform="translate(596.9219092339049 290.1092589031564) rotate(0 0.0411376953125 30.7352294921875)"><path d="M8.6 37.97 C6.25 44.45, 3.9 50.93, 0.08 61.47 M8.6 37.97 C6.62 43.44, 4.63 48.91, 0.08 61.47" stroke="#1e1e1e" stroke-width="1" fill="none"></path></g></g><mask></mask><g stroke-linecap="round" transform="translate(576.0339482690179 362.5132381444067) rotate(0 23.977763877505936 15.98517591833729)"><path d="M0 0 C9.65 -1.04, 21.91 -0.39, 47.96 0 M0 0 C11.34 0.46, 23.22 -0.22, 47.96 0 M47.96 0 C47.62 8.57, 47.65 16.53, 47.96 31.97 M47.96 0 C48.36 11.9, 47.82 24.39, 47.96 31.97 M47.96 31.97 C29.11 31.6, 10.47 32.7, 0 31.97 M47.96 31.97 C29.48 32.04, 12.06 32.01, 0 31.97 M0 31.97 C0.52 22.06, 0.77 11.1, 0 0 M0 31.97 C-0.32 24.27, -0.45 17.17, 0 0" stroke="#000000" stroke-width="1" fill="none"></path></g><g stroke-linecap="round"><g transform="translate(576.0919944564639 394.702997364071) rotate(0 23.977763877505936 9.290025068796211)"><path d="M0 0 C-3.21 4.87, -10.46 9.77, -13.32 15.99 M0 0 C-4.71 4.02, -7.91 8.65, -13.32 15.99 M-13.32 15.99 C-12.8 16.45, -11.8 17.2, -10.8 18.58 M-13.32 15.99 C-12.5 16.85, -11.44 17.78, -10.8 18.58 M-10.8 18.58 C9.78 20.39, 28.63 20.48, 58.67 18.58 M-10.8 18.58 C15.12 18.46, 40.38 18.08, 58.67 18.58 M58.67 18.58 C59.91 17.67, 60.42 16.55, 61.28 15.99 M58.67 18.58 C59.37 17.76, 60.52 16.92, 61.28 15.99 M61.28 15.99 C55.62 10.79, 55.19 5.55, 47.96 0 M61.28 15.99 C56 10.96, 52.96 4.51, 47.96 0 M47.96 0 C35.33 0.2, 20.78 1.29, 0 0 M47.96 0 C36.82 -1, 26.7 0.12, 0 0" stroke="#000000" stroke-width="1" fill="none"></path></g></g><mask></mask><g stroke-linecap="round" transform="translate(577.1780544590188 363.71568099760486) rotate(0 22.712809449299016 14.5)"><path d="M0 0 C8.88 -0.54, 18.6 -0.91, 45.43 0 M0 0 C17.2 -0.06, 34.46 -0.02, 45.43 0 M45.43 0 C46.21 8.76, 45.73 18.66, 45.43 29 M45.43 0 C45.89 6.95, 45.26 13.81, 45.43 29 M45.43 29 C33.97 30.02, 21.64 28.38, 0 29 M45.43 29 C32.72 28.64, 20.14 29.16, 0 29 M0 29 C-0.77 18.32, 0.18 7.01, 0 0 M0 29 C0.47 21.97, 0.13 14.51, 0 0" stroke="#000000" stroke-width="1" fill="none"></path></g><g stroke-linecap="round"><g transform="translate(594.683320173745 402.4761779402499) rotate(0 5.328391972779059 2.664195986389558)"><path d="M0 0 C-0.81 1.15, -1.22 2.64, -2.66 5.33 M0 0 C-0.75 1.27, -1.31 2.58, -2.66 5.33 M-2.66 5.33 C1.64 6.02, 4.9 5.16, 13.32 5.33 M-2.66 5.33 C1.86 5.43, 6.48 5.63, 13.32 5.33 M13.32 5.33 C12.49 3.08, 11.23 1.44, 10.66 0 M13.32 5.33 C12.71 3.91, 11.94 2.48, 10.66 0 M10.66 0 C7.28 -0.35, 3.31 -0.48, 0 0 M10.66 0 C7.34 -0.14, 3.79 -0.22, 0 0" stroke="#000000" stroke-width="1" fill="none"></path></g></g><mask></mask><g stroke-linecap="round"><g transform="translate(562.7129683370704 410.4687658994186) rotate(0 37.29874380945364 0)"><path d="M0 0 C19.56 -0.97, 34.75 0.05, 74.6 0 M0 0 C19.79 -0.04, 38.98 1.03, 74.6 0" stroke="#000000" stroke-width="1" fill="none"></path></g></g><mask></mask></svg>